<svg xmlns="http://www.w3.org/2000/svg" width="1440" height="900"><path d="M702,604L748,407L617,446Z" fill="#333333" stroke="#333333" stroke-width="1.51"/><path d="M702,604L838,398L748,407Z" fill="#333333" stroke="#333333" stroke-width="1.51"/><path d="M748,407L742,326L617,446Z" fill="#333333" stroke="#333333" stroke-width="1.51"/><path d="M838,398L742,326L748,407Z" fill="#323232" stroke="#323232" stroke-width="1.51"/><path d="M617,446L499,588L702,604Z" fill="#2f2f2f" stroke="#2f2f2f" stroke-width="1.51"/><path d="M617,446L442,558L499,588Z" fill="#2e2e2e" stroke="#2e2e2e" stroke-width="1.51"/><path d="M742,326L587,283L617,446Z" fill="#303030" stroke="#303030" stroke-width="1.51"/><path d="M702,604L925,624L838,398Z" fill="#303030" stroke="#303030" stroke-width="1.51"/><path d="M878,757L925,624L702,604Z" fill="#2c2c2c" stroke="#2c2c2c" stroke-width="1.51"/><path d="M372,411L442,558L617,446Z" fill="#2f2f2f" stroke="#2f2f2f" stroke-width="1.51"/><path d="M522,791L702,604L499,588Z" fill="#2c2c2c" stroke="#2c2c2c" stroke-width="1.51"/><path d="M522,791L686,788L702,604Z" fill="#2b2b2b" stroke="#2b2b2b" stroke-width="1.51"/><path d="M925,624L996,442L838,398Z" fill="#303030" stroke="#303030" stroke-width="1.51"/><path d="M838,398L919,239L742,326Z" fill="#2f2f2f" stroke="#2f2f2f" stroke-width="1.51"/><path d="M925,624L1022,572L996,442Z" fill="#2d2d2d" stroke="#2d2d2d" stroke-width="1.51"/><path d="M686,788L878,757L702,604Z" fill="#2d2d2d" stroke="#2d2d2d" stroke-width="1.51"/><path d="M1051,815L1022,572L925,624Z" fill="#292929" stroke="#292929" stroke-width="1.51"/><path d="M442,558L448,713L499,588Z" fill="#2b2b2b" stroke="#2b2b2b" stroke-width="1.51"/><path d="M1032,345L919,239L838,398Z" fill="#2d2d2d" stroke="#2d2d2d" stroke-width="1.51"/><path d="M742,326L720,123L587,283Z" fill="#2e2e2e" stroke="#2e2e2e" stroke-width="1.51"/><path d="M448,713L522,791L499,588Z" fill="#292929" stroke="#292929" stroke-width="1.51"/><path d="M393,313L372,411L617,446Z" fill="#2e2e2e" stroke="#2e2e2e" stroke-width="1.51"/><path d="M442,558L272,576L448,713Z" fill="#2a2a2a" stroke="#2a2a2a" stroke-width="1.51"/><path d="M996,442L1032,345L838,398Z" fill="#2f2f2f" stroke="#2f2f2f" stroke-width="1.51"/><path d="M1197,356L1032,345L996,442Z" fill="#2c2c2c" stroke="#2c2c2c" stroke-width="1.51"/><path d="M587,283L393,313L617,446Z" fill="#2e2e2e" stroke="#2e2e2e" stroke-width="1.51"/><path d="M919,239L720,123L742,326Z" fill="#2d2d2d" stroke="#2d2d2d" stroke-width="1.51"/><path d="M587,283L368,145L393,313Z" fill="#292929" stroke="#292929" stroke-width="1.51"/><path d="M686,788L718,910L878,757Z" fill="#292929" stroke="#292929" stroke-width="1.51"/><path d="M552,940L718,910L686,788Z" fill="#272727" stroke="#272727" stroke-width="1.51"/><path d="M720,123L607,96L587,283Z" fill="#2b2b2b" stroke="#2b2b2b" stroke-width="1.51"/><path d="M1051,815L1159,603L1022,572Z" fill="#282828" stroke="#282828" stroke-width="1.51"/><path d="M718,910L900,879L878,757Z" fill="#272727" stroke="#272727" stroke-width="1.51"/><path d="M617,-133L527,-52L607,96Z" fill="#242424" stroke="#242424" stroke-width="1.51"/><path d="M919,239L892,115L720,123Z" fill="#2a2a2a" stroke="#2a2a2a" stroke-width="1.51"/><path d="M919,24L892,115L990,32Z" fill="#252525" stroke="#252525" stroke-width="1.51"/><path d="M372,411L272,576L442,558Z" fill="#2c2c2c" stroke="#2c2c2c" stroke-width="1.51"/><path d="M377,873L552,940L522,791Z" fill="#242424" stroke="#242424" stroke-width="1.51"/><path d="M251,398L272,576L372,411Z" fill="#2c2c2c" stroke="#2c2c2c" stroke-width="1.51"/><path d="M522,791L552,940L686,788Z" fill="#272727" stroke="#272727" stroke-width="1.51"/><path d="M926,1086L1034,946L900,879Z" fill="#202020" stroke="#202020" stroke-width="1.51"/><path d="M377,873L522,791L448,713Z" fill="#262626" stroke="#262626" stroke-width="1.51"/><path d="M250,308L251,398L372,411Z" fill="#2a2a2a" stroke="#2a2a2a" stroke-width="1.51"/><path d="M250,308L372,411L393,313Z" fill="#2a2a2a" stroke="#2a2a2a" stroke-width="1.51"/><path d="M1022,572L1159,603L996,442Z" fill="#2c2c2c" stroke="#2c2c2c" stroke-width="1.51"/><path d="M1051,815L925,624L878,757Z" fill="#282828" stroke="#282828" stroke-width="1.51"/><path d="M900,879L1051,815L878,757Z" fill="#262626" stroke="#262626" stroke-width="1.51"/><path d="M272,576L273,714L448,713Z" fill="#272727" stroke="#272727" stroke-width="1.51"/><path d="M105,615L273,714L272,576Z" fill="#252525" stroke="#252525" stroke-width="1.51"/><path d="M607,96L368,145L587,283Z" fill="#292929" stroke="#292929" stroke-width="1.51"/><path d="M264,183L250,308L393,313Z" fill="#282828" stroke="#282828" stroke-width="1.51"/><path d="M273,714L377,873L448,713Z" fill="#252525" stroke="#252525" stroke-width="1.51"/><path d="M990,32L892,115L1078,71Z" fill="#242424" stroke="#242424" stroke-width="1.51"/><path d="M1159,603L1197,356L996,442Z" fill="#2c2c2c" stroke="#2c2c2c" stroke-width="1.51"/><path d="M892,115L919,24L720,123Z" fill="#282828" stroke="#282828" stroke-width="1.51"/><path d="M607,96L527,-52L368,145Z" fill="#252525" stroke="#252525" stroke-width="1.51"/><path d="M892,115L919,239L1078,71Z" fill="#272727" stroke="#272727" stroke-width="1.51"/><path d="M368,145L264,183L393,313Z" fill="#272727" stroke="#272727" stroke-width="1.51"/><path d="M1078,71L919,239L1032,345Z" fill="#292929" stroke="#292929" stroke-width="1.51"/><path d="M900,879L1034,946L1051,815Z" fill="#232323" stroke="#232323" stroke-width="1.51"/><path d="M1051,815L1206,795L1159,603Z" fill="#252525" stroke="#252525" stroke-width="1.51"/><path d="M776,1080L900,879L718,910Z" fill="#242424" stroke="#242424" stroke-width="1.51"/><path d="M1150,102L1078,71L1032,345Z" fill="#262626" stroke="#262626" stroke-width="1.51"/><path d="M1159,603L1256,404L1197,356Z" fill="#2b2b2b" stroke="#2b2b2b" stroke-width="1.51"/><path d="M1328,613L1256,404L1159,603Z" fill="#282828" stroke="#282828" stroke-width="1.51"/><path d="M1150,102L1032,345L1197,356Z" fill="#282828" stroke="#282828" stroke-width="1.51"/><path d="M749,-88L607,96L720,123Z" fill="#282828" stroke="#282828" stroke-width="1.51"/><path d="M368,145L211,-42L264,183Z" fill="#222222" stroke="#222222" stroke-width="1.51"/><path d="M749,-88L720,123L919,24Z" fill="#272727" stroke="#272727" stroke-width="1.51"/><path d="M1034,946L1206,795L1051,815Z" fill="#222222" stroke="#222222" stroke-width="1.51"/><path d="M552,940L776,1080L718,910Z" fill="#242424" stroke="#242424" stroke-width="1.51"/><path d="M513,1094L776,1080L552,940Z" fill="#202020" stroke="#202020" stroke-width="1.51"/><path d="M120,331L128,402L251,398Z" fill="#282828" stroke="#282828" stroke-width="1.51"/><path d="M251,398L128,402L272,576Z" fill="#2a2a2a" stroke="#2a2a2a" stroke-width="1.51"/><path d="M120,331L251,398L250,308Z" fill="#282828" stroke="#282828" stroke-width="1.51"/><path d="M887,-161L749,-88L919,24Z" fill="#222222" stroke="#222222" stroke-width="1.51"/><path d="M887,-161L919,24L1027,-131Z" fill="#202020" stroke="#202020" stroke-width="1.51"/><path d="M1027,-131L919,24L990,32Z" fill="#212121" stroke="#212121" stroke-width="1.51"/><path d="M1298,176L1150,102L1197,356Z" fill="#242424" stroke="#242424" stroke-width="1.51"/><path d="M145,140L120,331L250,308Z" fill="#242424" stroke="#242424" stroke-width="1.51"/><path d="M286,1051L364,1076L377,873Z" fill="#1d1d1d" stroke="#1d1d1d" stroke-width="1.51"/><path d="M128,402L105,615L272,576Z" fill="#272727" stroke="#272727" stroke-width="1.51"/><path d="M-38,569L105,615L128,402Z" fill="#252525" stroke="#252525" stroke-width="1.51"/><path d="M364,1076L513,1094L552,940Z" fill="#1e1e1e" stroke="#1e1e1e" stroke-width="1.51"/><path d="M364,1076L552,940L377,873Z" fill="#202020" stroke="#202020" stroke-width="1.51"/><path d="M776,1080L926,1086L900,879Z" fill="#202020" stroke="#202020" stroke-width="1.51"/><path d="M1034,946L1231,981L1206,795Z" fill="#1f1f1f" stroke="#1f1f1f" stroke-width="1.51"/><path d="M902,1201L926,1086L776,1080Z" fill="#1c1c1c" stroke="#1c1c1c" stroke-width="1.51"/><path d="M264,183L145,140L250,308Z" fill="#242424" stroke="#242424" stroke-width="1.51"/><path d="M527,-52L369,-28L368,145Z" fill="#222222" stroke="#222222" stroke-width="1.51"/><path d="M436,-198L369,-28L527,-52Z" fill="#1e1e1e" stroke="#1e1e1e" stroke-width="1.51"/><path d="M1206,795L1328,613L1159,603Z" fill="#242424" stroke="#242424" stroke-width="1.51"/><path d="M749,-88L617,-133L607,96Z" fill="#252525" stroke="#252525" stroke-width="1.51"/><path d="M1206,795L1356,816L1328,613Z" fill="#212121" stroke="#212121" stroke-width="1.51"/><path d="M926,1086L1029,1067L1034,946Z" fill="#1d1d1d" stroke="#1d1d1d" stroke-width="1.51"/><path d="M211,-42L145,140L264,183Z" fill="#212121" stroke="#212121" stroke-width="1.51"/><path d="M182,921L377,873L273,714Z" fill="#212121" stroke="#212121" stroke-width="1.51"/><path d="M33,821L182,921L273,714Z" fill="#1f1f1f" stroke="#1f1f1f" stroke-width="1.51"/><path d="M1398,301L1298,176L1197,356Z" fill="#242424" stroke="#242424" stroke-width="1.51"/><path d="M1328,613L1372,434L1256,404Z" fill="#282828" stroke="#282828" stroke-width="1.51"/><path d="M1398,301L1197,356L1256,404Z" fill="#272727" stroke="#272727" stroke-width="1.51"/><path d="M749,-88L719,-199L617,-133Z" fill="#222222" stroke="#222222" stroke-width="1.51"/><path d="M1027,-131L990,32L1078,71Z" fill="#212121" stroke="#212121" stroke-width="1.51"/><path d="M1027,-131L1078,71L1152,-173Z" fill="#1e1e1e" stroke="#1e1e1e" stroke-width="1.51"/><path d="M182,921L286,1051L377,873Z" fill="#1d1d1d" stroke="#1d1d1d" stroke-width="1.51"/><path d="M887,-161L719,-199L749,-88Z" fill="#202020" stroke="#202020" stroke-width="1.51"/><path d="M213,-149L211,-42L369,-28Z" fill="#1c1c1c" stroke="#1c1c1c" stroke-width="1.51"/><path d="M1256,-3L1078,71L1150,102Z" fill="#212121" stroke="#212121" stroke-width="1.51"/><path d="M887,-161L1152,-173L719,-199Z" fill="#1d1d1d" stroke="#1d1d1d" stroke-width="1.51"/><path d="M1142,1087L1231,981L1034,946Z" fill="#1c1c1c" stroke="#1c1c1c" stroke-width="1.51"/><path d="M1372,434L1398,301L1256,404Z" fill="#262626" stroke="#262626" stroke-width="1.51"/><path d="M1328,613L1478,494L1372,434Z" fill="#252525" stroke="#252525" stroke-width="1.51"/><path d="M1372,434L1478,494L1398,301Z" fill="#252525" stroke="#252525" stroke-width="1.51"/><path d="M1339,935L1356,816L1206,795Z" fill="#1e1e1e" stroke="#1e1e1e" stroke-width="1.51"/><path d="M926,1086L1007,1254L1029,1067Z" fill="#1a1a1a" stroke="#1a1a1a" stroke-width="1.51"/><path d="M1029,1067L1142,1087L1034,946Z" fill="#1c1c1c" stroke="#1c1c1c" stroke-width="1.51"/><path d="M774,1274L902,1201L776,1080Z" fill="#1c1c1c" stroke="#1c1c1c" stroke-width="1.51"/><path d="M774,1274L776,1080L513,1094Z" fill="#1e1e1e" stroke="#1e1e1e" stroke-width="1.51"/><path d="M1007,1254L1142,1087L1029,1067Z" fill="#181818" stroke="#181818" stroke-width="1.51"/><path d="M369,-28L211,-42L368,145Z" fill="#202020" stroke="#202020" stroke-width="1.51"/><path d="M436,-198L527,-52L617,-133Z" fill="#1f1f1f" stroke="#1f1f1f" stroke-width="1.51"/><path d="M105,615L33,821L273,714Z" fill="#222222" stroke="#222222" stroke-width="1.51"/><path d="M182,921L149,1023L286,1051Z" fill="#1a1a1a" stroke="#1a1a1a" stroke-width="1.51"/><path d="M-83,791L33,821L105,615Z" fill="#1e1e1e" stroke="#1e1e1e" stroke-width="1.51"/><path d="M-38,569L128,402L-33,384Z" fill="#262626" stroke="#262626" stroke-width="1.51"/><path d="M-33,384L120,331L-90,293Z" fill="#222222" stroke="#222222" stroke-width="1.51"/><path d="M-33,384L128,402L120,331Z" fill="#252525" stroke="#252525" stroke-width="1.51"/><path d="M-35,180L120,331L145,140Z" fill="#212121" stroke="#212121" stroke-width="1.51"/><path d="M1298,176L1256,-3L1150,102Z" fill="#212121" stroke="#212121" stroke-width="1.51"/><path d="M1388,37L1256,-3L1298,176Z" fill="#1e1e1e" stroke="#1e1e1e" stroke-width="1.51"/><path d="M719,-199L436,-198L617,-133Z" fill="#1e1e1e" stroke="#1e1e1e" stroke-width="1.51"/><path d="M33,821L90,944L182,921Z" fill="#1b1b1b" stroke="#1b1b1b" stroke-width="1.51"/><path d="M90,944L149,1023L182,921Z" fill="#1a1a1a" stroke="#1a1a1a" stroke-width="1.51"/><path d="M369,1289L513,1094L364,1076Z" fill="#181818" stroke="#181818" stroke-width="1.51"/><path d="M1351,1047L1339,935L1231,981Z" fill="#191919" stroke="#191919" stroke-width="1.51"/><path d="M1231,981L1339,935L1206,795Z" fill="#1d1d1d" stroke="#1d1d1d" stroke-width="1.51"/><path d="M211,-42L97,24L145,140Z" fill="#1d1d1d" stroke="#1d1d1d" stroke-width="1.51"/><path d="M28,-147L97,24L211,-42Z" fill="#191919" stroke="#191919" stroke-width="1.51"/><path d="M1497,658L1328,613L1356,816Z" fill="#202020" stroke="#202020" stroke-width="1.51"/><path d="M1497,658L1478,494L1328,613Z" fill="#222222" stroke="#222222" stroke-width="1.51"/><path d="M902,1201L1007,1254L926,1086Z" fill="#191919" stroke="#191919" stroke-width="1.51"/><path d="M507,1276L774,1274L513,1094Z" fill="#1b1b1b" stroke="#1b1b1b" stroke-width="1.51"/><path d="M507,1276L513,1094L369,1289Z" fill="#191919" stroke="#191919" stroke-width="1.51"/><path d="M369,1289L364,1076L267,1285Z" fill="#171717" stroke="#171717" stroke-width="1.51"/><path d="M-33,384L-176,446L-38,569Z" fill="#232323" stroke="#232323" stroke-width="1.51"/><path d="M97,24L-35,180L145,140Z" fill="#1e1e1e" stroke="#1e1e1e" stroke-width="1.51"/><path d="M1503,829L1497,658L1356,816Z" fill="#1c1c1c" stroke="#1c1c1c" stroke-width="1.51"/><path d="M1256,-3L1152,-173L1078,71Z" fill="#1e1e1e" stroke="#1e1e1e" stroke-width="1.51"/><path d="M1027,-131L1152,-173L887,-161Z" fill="#1c1c1c" stroke="#1c1c1c" stroke-width="1.51"/><path d="M774,1274L1007,1254L902,1201Z" fill="#1a1a1a" stroke="#1a1a1a" stroke-width="1.51"/><path d="M1142,1087L1351,1047L1231,981Z" fill="#191919" stroke="#191919" stroke-width="1.51"/><path d="M97,24L-39,-49L-35,180Z" fill="#1a1a1a" stroke="#1a1a1a" stroke-width="1.51"/><path d="M436,-198L213,-149L369,-28Z" fill="#1c1c1c" stroke="#1c1c1c" stroke-width="1.51"/><path d="M-35,180L-90,293L120,331Z" fill="#212121" stroke="#212121" stroke-width="1.51"/><path d="M1256,-3L1397,-179L1152,-173Z" fill="#181818" stroke="#181818" stroke-width="1.51"/><path d="M1523,237L1388,37L1298,176Z" fill="#1e1e1e" stroke="#1e1e1e" stroke-width="1.51"/><path d="M1523,237L1298,176L1398,301Z" fill="#202020" stroke="#202020" stroke-width="1.51"/><path d="M33,821L-47,987L90,944Z" fill="#181818" stroke="#181818" stroke-width="1.51"/><path d="M90,944L-47,987L149,1023Z" fill="#171717" stroke="#171717" stroke-width="1.51"/><path d="M-38,569L-83,791L105,615Z" fill="#202020" stroke="#202020" stroke-width="1.51"/><path d="M-222,638L-83,791L-38,569Z" fill="#1d1d1d" stroke="#1d1d1d" stroke-width="1.51"/><path d="M1339,935L1503,829L1356,816Z" fill="#1b1b1b" stroke="#1b1b1b" stroke-width="1.51"/><path d="M1196,1214L1351,1047L1142,1087Z" fill="#161616" stroke="#161616" stroke-width="1.51"/><path d="M507,1276L369,1289L774,1274Z" fill="#1a1a1a" stroke="#1a1a1a" stroke-width="1.51"/><path d="M267,1285L364,1076L286,1051Z" fill="#171717" stroke="#171717" stroke-width="1.51"/><path d="M267,1285L286,1051L109,1203Z" fill="#151515" stroke="#151515" stroke-width="1.51"/><path d="M1478,494L1523,237L1398,301Z" fill="#222222" stroke="#222222" stroke-width="1.51"/><path d="M1612,228L1523,237L1693,403Z" fill="#1d1d1d" stroke="#1d1d1d" stroke-width="1.51"/><path d="M1693,403L1523,237L1478,494Z" fill="#212121" stroke="#212121" stroke-width="1.51"/><path d="M1530,866L1503,829L1339,935Z" fill="#191919" stroke="#191919" stroke-width="1.51"/><path d="M1007,1254L1196,1214L1142,1087Z" fill="#171717" stroke="#171717" stroke-width="1.51"/><path d="M-90,293L-176,446L-33,384Z" fill="#212121" stroke="#212121" stroke-width="1.51"/><path d="M-278,295L-176,446L-90,293Z" fill="#1e1e1e" stroke="#1e1e1e" stroke-width="1.51"/><path d="M-83,791L-47,987L33,821Z" fill="#191919" stroke="#191919" stroke-width="1.51"/><path d="M-250,904L-47,987L-83,791Z" fill="#161616" stroke="#161616" stroke-width="1.51"/><path d="M1388,37L1397,-179L1256,-3Z" fill="#191919" stroke="#191919" stroke-width="1.51"/><path d="M1555,106L1466,26L1388,37Z" fill="#1a1a1a" stroke="#1a1a1a" stroke-width="1.51"/><path d="M109,1203L286,1051L149,1023Z" fill="#161616" stroke="#161616" stroke-width="1.51"/><path d="M1503,829L1643,721L1497,658Z" fill="#1b1b1b" stroke="#1b1b1b" stroke-width="1.51"/><path d="M1351,1047L1530,866L1339,935Z" fill="#181818" stroke="#181818" stroke-width="1.51"/><path d="M1454,1135L1530,866L1351,1047Z" fill="#141414" stroke="#141414" stroke-width="1.51"/><path d="M-58,1080L109,1203L149,1023Z" fill="#131313" stroke="#131313" stroke-width="1.51"/><path d="M28,-147L-39,-49L97,24Z" fill="#171717" stroke="#171717" stroke-width="1.51"/><path d="M-244,150L-278,295L-90,293Z" fill="#1b1b1b" stroke="#1b1b1b" stroke-width="1.51"/><path d="M213,-149L28,-147L211,-42Z" fill="#181818" stroke="#181818" stroke-width="1.51"/><path d="M-192,-244L28,-147L213,-149Z" fill="#121212" stroke="#121212" stroke-width="1.51"/><path d="M-176,446L-222,638L-38,569Z" fill="#1f1f1f" stroke="#1f1f1f" stroke-width="1.51"/><path d="M1523,237L1555,106L1388,37Z" fill="#1b1b1b" stroke="#1b1b1b" stroke-width="1.51"/><path d="M1612,228L1555,106L1523,237Z" fill="#1b1b1b" stroke="#1b1b1b" stroke-width="1.51"/><path d="M1691,622L1478,494L1497,658Z" fill="#1f1f1f" stroke="#1f1f1f" stroke-width="1.51"/><path d="M-222,638L-201,798L-83,791Z" fill="#191919" stroke="#191919" stroke-width="1.51"/><path d="M-47,987L-58,1080L149,1023Z" fill="#141414" stroke="#141414" stroke-width="1.51"/><path d="M-263,1107L-58,1080L-47,987Z" fill="#0f0f0f" stroke="#0f0f0f" stroke-width="1.51"/><path d="M1530,866L1643,721L1503,829Z" fill="#191919" stroke="#191919" stroke-width="1.51"/><path d="M1196,1214L1365,1206L1351,1047Z" fill="#131313" stroke="#131313" stroke-width="1.51"/><path d="M1530,866L1705,940L1643,721Z" fill="#161616" stroke="#161616" stroke-width="1.51"/><path d="M1541,1233L1365,1206L1196,1214Z" fill="#101010" stroke="#101010" stroke-width="1.51"/><path d="M1466,26L1397,-179L1388,37Z" fill="#181818" stroke="#181818" stroke-width="1.51"/><path d="M1152,-173L1605,-199L719,-199Z" fill="#181818" stroke="#181818" stroke-width="1.51"/><path d="M1518,-181L1397,-179L1466,26Z" fill="#141414" stroke="#141414" stroke-width="1.51"/><path d="M1365,1206L1454,1135L1351,1047Z" fill="#111111" stroke="#111111" stroke-width="1.51"/><path d="M1691,622L1693,403L1478,494Z" fill="#202020" stroke="#202020" stroke-width="1.51"/><path d="M1643,721L1691,622L1497,658Z" fill="#1b1b1b" stroke="#1b1b1b" stroke-width="1.51"/><path d="M1705,940L1691,622L1643,721Z" fill="#171717" stroke="#171717" stroke-width="1.51"/><path d="M-176,446L-278,295L-222,638Z" fill="#1f1f1f" stroke="#1f1f1f" stroke-width="1.51"/><path d="M-222,638L-250,904L-201,798Z" fill="#171717" stroke="#171717" stroke-width="1.51"/><path d="M-244,150L-90,293L-35,180Z" fill="#1c1c1c" stroke="#1c1c1c" stroke-width="1.51"/><path d="M-244,150L-35,180L-178,-56Z" fill="#181818" stroke="#181818" stroke-width="1.51"/><path d="M-178,-56L-35,180L-39,-49Z" fill="#171717" stroke="#171717" stroke-width="1.51"/><path d="M-201,798L-250,904L-83,791Z" fill="#171717" stroke="#171717" stroke-width="1.51"/><path d="M-278,295L-250,904L-222,638Z" fill="#1b1b1b" stroke="#1b1b1b" stroke-width="1.51"/><path d="M28,-147L-100,-157L-39,-49Z" fill="#131313" stroke="#131313" stroke-width="1.51"/><path d="M-192,-244L-100,-157L28,-147Z" fill="#0e0e0e" stroke="#0e0e0e" stroke-width="1.51"/><path d="M-100,-157L-178,-56L-39,-49Z" fill="#131313" stroke="#131313" stroke-width="1.51"/><path d="M1397,-179L1605,-199L1152,-173Z" fill="#131313" stroke="#131313" stroke-width="1.51"/><path d="M1626,-30L1518,-181L1466,26Z" fill="#141414" stroke="#141414" stroke-width="1.51"/><path d="M1626,-30L1466,26L1555,106Z" fill="#171717" stroke="#171717" stroke-width="1.51"/><path d="M1626,-30L1555,106L1719,172Z" fill="#171717" stroke="#171717" stroke-width="1.51"/><path d="M1719,172L1555,106L1612,228Z" fill="#191919" stroke="#191919" stroke-width="1.51"/><path d="M1693,403L1719,172L1612,228Z" fill="#1b1b1b" stroke="#1b1b1b" stroke-width="1.51"/><path d="M1691,622L1719,172L1693,403Z" fill="#1d1d1d" stroke="#1d1d1d" stroke-width="1.51"/><path d="M1691,622L1705,940L1719,172Z" fill="#1b1b1b" stroke="#1b1b1b" stroke-width="1.51"/><path d="M1625,1120L1705,940L1530,866Z" fill="#111111" stroke="#111111" stroke-width="1.51"/><path d="M1625,1120L1530,866L1454,1135Z" fill="#111111" stroke="#111111" stroke-width="1.51"/><path d="M1541,1233L1625,1120L1454,1135Z" fill="#090909" stroke="#090909" stroke-width="1.51"/><path d="M1365,1206L1541,1233L1454,1135Z" fill="#0d0d0d" stroke="#0d0d0d" stroke-width="1.51"/><path d="M1007,1254L1541,1233L1196,1214Z" fill="#141414" stroke="#141414" stroke-width="1.51"/><path d="M774,1274L1541,1233L1007,1254Z" fill="#171717" stroke="#171717" stroke-width="1.51"/><path d="M1626,-30L1605,-199L1518,-181Z" fill="#0f0f0f" stroke="#0f0f0f" stroke-width="1.51"/><path d="M1518,-181L1605,-199L1397,-179Z" fill="#0f0f0f" stroke="#0f0f0f" stroke-width="1.51"/><path d="M1719,172L1605,-199L1626,-30Z" fill="#121212" stroke="#121212" stroke-width="1.51"/><path d="M-58,1080L-128,1287L109,1203Z" fill="#0d0d0d" stroke="#0d0d0d" stroke-width="1.51"/><path d="M109,1203L-128,1287L267,1285Z" fill="#111111" stroke="#111111" stroke-width="1.51"/><path d="M-250,904L-263,1107L-47,987Z" fill="#0f0f0f" stroke="#0f0f0f" stroke-width="1.51"/><path d="M-278,295L-263,1107L-250,904Z" fill="#161616" stroke="#161616" stroke-width="1.51"/><path d="M-194,1251L-128,1287L-58,1080Z" fill="#090909" stroke="#090909" stroke-width="1.51"/><path d="M267,1285L-128,1287L369,1289Z" fill="#131313" stroke="#131313" stroke-width="1.51"/><path d="M-100,-157L-192,-244L-178,-56Z" fill="#0e0e0e" stroke="#0e0e0e" stroke-width="1.51"/><path d="M-178,-56L-192,-244L-244,150Z" fill="#111111" stroke="#111111" stroke-width="1.51"/><path d="M-244,150L-192,-244L-278,295Z" fill="#151515" stroke="#151515" stroke-width="1.51"/><path d="M436,-198L-192,-244L213,-149Z" fill="#151515" stroke="#151515" stroke-width="1.51"/><path d="M719,-199L-192,-244L436,-198Z" fill="#181818" stroke="#181818" stroke-width="1.51"/><path d="M1605,-199L-192,-244L719,-199Z" fill="#1f1f1f" stroke="#1f1f1f" stroke-width="1.51"/><path d="M-263,1107L-194,1251L-58,1080Z" fill="#070707" stroke="#070707" stroke-width="1.51"/><path d="M1541,1233L1703,1198L1625,1120Z" fill="#060606" stroke="#060606" stroke-width="1.51"/><path d="M1625,1120L1703,1198L1705,940Z" fill="#080808" stroke="#080808" stroke-width="1.51"/><path d="M1705,940L1703,1198L1719,172Z" fill="#161616" stroke="#161616" stroke-width="1.51"/></svg>