<svg version="1.1" xmlns="http://www.w3.org/2000/svg" xmlns:xlink="http://www.w3.org/1999/xlink" x="0px" y="0px" viewBox="0 0 593.9 587.8" style="enable-background:new 0 0 593.9 587.8;" xml:space="preserve">
<style type="text/css">
	.st0{fill:#303030;stroke:#16A5F4;stroke-width:7;stroke-miterlimit:10;}
	.st1{fill:#FFFFFF;}
</style>
<defs>

	<filter id="sofGlow" height="300%" width="300%" x="-75%" y="-75%">
		<!-- Thicken out the original shape -->
		<feMorphology operator="dilate" radius="8" in="SourceAlpha" result="thicken" />

		<!-- Use a gaussian blur to create the soft blurriness of the glow -->
		<feGaussianBlur in="thicken" stdDeviation="10" result="blurred" />

		<!-- Change the colour -->
		<feFlood flood-color="rgb(22,165,255)" result="glowColor" />

		<!-- Color in the glows -->
		<feComposite in="glowColor" in2="blurred" operator="in" result="softGlow_colored" />

		<!--	Layer the effects together -->
		<feMerge>
			<feMergeNode in="softGlow_colored"/>
			<feMergeNode in="SourceGraphic"/>
		</feMerge>

	</filter>

</defs>
<g id="Circulo">
	<circle filter="url(#sofGlow)" class="st0" cx="297.8" cy="294.3" r="261.7"/>
</g>
<g id="Logo">
	<g id="Casino">
		<g>
			<path class="st1" d="M191.6,437.4c-0.4-0.6-0.8-1.1-1.4-1.6s-1.2-0.8-1.9-1.1c-0.7-0.3-1.4-0.4-2.2-0.4c-1.4,0-2.6,0.3-3.6,0.8
				c-1,0.5-1.8,1.3-2.4,2.2c-0.6,0.9-1.1,2-1.3,3.1c-0.3,1.2-0.4,2.4-0.4,3.6c0,1.2,0.1,2.4,0.4,3.5c0.3,1.1,0.7,2.2,1.3,3.1
				c0.6,0.9,1.4,1.6,2.4,2.2c1,0.5,2.2,0.8,3.6,0.8c1.9,0,3.4-0.6,4.5-1.8c1.1-1.2,1.7-2.7,2-4.6h6.1c-0.2,1.8-0.6,3.4-1.2,4.8
				c-0.7,1.4-1.5,2.7-2.6,3.7c-1.1,1-2.4,1.8-3.8,2.3c-1.5,0.5-3.1,0.8-4.8,0.8c-2.2,0-4.2-0.4-5.9-1.1c-1.7-0.8-3.2-1.8-4.4-3.1
				c-1.2-1.3-2.1-2.9-2.8-4.7s-1-3.7-1-5.8c0-2.1,0.3-4.1,1-5.9s1.6-3.4,2.8-4.8c1.2-1.4,2.7-2.4,4.4-3.2c1.7-0.8,3.7-1.2,5.9-1.2
				c1.6,0,3.1,0.2,4.5,0.7s2.7,1.1,3.8,2c1.1,0.9,2,1.9,2.7,3.2c0.7,1.3,1.2,2.7,1.4,4.4h-6.1C192.2,438.7,191.9,438,191.6,437.4z"
				/>
		</g>
		<g>
			<path class="st1" d="M237.4,429.8l10.7,28.6h-6.5l-2.2-6.4h-10.7l-2.2,6.4h-6.3l10.8-28.6H237.4z M237.8,447.3l-3.6-10.5h-0.1
				l-3.7,10.5H237.8z"/>
		</g>
		<g id="S">
			<path class="st1" d="M277.5,451.3c0.3,0.6,0.7,1.1,1.2,1.5c0.5,0.4,1.1,0.7,1.7,0.9c0.6,0.2,1.3,0.3,2,0.3c0.5,0,1-0.1,1.6-0.2
				c0.5-0.1,1-0.3,1.5-0.6c0.4-0.3,0.8-0.6,1.1-1.1c0.3-0.5,0.4-1,0.4-1.7c0-1.2-0.7-2-2.1-2.6c-1.4-0.6-3.4-1.2-5.9-1.8
				c-1-0.3-2-0.6-3-0.9c-1-0.3-1.9-0.8-2.6-1.4c-0.8-0.6-1.4-1.3-1.9-2.1c-0.5-0.9-0.7-1.9-0.7-3.2c0-1.8,0.3-3.3,1-4.5
				c0.6-1.2,1.5-2.1,2.6-2.8c1.1-0.7,2.3-1.2,3.6-1.4c1.3-0.3,2.7-0.4,4.1-0.4s2.8,0.1,4.1,0.4c1.3,0.3,2.5,0.8,3.5,1.5
				c1,0.7,1.9,1.6,2.6,2.8c0.7,1.2,1.1,2.6,1.2,4.4h-6.8c-0.1-1.5-0.6-2.5-1.5-3c-0.9-0.5-2-0.8-3.3-0.8c-0.4,0-0.8,0-1.3,0.1
				c-0.5,0.1-0.9,0.2-1.3,0.4c-0.4,0.2-0.7,0.4-1,0.8c-0.3,0.3-0.4,0.8-0.4,1.4c0,0.7,0.2,1.3,0.7,1.7c0.5,0.4,1.1,0.8,1.8,1.1
				s1.6,0.5,2.6,0.7c1,0.2,1.9,0.5,2.9,0.7c1,0.3,2,0.6,3,0.9c1,0.4,1.9,0.8,2.6,1.5c0.8,0.6,1.4,1.4,1.8,2.2c0.5,0.9,0.7,2,0.7,3.3
				c0,1.9-0.3,3.4-1,4.7c-0.7,1.3-1.6,2.3-2.7,3c-1.1,0.8-2.4,1.3-3.8,1.6c-1.4,0.3-2.9,0.5-4.3,0.5c-1.5,0-3-0.2-4.4-0.5
				c-1.4-0.3-2.7-0.9-3.8-1.6c-1.1-0.8-2-1.8-2.8-3c-0.7-1.3-1.1-2.8-1.2-4.7h6.8C277,450,277.1,450.7,277.5,451.3z"/>
		</g>
		<g>
			<path class="st1" d="M325.3,429.5v29.1h-5.8v-29.1H325.3z"/>
		</g>
		<g id="XMLID_2_">
			<path class="st1" d="M358.8,428.8l12.4,20.1h0.1v-20.1h6.1v30h-6.5l-12.3-20.1h-0.1v20.1h-6.1v-30H358.8z"/>
		</g>
		<g id="XMLID_1_">
			<path class="st1" d="M402.6,437.9c0.7-1.9,1.6-3.6,2.9-5.1c1.3-1.4,2.8-2.6,4.6-3.4c1.8-0.8,3.9-1.2,6.2-1.2
				c2.3,0,4.4,0.4,6.2,1.2c1.8,0.8,3.4,2,4.6,3.4c1.3,1.4,2.2,3.1,2.9,5.1c0.7,1.9,1,4,1,6.3c0,2.2-0.3,4.3-1,6.2
				c-0.7,1.9-1.6,3.6-2.9,5c-1.3,1.4-2.8,2.5-4.6,3.3c-1.8,0.8-3.9,1.2-6.2,1.2c-2.3,0-4.4-0.4-6.2-1.2c-1.8-0.8-3.4-1.9-4.6-3.3
				c-1.3-1.4-2.2-3.1-2.9-5c-0.7-1.9-1-4-1-6.2C401.5,441.9,401.9,439.8,402.6,437.9z M408.6,447.9c0.3,1.2,0.8,2.3,1.4,3.2
				c0.6,1,1.5,1.7,2.5,2.3c1,0.6,2.3,0.9,3.8,0.9c1.5,0,2.7-0.3,3.8-0.9c1-0.6,1.9-1.3,2.5-2.3c0.6-1,1.1-2,1.4-3.2
				c0.3-1.2,0.4-2.4,0.4-3.7c0-1.3-0.1-2.6-0.4-3.9c-0.3-1.2-0.8-2.4-1.4-3.3c-0.6-1-1.5-1.8-2.5-2.3c-1-0.6-2.3-0.9-3.8-0.9
				c-1.5,0-2.8,0.3-3.8,0.9c-1,0.6-1.9,1.4-2.5,2.3c-0.6,1-1.1,2.1-1.4,3.3c-0.3,1.2-0.4,2.5-0.4,3.9
				C408.2,445.4,408.3,446.7,408.6,447.9z"/>
		</g>
	</g>
	<g id="Crown_City">
		<g id="C">
			<path class="st1" d="M171,351.3h4.1v1.3c-23.3,20.8-17.1,45.2-3.1,65.2l-3.1,3.3C144,403.3,142.2,370,171,351.3z"/>
		</g>
		<g id="R">
			<path class="st1" d="M181.7,351.7v69.5h7.2v-63.4c11.5-1.5,17.3,11.3,0.8,26.4l14.7,36.9h7.4l-14.5-33.9
				c13.7-7,13.3-30.5-1.1-35.6C189.8,351,186.7,351.5,181.7,351.7z"/>
		</g>
		<g id="O">
			<path class="st1" d="M228.8,351.6c-7.7,0-14,15.6-14,34.8s6.3,34.8,14,34.8s14-15.6,14-34.8S236.5,351.6,228.8,351.6z
				 M228.9,415.7c-2.7,0-4.8-12.8-4.8-28.5s2.2-28.5,4.8-28.5s4.8,12.8,4.8,28.5S231.6,415.7,228.9,415.7z"/>
		</g>
		<g id="W">
			<polygon class="st1" points="244.6,351.6 258.4,421.2 260.5,421.2 265,386.4 265,386.4 271.8,421.2 273.5,421.2 288.6,351.6
				283,351.6 272.2,390.8 266.2,352.4 264.6,352.4 258.2,390.7 250.2,351.6 			"/>
		</g>
		<g id="N">
			<polygon class="st1" points="292.6,351.6 292.6,421.2 299.3,421.2 299.3,371.4 314.7,421.2 318.9,421.2 318.9,351.6 311,351.6
				311,390.3 299.4,351.6 			"/>
		</g>
		<g id="C_1_">
			<path class="st1" d="M358.4,351.3h4.1v1.3c-23.3,20.8-17.1,45.2-3.1,65.2l-3.1,3.3C331.3,403.3,329.5,370,358.4,351.3z"/>
		</g>
		<g id="I">
			<rect x="367.5" y="351.6" class="st1" width="7.2" height="69.6"/>
		</g>
		<g id="T">
			<polygon class="st1" points="379.4,351.6 379.4,357.8 390.1,357.8 390.1,421.2 398.3,421.2 398.3,358 409,358.2 409,351.6 			"/>
		</g>
		<g id="Y">
			<polygon class="st1" points="410.5,351.6 417.3,351.6 427.1,382.5 438,351.6 445.1,351.6 430.8,389.9 430.8,421.2 423.7,421.2
				423.7,390.1 			"/>
		</g>
	</g>
	<g id="Corona">
		<g id="Middle">
			<g>
				<circle class="st1" cx="296.4" cy="135.8" r="18.6"/>
				<circle class="st1" cx="295.9" cy="180.8" r="17.4"/>
				<circle class="st1" cx="296" cy="222.6" r="16.4"/>
				<circle class="st1" cx="295.8" cy="265.7" r="15.2"/>
				<circle class="st1" cx="295.4" cy="303.5" r="13.8"/>
			</g>
			<g>
				<circle class="st1" cx="296.4" cy="135.8" r="18.6"/>
				<circle class="st1" cx="295.9" cy="180.8" r="17.4"/>
				<circle class="st1" cx="296" cy="222.6" r="16.4"/>
				<circle class="st1" cx="295.8" cy="265.7" r="15.2"/>
				<circle class="st1" cx="295.4" cy="303.5" r="13.8"/>
			</g>
		</g>
		<g id="Plus_One">
			<g>

					<ellipse transform="matrix(0.1602 -0.9871 0.9871 0.1602 109.8393 508.3171)" class="st1" cx="353.6" cy="189.6" rx="16.2" ry="16.2"/>

					<ellipse transform="matrix(0.1602 -0.9871 0.9871 0.1602 64.6098 530.1458)" class="st1" cx="343.9" cy="227.1" rx="15.1" ry="15.1"/>

					<ellipse transform="matrix(0.1602 -0.9871 0.9871 0.1602 18.0441 556.7893)" class="st1" cx="336.2" cy="267.8" rx="13.9" ry="13.9"/>

					<ellipse transform="matrix(0.1602 -0.9871 0.9871 0.1602 -26.9234 580.2385)" class="st1" cx="327.5" cy="305.9" rx="12.8" ry="12.7"/>
			</g>
			<g>

					<ellipse transform="matrix(0.1602 -0.9871 0.9871 0.1602 109.8393 508.3171)" class="st1" cx="353.6" cy="189.6" rx="16.2" ry="16.2"/>

					<ellipse transform="matrix(0.1602 -0.9871 0.9871 0.1602 64.6098 530.1458)" class="st1" cx="343.9" cy="227.1" rx="15.1" ry="15.1"/>

					<ellipse transform="matrix(0.1602 -0.9871 0.9871 0.1602 18.0441 556.7893)" class="st1" cx="336.2" cy="267.8" rx="13.9" ry="13.9"/>

					<ellipse transform="matrix(0.1602 -0.9871 0.9871 0.1602 -26.9234 580.2385)" class="st1" cx="327.5" cy="305.9" rx="12.8" ry="12.7"/>
			</g>
		</g>
		<g id="Minus_One">
			<g>

					<ellipse transform="matrix(0.9628 -0.2701 0.2701 0.9628 -42.4513 71.5084)" class="st1" cx="238.6" cy="190" rx="16.2" ry="16.2"/>

					<ellipse transform="matrix(0.9628 -0.2701 0.2701 0.9628 -52.3137 75.4824)" class="st1" cx="248.1" cy="227.8" rx="15.1" ry="15.1"/>

					<ellipse transform="matrix(0.9628 -0.2701 0.2701 0.9628 -62.9218 79.1509)" class="st1" cx="256.1" cy="268.2" rx="14.2" ry="14.2"/>

					<ellipse transform="matrix(0.9628 -0.2701 0.2701 0.9628 -72.8537 82.8412)" class="st1" cx="264.6" cy="306.1" rx="12.7" ry="12.7"/>
			</g>
			<g>

					<ellipse transform="matrix(0.9628 -0.2701 0.2701 0.9628 -42.4513 71.5084)" class="st1" cx="238.6" cy="190" rx="16.2" ry="16.2"/>

					<ellipse transform="matrix(0.9628 -0.2701 0.2701 0.9628 -52.3137 75.4824)" class="st1" cx="248.1" cy="227.8" rx="15.1" ry="15.1"/>

					<ellipse transform="matrix(0.9628 -0.2701 0.2701 0.9628 -62.9218 79.1509)" class="st1" cx="256.1" cy="268.2" rx="14.2" ry="14.2"/>

					<ellipse transform="matrix(0.9628 -0.2701 0.2701 0.9628 -72.8537 82.8412)" class="st1" cx="264.6" cy="306.1" rx="12.7" ry="12.7"/>
			</g>
		</g>
		<g id="Minus_Two">
			<g>
				<circle class="st1" cx="178.1" cy="171.9" r="16.2"/>
				<circle class="st1" cx="195.5" cy="207.4" r="15.1"/>
				<circle class="st1" cx="209.2" cy="241.2" r="13.9"/>
				<circle class="st1" cx="224.1" cy="277.3" r="12.7"/>
				<circle class="st1" cx="236.6" cy="313.1" r="11.5"/>
			</g>
			<g>
				<circle class="st1" cx="178.1" cy="171.9" r="16.2"/>
				<circle class="st1" cx="195.5" cy="207.4" r="15.1"/>
				<circle class="st1" cx="209.2" cy="241.2" r="13.9"/>
				<circle class="st1" cx="224.1" cy="277.3" r="12.7"/>
				<circle class="st1" cx="236.6" cy="313.1" r="11.5"/>
			</g>
		</g>
		<g id="Plus_Two">
			<circle class="st1" cx="414.4" cy="171.5" r="16.1"/>
			<circle class="st1" cx="396.9" cy="207.1" r="14.9"/>
			<circle class="st1" cx="383" cy="240.9" r="13.8"/>
			<circle class="st1" cx="368.3" cy="276.8" r="12.8"/>
			<circle class="st1" cx="356" cy="312.9" r="11.5"/>
		</g>
		<g id="Minus_Three">
			<circle class="st1" cx="161.6" cy="228.6" r="13.8"/>
			<circle class="st1" cx="176.8" cy="257.3" r="12.7"/>
			<circle class="st1" cx="197" cy="289.2" r="11.5"/>
			<circle class="st1" cx="211.1" cy="320.3" r="10.3"/>
		</g>
		<g id="Plus_Three">
			<circle class="st1" cx="430.4" cy="228" r="13.9"/>
			<circle class="st1" cx="415.1" cy="256.8" r="12.8"/>
			<circle class="st1" cx="395.2" cy="288.5" r="11.5"/>
			<circle class="st1" cx="381.3" cy="320.3" r="10.4"/>
		</g>
		<g id="Minus_Four">

				<ellipse transform="matrix(0.3827 -0.9239 0.9239 0.3827 -147.7402 246.9618)" class="st1" cx="110.9" cy="234" rx="13.9" ry="13.9"/>
			<circle class="st1" cx="134.1" cy="255" r="12.7"/>
			<circle class="st1" cx="151.6" cy="277.2" r="11.5"/>
			<circle class="st1" cx="171.2" cy="303.6" r="10.3"/>
			<circle class="st1" cx="188.7" cy="330.8" r="9.2"/>
		</g>
		<g id="Plus_Four">
			<circle class="st1" cx="483" cy="232.1" r="14"/>
			<circle class="st1" cx="458.2" cy="254.5" r="13"/>
			<circle class="st1" cx="441" cy="276.8" r="11.6"/>

				<ellipse transform="matrix(0.1602 -0.9871 0.9871 0.1602 52.5149 668.9992)" class="st1" cx="419.4" cy="303.6" rx="10.4" ry="10.4"/>
			<circle class="st1" cx="403.6" cy="330.3" r="9.3"/>
		</g>
	</g>
</g>
</svg>
