<svg id="Logo" xmlns="http://www.w3.org/2000/svg" width="399.95" height="353.03" viewBox="0 0 399.95 353.03"><title>Logo Crown City</title><g id="Casino"><text transform="translate(73.5 341.13)" font-size="40" font-family="HelveticaNeue-Bold, Helvetica Neue" font-weight="700">C</text><text transform="translate(123.45 341.13)" font-size="40" font-family="HelveticaNeue-Bold, Helvetica Neue" font-weight="700">A</text><text transform="translate(171.79 341.13) scale(0.91 1)" font-size="54.86" font-family="HelveticaNeue-Bold, Helvetica Neue" font-weight="700">s</text><text transform="translate(219.96 341.39) scale(0.91 1)" font-size="40.78" font-family="HelveticaNeue-Bold, Helvetica Neue" font-weight="700">I</text><text transform="translate(252.45 341.63) scale(0.99 1)" font-size="42.03" font-family="HelveticaNeue-Bold, Helvetica Neue" font-weight="700">N</text><text transform="translate(302.95 341.95) scale(0.99 1)" font-size="42.4" font-family="HelveticaNeue-Bold, Helvetica Neue" font-weight="700">O</text></g><g id="Crown_City" data-name="Crown City"><g id="Capa_19" data-name="Capa 19"><path d="M76.75,237.48H80.9v1.29C57.62,259.54,63.84,284,77.75,304l-3.06,3.33C49.68,289.41,47.88,256.19,76.75,237.48Z" transform="translate(-2.71 -3.38)"/></g><g id="Capa_11" data-name="Capa 11"><path d="M87.42,237.83v69.5h7.16V244c11.47-1.46,17.3,11.29.8,26.44l14.7,36.92h7.42L103,273.42c13.71-7,13.32-30.51-1.08-35.59C95.49,237.16,92.4,237.61,87.42,237.83Z" transform="translate(-2.71 -3.38)"/></g><g id="Capa_18" data-name="Capa 18"><path d="M134.53,237.73c-7.71,0-14,15.58-14,34.8s6.26,34.8,14,34.8,14-15.58,14-34.8S142.25,237.73,134.53,237.73Zm.14,64.1c-2.67,0-4.84-12.76-4.84-28.5s2.17-28.5,4.84-28.5,4.83,12.76,4.83,28.5S137.34,301.83,134.67,301.83Z" transform="translate(-2.71 -3.38)"/></g><g id="Capa_12" data-name="Capa 12"><polygon points="147.63 234.35 161.46 303.96 163.54 303.96 168.03 269.21 168.03 269.21 174.79 303.96 176.54 303.96 191.59 234.35 186.04 234.35 175.22 273.56 169.18 235.17 167.59 235.17 161.16 273.5 153.19 234.35 147.63 234.35"/></g><g id="Capa_13" data-name="Capa 13"><polygon points="195.63 234.35 195.63 303.96 202.29 303.96 202.29 254.21 217.69 303.96 221.96 303.96 221.96 234.35 214.04 234.35 214.02 273.06 202.38 234.35 195.63 234.35"/></g><g id="Capa_20" data-name="Capa 20"><path d="M264.1,237.48h4.15v1.29C245,259.54,251.19,284,265.1,304L262,307.33C237,289.41,235.23,256.19,264.1,237.48Z" transform="translate(-2.71 -3.38)"/></g><g id="Capa_14" data-name="Capa 14"><rect x="270.55" y="234.35" width="7.24" height="69.6"/></g><g id="Capa_15" data-name="Capa 15"><polygon points="282.45 234.35 282.45 240.63 293.12 240.63 293.12 303.96 301.29 303.96 301.29 240.79 312.02 240.96 312.02 234.35 282.45 234.35"/></g><g id="Capa_16" data-name="Capa 16"><polygon points="313.48 234.35 320.29 234.35 330.1 265.31 341.04 234.35 348.1 234.35 333.79 272.69 333.79 303.96 326.69 303.96 326.69 272.91 313.48 234.35"/></g></g><g id="Corona"><g id="Capa_2" data-name="Capa 2"><circle cx="199.41" cy="18.58" r="18.58" fill="#fff"/><circle cx="198.95" cy="63.56" r="17.37" fill="#fff"/><circle cx="199.04" cy="105.35" r="16.42" fill="#fff"/><circle cx="198.83" cy="148.43" r="15.2" fill="#fff"/><circle cx="198.41" cy="186.3" r="13.83" fill="#fff"/><circle cx="199.41" cy="18.58" r="18.58" fill="#a27957"/><circle cx="198.95" cy="63.56" r="17.37" fill="#a27957"/><circle cx="199.04" cy="105.35" r="16.42" fill="#a27957"/><circle cx="198.83" cy="148.43" r="15.2" fill="#a27957"/><circle cx="198.41" cy="186.3" r="13.83" fill="#a27957"/></g><g id="Capa_3" data-name="Capa 3"><circle cx="259.36" cy="75.76" r="16.16" transform="matrix(0.16, -0.99, 0.99, 0.16, 140.32, 316.27)" fill="#fff"/><circle cx="249.58" cy="113.26" r="15.14" transform="translate(95.1 338.09) rotate(-80.78)" fill="#fff"/><circle cx="241.95" cy="153.94" r="13.93" transform="matrix(0.16, -0.99, 0.99, 0.16, 48.53, 364.74)" fill="#fff"/><circle cx="233.25" cy="192.09" r="12.75" transform="translate(3.56 388.19) rotate(-80.78)" fill="#fff"/><circle cx="259.36" cy="75.76" r="16.16" transform="matrix(0.16, -0.99, 0.99, 0.16, 140.32, 316.27)" fill="#a27957"/><circle cx="249.58" cy="113.26" r="15.14" transform="translate(95.1 338.09) rotate(-80.78)" fill="#a27957"/><circle cx="241.95" cy="153.94" r="13.93" transform="matrix(0.16, -0.99, 0.99, 0.16, 48.53, 364.74)" fill="#a27957"/><circle cx="233.25" cy="192.09" r="12.75" transform="translate(3.56 388.19) rotate(-80.78)" fill="#a27957"/></g><g id="Capa_4" data-name="Capa 4"><circle cx="144.3" cy="76.14" r="16.16" transform="translate(-17.92 38.43) rotate(-15.67)" fill="#fff"/><circle cx="153.8" cy="113.96" r="15.14" transform="translate(-27.78 42.41) rotate(-15.67)" fill="#fff"/><circle cx="161.83" cy="154.33" r="14.2" transform="matrix(0.96, -0.27, 0.27, 0.96, -38.39, 46.08)" fill="#fff"/><circle cx="170.27" cy="192.26" r="12.75" transform="translate(-48.32 49.77) rotate(-15.67)" fill="#fff"/><circle cx="144.3" cy="76.14" r="16.16" transform="translate(-17.92 38.43) rotate(-15.67)" fill="#a27957"/><circle cx="153.8" cy="113.96" r="15.14" transform="translate(-27.78 42.41) rotate(-15.67)" fill="#a27957"/><circle cx="161.83" cy="154.33" r="14.2" transform="matrix(0.96, -0.27, 0.27, 0.96, -38.39, 46.08)" fill="#a27957"/><circle cx="170.27" cy="192.26" r="12.75" transform="translate(-48.32 49.77) rotate(-15.67)" fill="#a27957"/></g><g id="Capa_5" data-name="Capa 5"><circle cx="81.1" cy="54.68" r="16.23" fill="#fff"/><circle cx="98.51" cy="90.2" r="15.05" fill="#fff"/><circle cx="112.23" cy="124" r="13.87" fill="#fff"/><circle cx="127.08" cy="160.05" r="12.73" fill="#fff"/><circle cx="139.6" cy="195.89" r="11.48" fill="#fff"/><circle cx="81.1" cy="54.68" r="16.23" fill="#a27957"/><circle cx="98.51" cy="90.2" r="15.05" fill="#a27957"/><circle cx="112.23" cy="124" r="13.87" fill="#a27957"/><circle cx="127.08" cy="160.05" r="12.73" fill="#a27957"/><circle cx="139.6" cy="195.89" r="11.48" fill="#a27957"/></g><g id="Capa_6" data-name="Capa 6"><circle cx="317.39" cy="54.31" r="16.1" fill="#a27957"/><circle cx="299.92" cy="89.85" r="14.9" fill="#a27957"/><circle cx="285.99" cy="123.67" r="13.79" fill="#a27957"/><circle cx="271.29" cy="159.6" r="12.77" fill="#a27957"/><circle cx="259.01" cy="195.71" r="11.54" fill="#a27957"/></g><g id="Capa_7" data-name="Capa 7"><circle cx="64.58" cy="111.38" r="13.75" fill="#a27957"/><circle cx="79.81" cy="140.08" r="12.66" fill="#a27957"/><circle cx="100.04" cy="171.95" r="11.48" fill="#a27957"/><circle cx="114.08" cy="203.12" r="10.32" fill="#a27957"/></g><g id="Capa_8" data-name="Capa 8"><circle cx="333.4" cy="110.73" r="13.94" fill="#a27957"/><circle cx="318.15" cy="139.57" r="12.84" fill="#a27957"/><circle cx="298.2" cy="171.3" r="11.55" fill="#a27957"/><circle cx="284.29" cy="203.07" r="10.42" fill="#a27957"/></g><g id="Capa_9" data-name="Capa 9"><circle cx="16.65" cy="120.19" r="13.94" transform="translate(-103.47 86.2) rotate(-67.5)" fill="#a27957"/><circle cx="37.09" cy="137.78" r="12.74" fill="#a27957"/><circle cx="54.63" cy="159.95" r="11.51" fill="#a27957"/><circle cx="74.23" cy="186.37" r="10.32" fill="#a27957"/><circle cx="91.66" cy="213.54" r="9.17" fill="#a27957"/></g><g id="Capa_10" data-name="Capa 10"><circle cx="385.96" cy="114.87" r="14" fill="#a27957"/><circle cx="361.24" cy="137.23" r="12.98" fill="#a27957"/><circle cx="343.97" cy="159.62" r="11.61" fill="#a27957"/><circle cx="325.13" cy="189.79" r="10.4" transform="translate(83 476.95) rotate(-80.78)" fill="#a27957"/><circle cx="306.65" cy="213.09" r="9.25" fill="#a27957"/></g></g></svg>