<svg xmlns="http://www.w3.org/2000/svg" width="533.48" height="533.48" viewBox="0 0 533.48 533.48"><title>Logo Crown City</title><g id="Layer_24" data-name="Layer 24"><circle cx="266.74" cy="266.74" r="261.74" fill="#212121" stroke="#a27957" stroke-miterlimit="10" stroke-width="10"/></g><g id="Logo"><g id="Casino"><text transform="translate(139.46 430.8)" font-size="40" fill="#fff" font-family="HelveticaNeue-Bold, Helvetica Neue" font-weight="700">C</text><text transform="translate(189.42 430.8)" font-size="40" fill="#fff" font-family="HelveticaNeue-Bold, Helvetica Neue" font-weight="700">A</text><text transform="translate(237.76 430.8) scale(0.91 1)" font-size="54.86" fill="#fff" font-family="HelveticaNeue-Bold, Helvetica Neue" font-weight="700">s</text><text transform="translate(285.92 431.07) scale(0.91 1)" font-size="40.78" fill="#fff" font-family="HelveticaNeue-Bold, Helvetica Neue" font-weight="700">I</text><text transform="translate(318.42 431.3) scale(0.99 1)" font-size="42.03" fill="#fff" font-family="HelveticaNeue-Bold, Helvetica Neue" font-weight="700">N</text><text transform="translate(368.92 431.62) scale(0.99 1)" font-size="42.4" fill="#fff" font-family="HelveticaNeue-Bold, Helvetica Neue" font-weight="700">O</text></g><g id="Crown_City" data-name="Crown City"><g id="Capa_19" data-name="Capa 19"><path d="M145,327.85h4.15v1.29C125.81,349.91,132,374.35,146,394.37l-3.07,3.33C117.87,379.78,116.08,346.56,145,327.85Z" transform="translate(-4.94 -4.07)" fill="#fff"/></g><g id="Capa_11" data-name="Capa 11"><path d="M155.61,328.2v69.5h7.17V334.34c11.47-1.46,17.3,11.29.79,26.44l14.71,36.92h7.42l-14.5-33.91c13.71-7,13.31-30.51-1.09-35.59C163.69,327.53,160.59,328,155.61,328.2Z" transform="translate(-4.94 -4.07)" fill="#fff"/></g><g id="Capa_18" data-name="Capa 18"><path d="M202.73,328.1c-7.72,0-14,15.58-14,34.8s6.25,34.8,14,34.8,14-15.58,14-34.8S210.44,328.1,202.73,328.1Zm.13,64.1c-2.67,0-4.83-12.76-4.83-28.5s2.16-28.5,4.83-28.5,4.84,12.76,4.84,28.5S205.53,392.2,202.86,392.2Z" transform="translate(-4.94 -4.07)" fill="#fff"/></g><g id="Capa_12" data-name="Capa 12"><polygon points="213.6 324.03 227.42 393.63 229.51 393.63 234 358.88 234 358.88 240.76 393.63 242.51 393.63 257.55 324.03 252.01 324.03 241.19 363.24 235.15 324.85 233.56 324.84 227.13 363.17 219.16 324.03 213.6 324.03" fill="#fff"/></g><g id="Capa_13" data-name="Capa 13"><polygon points="261.6 324.03 261.6 393.63 268.26 393.63 268.26 343.88 283.66 393.63 287.92 393.63 287.92 324.03 280.01 324.03 279.99 362.74 268.35 324.03 261.6 324.03" fill="#fff"/></g><g id="Capa_20" data-name="Capa 20"><path d="M332.29,327.85h4.15v1.29c-23.28,20.77-17.06,45.21-3.15,65.23l-3.06,3.33C305.22,379.78,303.42,346.56,332.29,327.85Z" transform="translate(-4.94 -4.07)" fill="#fff"/></g><g id="Capa_14" data-name="Capa 14"><rect x="336.52" y="324.03" width="7.24" height="69.6" fill="#fff"/></g><g id="Capa_15" data-name="Capa 15"><polygon points="348.42 324.03 348.42 330.3 359.09 330.3 359.09 393.63 367.26 393.63 367.26 330.47 377.99 330.63 377.99 324.03 348.42 324.03" fill="#fff"/></g><g id="Capa_16" data-name="Capa 16"><polygon points="379.44 324.03 386.26 324.03 396.07 354.99 407.01 324.03 414.07 324.03 399.76 362.36 399.76 393.63 392.66 393.63 392.66 362.58 379.44 324.03" fill="#fff"/></g></g><g id="Corona"><g id="Capa_2" data-name="Capa 2"><circle cx="265.38" cy="108.26" r="18.58" fill="#fff"/><circle cx="264.92" cy="153.24" r="17.37" fill="#fff"/><circle cx="265.01" cy="195.03" r="16.42" fill="#fff"/><circle cx="264.8" cy="238.11" r="15.2" fill="#fff"/><circle cx="264.38" cy="275.98" r="13.83" fill="#fff"/><circle cx="265.38" cy="108.26" r="18.58" fill="#a27957"/><circle cx="264.92" cy="153.24" r="17.37" fill="#a27957"/><circle cx="265.01" cy="195.03" r="16.42" fill="#a27957"/><circle cx="264.8" cy="238.11" r="15.2" fill="#a27957"/><circle cx="264.38" cy="275.98" r="13.83" fill="#a27957"/></g><g id="Capa_3" data-name="Capa 3"><circle cx="327.56" cy="166.13" r="16.16" transform="matrix(0.16, -0.99, 0.99, 0.16, 106.17, 458.78)" fill="#fff"/><circle cx="317.77" cy="203.62" r="15.14" transform="translate(60.94 480.61) rotate(-80.78)" fill="#fff"/><circle cx="310.15" cy="244.31" r="13.93" transform="matrix(0.16, -0.99, 0.99, 0.16, 14.37, 507.25)" fill="#fff"/><circle cx="301.45" cy="282.46" r="12.75" transform="translate(-30.6 530.7) rotate(-80.78)" fill="#fff"/><circle cx="327.56" cy="166.13" r="16.16" transform="matrix(0.16, -0.99, 0.99, 0.16, 106.17, 458.78)" fill="#a27957"/><circle cx="317.77" cy="203.62" r="15.14" transform="translate(60.94 480.61) rotate(-80.78)" fill="#a27957"/><circle cx="310.15" cy="244.31" r="13.93" transform="matrix(0.16, -0.99, 0.99, 0.16, 14.37, 507.25)" fill="#a27957"/><circle cx="301.45" cy="282.46" r="12.75" transform="translate(-30.6 530.7) rotate(-80.78)" fill="#a27957"/></g><g id="Capa_4" data-name="Capa 4"><circle cx="212.49" cy="166.51" r="16.16" transform="translate(-42.02 59.52) rotate(-15.67)" fill="#fff"/><circle cx="222" cy="204.33" r="15.14" transform="translate(-51.88 63.49) rotate(-15.67)" fill="#fff"/><circle cx="230.02" cy="244.7" r="14.2" transform="matrix(0.96, -0.27, 0.27, 0.96, -62.49, 67.16)" fill="#fff"/><circle cx="238.46" cy="282.63" r="12.75" transform="translate(-72.42 70.85) rotate(-15.67)" fill="#fff"/><circle cx="212.49" cy="166.51" r="16.16" transform="translate(-42.02 59.52) rotate(-15.67)" fill="#a27957"/><circle cx="222" cy="204.33" r="15.14" transform="translate(-51.88 63.49) rotate(-15.67)" fill="#a27957"/><circle cx="230.02" cy="244.7" r="14.2" transform="matrix(0.96, -0.27, 0.27, 0.96, -62.49, 67.16)" fill="#a27957"/><circle cx="238.46" cy="282.63" r="12.75" transform="translate(-72.42 70.85) rotate(-15.67)" fill="#a27957"/></g><g id="Capa_5" data-name="Capa 5"><circle cx="147.07" cy="144.36" r="16.23" fill="#fff"/><circle cx="164.48" cy="179.87" r="15.05" fill="#fff"/><circle cx="178.2" cy="213.67" r="13.87" fill="#fff"/><circle cx="193.05" cy="249.73" r="12.73" fill="#fff"/><circle cx="205.57" cy="285.56" r="11.48" fill="#fff"/><circle cx="147.07" cy="144.36" r="16.23" fill="#a27957"/><circle cx="164.48" cy="179.87" r="15.05" fill="#a27957"/><circle cx="178.2" cy="213.67" r="13.87" fill="#a27957"/><circle cx="193.05" cy="249.73" r="12.73" fill="#a27957"/><circle cx="205.57" cy="285.56" r="11.48" fill="#a27957"/></g><g id="Capa_6" data-name="Capa 6"><circle cx="383.36" cy="143.99" r="16.1" fill="#a27957"/><circle cx="365.89" cy="179.52" r="14.9" fill="#a27957"/><circle cx="351.96" cy="213.34" r="13.79" fill="#a27957"/><circle cx="337.26" cy="249.28" r="12.77" fill="#a27957"/><circle cx="324.98" cy="285.39" r="11.54" fill="#a27957"/></g><g id="Capa_7" data-name="Capa 7"><circle cx="130.55" cy="201.05" r="13.75" fill="#a27957"/><circle cx="145.78" cy="229.76" r="12.66" fill="#a27957"/><circle cx="166" cy="261.63" r="11.48" fill="#a27957"/><circle cx="180.05" cy="292.79" r="10.32" fill="#a27957"/></g><g id="Capa_8" data-name="Capa 8"><circle cx="399.37" cy="200.4" r="13.94" fill="#a27957"/><circle cx="384.12" cy="229.25" r="12.84" fill="#a27957"/><circle cx="364.16" cy="260.97" r="11.55" fill="#a27957"/><circle cx="350.25" cy="292.75" r="10.42" fill="#a27957"/></g><g id="Capa_9" data-name="Capa 9"><circle cx="84.85" cy="210.56" r="13.94" transform="translate(-147.09 204.3) rotate(-67.5)" fill="#a27957"/><circle cx="103.06" cy="227.46" r="12.74" fill="#a27957"/><circle cx="120.6" cy="249.62" r="11.51" fill="#a27957"/><circle cx="140.2" cy="276.05" r="10.32" fill="#a27957"/><circle cx="157.63" cy="303.22" r="9.17" fill="#a27957"/></g><g id="Capa_10" data-name="Capa 10"><circle cx="451.92" cy="204.55" r="14" fill="#a27957"/><circle cx="427.2" cy="226.9" r="12.98" fill="#a27957"/><circle cx="409.94" cy="249.29" r="11.61" fill="#a27957"/><circle cx="393.33" cy="280.16" r="10.4" transform="translate(48.84 619.46) rotate(-80.78)" fill="#a27957"/><circle cx="372.62" cy="302.77" r="9.25" fill="#a27957"/></g></g></g></svg>