<svg version="1.1" xmlns="http://www.w3.org/2000/svg" xmlns:xlink="http://www.w3.org/1999/xlink" x="0px" y="0px"
	 viewBox="0 0 560 560" style="enable-background:new 0 0 560 560;" xml:space="preserve">
<style type="text/css">
	.st0{fill:#212121;}
	.st1{fill:#FFFFFF;}
</style>
<defs>

	<filter id="sofGlow" height="300%" width="300%" x="-75%" y="-75%">
		<!-- Thicken out the original shape -->
		<feMorphology operator="dilate" radius="7" in="SourceAlpha" result="thicken" />

		<!-- Use a gaussian blur to create the soft blurriness of the glow -->
		<feGaussianBlur in="thicken" stdDeviation="6" result="blurred" />

		<!-- Change the colour -->
		<feFlood flood-color="rgb(237,178,48)" result="glowColor" />

		<!-- Color in the glows -->
		<feComposite in="glowColor" in2="blurred" operator="in" result="softGlow_colored" />

		<!--	Layer the effects together -->
		<feMerge>
			<feMergeNode in="softGlow_colored"/>
			<feMergeNode in="SourceGraphic"/>
		</feMerge>

	</filter>

</defs>
<g id="Circulo">
	<circle filter="url(#sofGlow)" class="st0" cx="276.9" cy="276.9" r="261.7"/>
</g>
<g id="Logo">
	<g id="Casino">
		<g>
			<path class="st1" d="M170.7,420c-0.4-0.6-0.8-1.1-1.4-1.6s-1.2-0.8-1.9-1.1c-0.7-0.3-1.4-0.4-2.2-0.4c-1.4,0-2.6,0.3-3.6,0.8
				c-1,0.5-1.8,1.3-2.4,2.2c-0.6,0.9-1.1,2-1.3,3.1c-0.3,1.2-0.4,2.4-0.4,3.6c0,1.2,0.1,2.4,0.4,3.5c0.3,1.1,0.7,2.2,1.3,3.1
				c0.6,0.9,1.4,1.6,2.4,2.2c1,0.5,2.2,0.8,3.6,0.8c1.9,0,3.4-0.6,4.5-1.8c1.1-1.2,1.7-2.7,2-4.6h6.1c-0.2,1.8-0.6,3.4-1.2,4.8
				c-0.7,1.4-1.5,2.7-2.6,3.7c-1.1,1-2.4,1.8-3.8,2.3c-1.5,0.5-3.1,0.8-4.8,0.8c-2.2,0-4.2-0.4-5.9-1.1c-1.7-0.8-3.2-1.8-4.4-3.1
				c-1.2-1.3-2.1-2.9-2.8-4.7s-1-3.7-1-5.8c0-2.1,0.3-4.1,1-5.9s1.6-3.4,2.8-4.8c1.2-1.4,2.7-2.4,4.4-3.2c1.7-0.8,3.7-1.2,5.9-1.2
				c1.6,0,3.1,0.2,4.5,0.7s2.7,1.1,3.8,2c1.1,0.9,2,1.9,2.7,3.2c0.7,1.3,1.2,2.7,1.4,4.4h-6.1C171.3,421.3,171.1,420.6,170.7,420z"
				/>
		</g>
		<g>
			<path class="st1" d="M216.6,412.4l10.7,28.6h-6.5l-2.2-6.4h-10.7l-2.2,6.4h-6.3l10.8-28.6H216.6z M216.9,429.9l-3.6-10.5h-0.1
				l-3.7,10.5H216.9z"/>
		</g>
		<g>
			<path class="st1" d="M256.6,433.9c0.3,0.6,0.7,1.1,1.2,1.5c0.5,0.4,1.1,0.7,1.7,0.9c0.6,0.2,1.3,0.3,2,0.3c0.5,0,1-0.1,1.6-0.2
				c0.5-0.1,1-0.3,1.5-0.6c0.4-0.3,0.8-0.6,1.1-1.1c0.3-0.5,0.4-1,0.4-1.7c0-1.2-0.7-2-2.1-2.6c-1.4-0.6-3.4-1.2-5.9-1.8
				c-1-0.3-2-0.6-3-0.9c-1-0.3-1.9-0.8-2.6-1.4c-0.8-0.6-1.4-1.3-1.9-2.1c-0.5-0.9-0.7-1.9-0.7-3.2c0-1.8,0.3-3.3,1-4.5
				c0.6-1.2,1.5-2.1,2.6-2.8c1.1-0.7,2.3-1.2,3.6-1.4c1.3-0.3,2.7-0.4,4.1-0.4s2.8,0.1,4.1,0.4c1.3,0.3,2.5,0.8,3.5,1.5
				c1,0.7,1.9,1.6,2.6,2.8c0.7,1.2,1.1,2.6,1.2,4.4h-6.8c-0.1-1.5-0.6-2.5-1.5-3c-0.9-0.5-2-0.8-3.3-0.8c-0.4,0-0.8,0-1.3,0.1
				c-0.5,0.1-0.9,0.2-1.3,0.4c-0.4,0.2-0.7,0.4-1,0.8c-0.3,0.3-0.4,0.8-0.4,1.4c0,0.7,0.2,1.3,0.7,1.7c0.5,0.4,1.1,0.8,1.8,1.1
				s1.6,0.5,2.6,0.7c1,0.2,1.9,0.5,2.9,0.7c1,0.3,2,0.6,3,0.9c1,0.4,1.9,0.8,2.6,1.5c0.8,0.6,1.4,1.4,1.8,2.2c0.5,0.9,0.7,2,0.7,3.3
				c0,1.9-0.3,3.4-1,4.7c-0.7,1.3-1.6,2.3-2.7,3c-1.1,0.8-2.4,1.3-3.8,1.6c-1.4,0.3-2.9,0.5-4.3,0.5c-1.5,0-3-0.2-4.4-0.5
				c-1.4-0.3-2.7-0.9-3.8-1.6c-1.1-0.8-2-1.8-2.8-3c-0.7-1.3-1.1-2.8-1.2-4.7h6.8C256.1,432.6,256.3,433.3,256.6,433.9z"/>
		</g>
		<g>
			<path class="st1" d="M304.4,412.1v29.1h-5.8v-29.1H304.4z"/>
		</g>
		<g>
			<path class="st1" d="M337.9,411.5l12.4,20.1h0.1v-20.1h6.1v30h-6.5l-12.3-20.1h-0.1v20.1h-6.1v-30H337.9z"/>
		</g>
		<g>
			<path class="st1" d="M381.7,420.5c0.7-1.9,1.6-3.6,2.9-5.1c1.3-1.4,2.8-2.6,4.6-3.4c1.8-0.8,3.9-1.2,6.2-1.2
				c2.3,0,4.4,0.4,6.2,1.2c1.8,0.8,3.4,2,4.6,3.4c1.3,1.4,2.2,3.1,2.9,5.1c0.7,1.9,1,4,1,6.3c0,2.2-0.3,4.3-1,6.2
				c-0.7,1.9-1.6,3.6-2.9,5c-1.3,1.4-2.8,2.5-4.6,3.3c-1.8,0.8-3.9,1.2-6.2,1.2c-2.3,0-4.4-0.4-6.2-1.2c-1.8-0.8-3.4-1.9-4.6-3.3
				c-1.3-1.4-2.2-3.1-2.9-5c-0.7-1.9-1-4-1-6.2C380.7,424.5,381,422.4,381.7,420.5z M387.7,430.5c0.3,1.2,0.8,2.3,1.4,3.2
				c0.6,1,1.5,1.7,2.5,2.3c1,0.6,2.3,0.9,3.8,0.9c1.5,0,2.7-0.3,3.8-0.9c1-0.6,1.9-1.3,2.5-2.3c0.6-1,1.1-2,1.4-3.2
				c0.3-1.2,0.4-2.4,0.4-3.7c0-1.3-0.1-2.6-0.4-3.9c-0.3-1.2-0.8-2.4-1.4-3.3c-0.6-1-1.5-1.8-2.5-2.3c-1-0.6-2.3-0.9-3.8-0.9
				c-1.5,0-2.8,0.3-3.8,0.9c-1,0.6-1.9,1.4-2.5,2.3c-0.6,1-1.1,2.1-1.4,3.3c-0.3,1.2-0.4,2.5-0.4,3.9
				C387.3,428,387.4,429.3,387.7,430.5z"/>
		</g>
	</g>
	<g id="Crown_City">
		<g id="Capa_19">
			<path class="st1" d="M150.2,333.9l4.2,0v1.3c-23.3,20.8-17.1,45.2-3.2,65.2l-3.1,3.3C123.1,385.9,121.3,352.6,150.2,333.9z"/>
		</g>
		<g id="Capa_11">
			<path class="st1" d="M160.8,334.3v69.5h7.2l0-63.4c11.5-1.5,17.3,11.3,0.8,26.4l14.7,36.9h7.4l-14.5-33.9
				c13.7-7,13.3-30.5-1.1-35.6C168.9,333.6,165.8,334.1,160.8,334.3z"/>
		</g>
		<g id="Capa_18">
			<path class="st1" d="M207.9,334.2c-7.7,0-14,15.6-14,34.8s6.3,34.8,14,34.8s14-15.6,14-34.8S215.7,334.2,207.9,334.2z
				 M208.1,398.3c-2.7,0-4.8-12.8-4.8-28.5s2.2-28.5,4.8-28.5s4.8,12.8,4.8,28.5S210.7,398.3,208.1,398.3z"/>
		</g>
		<g id="Capa_12">
			<polygon class="st1" points="223.8,334.2 237.6,403.8 239.7,403.8 244.2,369 244.2,369 250.9,403.8 252.7,403.8 267.7,334.2 
				262.2,334.2 251.4,373.4 245.3,335 243.7,335 237.3,373.3 229.3,334.2 			"/>
		</g>
		<g id="Capa_13">
			<polygon class="st1" points="271.8,334.2 271.8,403.8 278.4,403.8 278.4,354 293.8,403.8 298.1,403.8 298.1,334.2 290.2,334.2 
				290.1,372.9 278.5,334.2 			"/>
		</g>
		<g id="Capa_20">
			<path class="st1" d="M337.5,333.9l4.1,0v1.3c-23.3,20.8-17.1,45.2-3.1,65.2l-3.1,3.3C310.4,385.9,308.6,352.6,337.5,333.9z"/>
		</g>
		<g id="Capa_14">
			<rect x="346.7" y="334.2" class="st1" width="7.2" height="69.6"/>
		</g>
		<g id="Capa_15">
			<polygon class="st1" points="358.6,334.2 358.6,340.5 369.2,340.5 369.2,403.8 377.4,403.8 377.4,340.6 388.1,340.8 388.1,334.2 
							"/>
		</g>
		<g id="Capa_16">
			<polygon class="st1" points="389.6,334.2 396.4,334.2 406.2,365.1 417.2,334.2 424.2,334.2 409.9,372.5 409.9,403.8 402.8,403.8 
				402.8,372.7 			"/>
		</g>
	</g>
	<g id="Corona">
		<g id="Capa_2">
			<g>
				<circle class="st1" cx="275.5" cy="118.4" r="18.6"/>
				<circle class="st1" cx="275.1" cy="163.4" r="17.4"/>
				<circle class="st1" cx="275.2" cy="205.2" r="16.4"/>
				<circle class="st1" cx="275" cy="248.3" r="15.2"/>
				<circle class="st1" cx="274.5" cy="286.1" r="13.8"/>
			</g>
			<g>
				<circle class="st1" cx="275.5" cy="118.4" r="18.6"/>
				<circle class="st1" cx="275.1" cy="163.4" r="17.4"/>
				<circle class="st1" cx="275.2" cy="205.2" r="16.4"/>
				<circle class="st1" cx="275" cy="248.3" r="15.2"/>
				<circle class="st1" cx="274.5" cy="286.1" r="13.8"/>
			</g>
		</g>
		<g id="Capa_3">
			<g>
				
					<ellipse transform="matrix(0.1602 -0.9871 0.9871 0.1602 109.4794 473.1115)" class="st1" cx="332.8" cy="172.2" rx="16.2" ry="16.2"/>
				
					<ellipse transform="matrix(0.1602 -0.9871 0.9871 0.1602 64.2499 494.9402)" class="st1" cx="323" cy="209.7" rx="15.1" ry="15.1"/>
				
					<ellipse transform="matrix(0.1602 -0.9871 0.9871 0.1602 17.6842 521.5837)" class="st1" cx="315.4" cy="250.4" rx="13.9" ry="13.9"/>
				
					<ellipse transform="matrix(0.1602 -0.9871 0.9871 0.1602 -27.2833 545.0329)" class="st1" cx="306.7" cy="288.6" rx="12.8" ry="12.7"/>
			</g>
			<g>
				
					<ellipse transform="matrix(0.1602 -0.9871 0.9871 0.1602 109.4794 473.1115)" class="st1" cx="332.8" cy="172.2" rx="16.2" ry="16.2"/>
				
					<ellipse transform="matrix(0.1602 -0.9871 0.9871 0.1602 64.2499 494.9402)" class="st1" cx="323" cy="209.7" rx="15.1" ry="15.1"/>
				
					<ellipse transform="matrix(0.1602 -0.9871 0.9871 0.1602 17.6842 521.5837)" class="st1" cx="315.4" cy="250.4" rx="13.9" ry="13.9"/>
				
					<ellipse transform="matrix(0.1602 -0.9871 0.9871 0.1602 -27.2833 545.0329)" class="st1" cx="306.7" cy="288.6" rx="12.8" ry="12.7"/>
			</g>
		</g>
		<g id="Capa_4">
			<g>
				
					<ellipse transform="matrix(0.9628 -0.2701 0.2701 0.9628 -38.5293 65.2245)" class="st1" cx="217.7" cy="172.6" rx="16.2" ry="16.2"/>
				
					<ellipse transform="matrix(0.9628 -0.2701 0.2701 0.9628 -48.3917 69.1985)" class="st1" cx="227.2" cy="210.4" rx="15.1" ry="15.1"/>
				
					<ellipse transform="matrix(0.9628 -0.2701 0.2701 0.9628 -58.9998 72.867)" class="st1" cx="235.2" cy="250.8" rx="14.2" ry="14.2"/>
				
					<ellipse transform="matrix(0.9628 -0.2701 0.2701 0.9628 -68.9317 76.5573)" class="st1" cx="243.7" cy="288.7" rx="12.7" ry="12.7"/>
			</g>
			<g>
				
					<ellipse transform="matrix(0.9628 -0.2701 0.2701 0.9628 -38.5293 65.2245)" class="st1" cx="217.7" cy="172.6" rx="16.2" ry="16.2"/>
				
					<ellipse transform="matrix(0.9628 -0.2701 0.2701 0.9628 -48.3917 69.1985)" class="st1" cx="227.2" cy="210.4" rx="15.1" ry="15.1"/>
				
					<ellipse transform="matrix(0.9628 -0.2701 0.2701 0.9628 -58.9998 72.867)" class="st1" cx="235.2" cy="250.8" rx="14.2" ry="14.2"/>
				
					<ellipse transform="matrix(0.9628 -0.2701 0.2701 0.9628 -68.9317 76.5573)" class="st1" cx="243.7" cy="288.7" rx="12.7" ry="12.7"/>
			</g>
		</g>
		<g id="Capa_5">
			<g>
				<circle class="st1" cx="157.2" cy="154.5" r="16.2"/>
				<circle class="st1" cx="174.6" cy="190" r="15.1"/>
				<circle class="st1" cx="188.4" cy="223.8" r="13.9"/>
				<circle class="st1" cx="203.2" cy="259.9" r="12.7"/>
				<circle class="st1" cx="215.7" cy="295.7" r="11.5"/>
			</g>
			<g>
				<circle class="st1" cx="157.2" cy="154.5" r="16.2"/>
				<circle class="st1" cx="174.6" cy="190" r="15.1"/>
				<circle class="st1" cx="188.4" cy="223.8" r="13.9"/>
				<circle class="st1" cx="203.2" cy="259.9" r="12.7"/>
				<circle class="st1" cx="215.7" cy="295.7" r="11.5"/>
			</g>
		</g>
		<g id="Capa_6">
			<circle class="st1" cx="393.5" cy="154.1" r="16.1"/>
			<circle class="st1" cx="376" cy="189.7" r="14.9"/>
			<circle class="st1" cx="362.1" cy="223.5" r="13.8"/>
			<circle class="st1" cx="347.4" cy="259.4" r="12.8"/>
			<circle class="st1" cx="335.1" cy="295.5" r="11.5"/>
		</g>
		<g id="Capa_7">
			<circle class="st1" cx="140.7" cy="211.2" r="13.8"/>
			<circle class="st1" cx="155.9" cy="239.9" r="12.7"/>
			<circle class="st1" cx="176.2" cy="271.8" r="11.5"/>
			<circle class="st1" cx="190.2" cy="303" r="10.3"/>
		</g>
		<g id="Capa_8">
			<circle class="st1" cx="409.5" cy="210.6" r="13.9"/>
			<circle class="st1" cx="394.3" cy="239.4" r="12.8"/>
			<circle class="st1" cx="374.3" cy="271.1" r="11.5"/>
			<circle class="st1" cx="360.4" cy="302.9" r="10.4"/>
		</g>
		<g id="Capa_9">
			
				<ellipse transform="matrix(0.3827 -0.9239 0.9239 0.3827 -144.5559 216.9449)" class="st1" cx="90.1" cy="216.6" rx="13.9" ry="13.9"/>
			<circle class="st1" cx="113.2" cy="237.6" r="12.7"/>
			<circle class="st1" cx="130.8" cy="259.8" r="11.5"/>
			<circle class="st1" cx="150.4" cy="286.2" r="10.3"/>
			<circle class="st1" cx="167.8" cy="313.4" r="9.2"/>
		</g>
		<g id="Capa_10">
			<circle class="st1" cx="462.1" cy="214.7" r="14"/>
			<circle class="st1" cx="437.4" cy="237.1" r="13"/>
			<circle class="st1" cx="420.1" cy="259.4" r="11.6"/>
			
				<ellipse transform="matrix(0.1602 -0.9871 0.9871 0.1602 52.155 633.7936)" class="st1" cx="398.5" cy="286.2" rx="10.4" ry="10.4"/>
			<circle class="st1" cx="382.8" cy="312.9" r="9.3"/>
		</g>
	</g>
</g>
</svg>
