<?xml version="1.0" encoding="utf-8"?>
<!-- Generator: Adobe Illustrator 21.0.2, SVG Export Plug-In . SVG Version: 6.00 Build 0)  -->
<svg version="1.1" id="Capa_1" xmlns="http://www.w3.org/2000/svg" xmlns:xlink="http://www.w3.org/1999/xlink" x="0px" y="0px"
	 viewBox="0 0 589.3 50.7" style="enable-background:new 0 0 589.3 50.7;" xml:space="preserve">
<style type="text/css">
	.st0{fill:#C39F45;}
</style>
<g>
	<path class="st0" d="M13,14.2c-0.4-0.4-0.5-0.8-0.5-1.3s0.2-1,0.5-1.3s0.8-0.5,1.3-0.5c0.5,0,1,0.2,1.3,0.5
		c0.4,0.4,0.5,0.8,0.5,1.3s-0.2,1-0.5,1.3c-0.4,0.4-0.8,0.5-1.3,0.5C13.8,14.8,13.4,14.6,13,14.2z M13.4,44.4V17.1h1.9v27.3H13.4z"
		/>
	<path class="st0" d="M41.3,32.9v11.5h-1.9v-33h8.7c2.5,0.3,4.7,1.4,6.4,3.2c2.1,2.1,3.2,4.7,3.2,7.6c0,3-1.1,5.5-3.2,7.7
		c-2.1,2.1-4.6,3.2-7.6,3.2H41.3z M41.3,13.2v17.8h5.6c2.4,0,4.5-0.9,6.3-2.6c1.7-1.7,2.6-3.8,2.6-6.3c0-2.5-0.9-4.6-2.6-6.3
		c-1.7-1.7-3.8-2.6-6.3-2.6H41.3z"/>
	<path class="st0" d="M89,32.9h-6.2v11.5h-1.9v-33h8.7c2.5,0.3,4.7,1.4,6.4,3.2c2.1,2.1,3.2,4.7,3.2,7.6c0,3-1.1,5.5-3.2,7.6
		c-1.5,1.5-3.1,2.4-5,2.9l7.6,11.8h-2.3L89,32.9z M82.8,13.2v17.8h5.6c2.4,0,4.5-0.9,6.3-2.6c1.7-1.7,2.6-3.8,2.6-6.3
		c0-2.5-0.9-4.6-2.6-6.3c-1.7-1.7-3.8-2.6-6.3-2.6H82.8z"/>
	<path class="st0" d="M150.3,15.9c3.3,3.3,5,7.3,5,12c0,4.7-1.7,8.7-5,12c-3.3,3.3-7.3,5-12,5c-4.7,0-8.7-1.7-12-5
		c-3.3-3.3-5-7.3-5-12c0-4.7,1.7-8.7,5-12c3.3-3.3,7.3-5,12-5C143,10.9,147,12.5,150.3,15.9z M138.3,12.8c-4.1,0-7.7,1.5-10.6,4.4
		c-2.9,2.9-4.4,6.5-4.4,10.6c0,4.2,1.5,7.7,4.4,10.7c2.9,2.9,6.5,4.4,10.6,4.4c4.2,0,7.7-1.5,10.7-4.4s4.4-6.5,4.4-10.7
		c0-4.1-1.5-7.7-4.4-10.6S142.4,12.8,138.3,12.8z M142.8,5.1l-5.1,3.9H136l3.4-3.9H142.8z"/>
	<path class="st0" d="M176.2,44.4l10.5-18.2l-8.6-14.9h2.1l7.5,13.1l7.5-13.1h2.1l-8.6,14.9l10.5,18.2h-2.1l-9.4-16.3l-9.4,16.3
		H176.2z"/>
	<path class="st0" d="M223.5,11.4v33h-1.9v-33H223.5z"/>
	<path class="st0" d="M277,11.4v33h-1.9v-31l-12.8,16.8l-12.8-16.8v31h-1.9v-33h2.7l12,15.7l11.9-15.7H277z"/>
	<path class="st0" d="M312.4,11.4l12,33h-2l-5.3-14.5h-11.4l-5.4,14.5h-2l12.1-33H312.4z M316.4,28l-5-13.9l-5,13.9H316.4z"/>
	<path class="st0" d="M375.1,11.4v33h-1.9v-31l-12.8,16.8l-12.8-16.8v31h-1.9v-33h2.7l12,15.7l11.9-15.7H375.1z"/>
	<path class="st0" d="M415.6,11.4v1.9h-14.7v13.7h14.7v1.9h-14.7v13.7h14.7v1.9H399v-33H415.6z"/>
	<path class="st0" d="M442.2,11.4l22,30.8V11.4h1.9v33h-2.9l-21.5-30.1v30.1h-1.9v-33H442.2z"/>
	<path class="st0" d="M498.7,13.2v31.2h-1.8V13.2h-8.4v-1.9h18.6v1.9H498.7z"/>
	<path class="st0" d="M546.1,11.4v1.9h-14.7v13.7h14.7v1.9h-14.7v13.7h14.7v1.9h-16.5v-33H546.1z"/>
	<path class="st0" d="M572.4,41.5c0.4,0.4,0.5,0.8,0.5,1.3s-0.2,1-0.5,1.3c-0.4,0.4-0.8,0.5-1.3,0.5c-0.5,0-1-0.2-1.3-0.5
		c-0.4-0.4-0.5-0.8-0.5-1.3s0.2-1,0.5-1.3c0.4-0.4,0.8-0.5,1.3-0.5C571.6,41,572,41.2,572.4,41.5z M571.9,11.4v27.3h-1.9V11.4H571.9
		z"/>
</g>
<g>
</g>
<g>
</g>
<g>
</g>
<g>
</g>
<g>
</g>
<g>
</g>
</svg>
