<?xml version="1.0" encoding="utf-8"?>
<!-- Generator: Adobe Illustrator 22.1.0, SVG Export Plug-In . SVG Version: 6.00 Build 0)  -->
<svg version="1.1" id="Chef-Adrian" xmlns="http://www.w3.org/2000/svg" xmlns:xlink="http://www.w3.org/1999/xlink" x="0px"
	 y="0px" viewBox="0 0 458 416" style="enable-background:new 0 0 458 416;" xml:space="preserve">
<style type="text/css">
	.st0{fill:#F5D2CC;}
	.st1{fill:#F1EFF4;}
	.st2{fill:#F7F8F8;}
	.st3{display:none;fill:#F1EFF4;}
	.st4{fill:#381408;}
	.st5{fill:#F5D2CC;stroke:#000000;stroke-width:3;stroke-miterlimit:10;}
	.st6{fill:#F7F8F8;stroke:#000000;stroke-width:3;stroke-miterlimit:10;}
	.st7{fill:#502008;}
	.st8{fill:#FFFFFF;}
	.st9{fill:#BC0C24;}
	.st10{fill:#E4472E;}
	.st11{fill-rule:evenodd;clip-rule:evenodd;}
</style>
<path class="st0" d="M213.9,238.3c0,0,17.7,5.4,25.3,2.9s13.8-26.2,13.8-26.2s-33.5,5.7-40.9,2.7
	C204.6,214.8,213.9,238.3,213.9,238.3z"/>
<path class="st1" d="M213.9,238.3c0,0,17.7,5.4,25.3,2.9s13.8-26.2,13.8-26.2s-33.5,5.7-40.9,2.7
	C204.6,214.8,213.9,238.3,213.9,238.3z"/>
<path class="st2" d="M282.2,268.4c32.3-14.8,66.4-18.9,78.2-11.9c-1.9-3.7-9.4-12.8-10.8-17.3c-0.8-2.6-1.4-5.1-1.8-7.5
	c-2.4-10.1,1.6-32.4,4.7-43.1C332,206,290,219.3,257.7,225.8c1.5,4.8,0.4,10.2-5.2,13.5c-14.1,8.2-28.4,8.1-41.4-1.8
	c-3.5-2.7-5.9-6.5-6-10.6c-34.6-6.6-86.2-21.5-100.1-36.3c2.4,6.2,8.2,24.2,8.2,32.9c0,8.9-6.9,20.9-9.4,27.2
	c14-3.8,46.1-2.4,74.8,10.7c8.2,3.9,0.6,46.2-6.7,75.6c-0.3,1-5.4,9.3-5.8,10.3c36.4,12,87.2,14.5,124.4,1.5
	c-0.5-1.8-7.7-14.5-7.3-16.4C279.5,303.7,274.7,272,282.2,268.4z"/>
<path class="st1" d="M349.6,239.2c-0.8-2.6-1.4-5.1-1.8-7.5c-1.8-7.5-0.1-21.8,2.3-33c-15,13.1-33.6,21-52.8,26.1
	c-9.5,2.5-19.5,5.1-29.6,6.6c-0.3,0.2-0.7,0.4-1.1,0.6c-0.5,0.2-1,0.4-1.5,0.6c-0.5,0.3-1.1,0.7-1.6,1c0,0-0.1,0.1-0.1,0.1
	c-6.6,5.5-13.8,10.2-21.6,13.1c-3.6,23.6-3.6,47.6-4.1,71.5c-0.3,13-0.1,26.3-2.6,39.1c5,0,9.9-0.2,14.8-0.6
	c10.4-31,22.8-63,22.5-96.2c0-1.6,0.6-2.9,1.6-3.7c0.2-1.2,1-2.4,2.4-3.2c14.1-7.7,29.5-7.7,45.1-7.9c12.1-0.1,24.2,0.9,35.4,5
	C353.9,246.8,350.5,242.1,349.6,239.2z"/>
<path class="st2" d="M232.2,221.6c1.1,0,2.2-0.2,3.2-0.6c-2.5-1.8-5.9-2.5-8.9-1.9C228.2,220.5,230.1,221.6,232.2,221.6z"/>
<path class="st0" d="M98.7,187c-1.8-4.9-4.5-9.6-8.5-13.9c-5.4-5.8-8.7-12.7-10.6-20.8c-1.3-5.5,0.7-11.1-1.5-16.4
	c-1.8-4.3-2.7-8.9-4.6-13.1c-1.8-4-5-6.4-9.8-5.7c-4.7,0.7-8.8,3.9-9.3,8.6c-0.9,9.5-0.4,18.5,6.1,26.8c3.3,4.2,4.2,10.4,6.1,15.7
	c-2.2-0.3-3.8-0.9-4.5-0.4c-4.3,3.6-9.2,5.3-14.8,5.4c-0.9,0-1.8,0.8-4,1.7c4.4,1.4,7.8,2.4,11.1,3.4c0,0.2-0.1,0.4-0.1,0.6
	c-3.1-0.2-6.3-0.3-9.4-0.5c-4-0.2-8.3-0.7-10.4,3.7c-2.2,4.8-2.3,9.9,0.7,14.6c0.3,0.5,0.7,0.9,1.1,1.3c-9.1,4.5-9,16.1-0.2,22.1
	c-0.7,1.4-1.9,2.6-1.9,3.8c0.2,2.7,0.7,5.6,1.8,8c2.4,5.5,6.4,10,8.2,16.1c0.8,2.7,9.8,7.3,9.7,7.5c2.7,1.2,5.5,1.7,7.8,0.9
	c2.9-1,4.5-0.2,6.7,0.5c9.6,3.1,18.5,2,26.4-4.4c4.1-3.3,4.6-6.8,2.2-11c-10.9,4.3-30,4.4-38.6-0.3c11.4,2.2,21.9,0.6,32.3-1.8
	c8.6-2,10.8-11.9,4.5-18.1c-12.7,7.3-33.5,7.4-43.4-0.5c12.6,3.4,24.5,3.8,36.5,0.1c3.4-1.1,6.2-2.5,7-6.3c0.9-4.2,0.4-8.2-2.6-11.4
	c-0.8-0.8-2.7-1.1-3.9-0.8c-11.4,3.2-22-1-32.9-2.4c6.7-0.1,13.4,0.1,20.1-0.2c4-0.1,8.1-0.6,12.1-1.5c1.4-0.3,3.1-2.2,3.5-3.6
	c2.3-9,0.1-13.4-8.9-15.7c-8.3-2.1-16.8-3-24.5-4.2c8.8-1.6,18.4-1.9,27.9,1.5c10.3,3.7,14.3,15,8.8,24.6c4.7,3.9,5.4,9.5,2.4,17.9
	c3.4,3.3,5.4,9.6,4.1,14.8c-0.9,3.5-1.2,6.5-0.1,10c0.9,3.3,0.5,6.7-1.6,9.2c0.6,0.1,1.2,0.2,1.9,0.4c0.6-0.9,1.4-1.8,2.4-2.5
	c3.3-6.5,5.4-15.8,5.4-26.1c0-8.9-6.6-28.4-10.4-37.5C98.7,187,98.7,187,98.7,187z"/>
<path class="st1" d="M71.7,223.5c2.9,0,5.9-0.3,8.8-0.8C77.4,223.1,74.3,223.3,71.7,223.5z"/>
<path class="st1" d="M88.1,220.9c1.8-0.6,3.4-1.2,4.7-2.3c-0.2,0.1-0.5,0.3-0.8,0.4c-0.9,0.4-1.8,0.8-2.7,1.2
	c-0.5,0.3-1,0.5-1.5,0.7c-0.2,0.1-0.4,0.2-0.5,0.3C87.5,221,87.8,221,88.1,220.9z"/>
<path class="st1" d="M92.6,203.1c-0.2-0.2-0.4-0.3-0.7-0.5c-0.1,0.5-0.2,1-0.3,1.5c2,1.9,3.3,4.5,3.2,7.4c0.3,0.5,0.5,1,0.6,1.5
	C95.9,209.4,95.2,205.9,92.6,203.1z"/>
<path class="st1" d="M97.1,223.8c-0.5-0.9-1.2-1.8-2-2.6c-2,1.1-4.1,2.1-6.4,2.9c1.6-0.2,3.1-0.5,4.6-0.8
	C94.6,223,96,223.2,97.1,223.8z"/>
<path class="st1" d="M106.6,210.3c-0.6-2.3-1.3-4.7-2-7C105.1,205.5,105.8,207.9,106.6,210.3z"/>
<path class="st1" d="M68.4,248.4c0.6-0.5,1.2-1,1.8-1.4c-1.9-0.8-3.5-1.9-4.8-3.4c-2.8-0.6-5.2-1.4-7.1-2.4c2,0.4,4,0.7,6,0.8
	c-0.2-0.3-0.4-0.7-0.6-1.1c-1.5-3.5-0.8-6.7,1.1-9.2c-4.4-2.6-8.6-5.3-11.1-9.5c-0.7-0.4-1.4-0.9-2-1.4c0.5,0.1,1,0.3,1.5,0.4
	c-0.3-0.6-0.5-1.1-0.8-1.7c-1.1-3.1,1.8-6.4,4.8-6.3c2.4,0,3.1,0.2,3.8-1.8c-0.8-0.4-1.6-1.1-2.1-2.2c-1.5-3-2.1-6.2-1.4-9
	c-0.6-0.1-1.2-0.2-1.7-0.2c0.6,0,1.2,0,1.8,0c0.7-2.3,2.4-4.3,5.5-5.3c4.9-1.7,10.1-0.6,15.1-1.3c1.4-0.2,3.1-0.7,2.5-2.9
	c-0.4-1.4-3.4-2.7-4.6-3.2c-4.7-2.1-10.1-2.9-15.2-3.7c-4.6-0.8-4.4-6.1-1.6-8.5c-0.4-0.1-0.8-0.1-1.2-0.2c0.6-0.1,1.2-0.2,1.8-0.3
	c0.7-0.4,1.5-0.7,2.3-0.8c2.9-0.2,6.2-0.2,9.5,0c4.7,0.1,9.5,0.9,14.2,2.6c0.3,0.1,0.6,0.3,1,0.4c-5.8-9.6-13.3-18.1-16.2-29.2
	c-2.2-8.3,0.6-22.4-9.3-25.9c-1.4-0.5-2.3-1.4-2.8-2.4c-2.3,1.5-3.9,3.8-4.2,6.7c-0.9,9.5-0.4,18.5,6.1,26.8
	c3.3,4.2,4.2,10.4,6.1,15.7c-2.2-0.3-3.8-0.9-4.5-0.4c-4.3,3.6-9.2,5.3-14.8,5.4c-0.9,0-1.8,0.8-4,1.7c4.4,1.4,7.8,2.4,11.1,3.4
	c0,0.2-0.1,0.4-0.1,0.6c-3.1-0.2-6.3-0.3-9.4-0.5c-4-0.2-8.3-0.7-10.4,3.7c-2.2,4.8-2.3,9.9,0.7,14.6c0.3,0.5,0.7,0.9,1.1,1.3
	c-9.1,4.5-9,16.1-0.2,22.1c-0.7,1.4-1.9,2.6-1.9,3.8c0.2,2.7,0.7,5.6,1.8,8c2.4,5.5,6.4,10,8.2,16.1c0.8,2.7,9.8,7.3,9.7,7.5
	c2.7,1.2,5.5,1.7,7.8,0.9c2.3-0.8,3.8-0.5,5.3,0.1C65.6,254,65.6,251.1,68.4,248.4z"/>
<path class="st3" d="M101.1,224.5c-1-2.8-2.1-5.6-3.1-8.4c-0.2,0.8-0.5,1.7-0.8,2.6c3.4,3.3,5.4,9.6,4.1,14.8
	c-0.9,3.5-1.2,6.5-0.1,10c0.2,0.8,0.4,1.5,0.4,2.3c0.5-0.6,0.9-1.2,1.2-1.9C105.5,237.9,103.1,230.4,101.1,224.5z"/>
<path class="st0" d="M423.5,198.7c0.9-2.6,2.2-5,2.6-7.6c1.3-8.6-2.5-12.7-11.2-12.3c-3.3,0.1-6.7,0.3-10.2,0
	c3.4-1.1,6.7-2.1,10.1-3.2c0-0.4-0.1-0.7-0.1-1.1c-1.6-0.5-3.2-1.3-4.7-1.3c-4.7,0.1-8.4-1.8-11.9-4.5c-0.9-0.7-2.6-0.5-4.9-0.9
	c0.6-1.9,1.3-4.7,2.1-7.5c0,0,0,0,0,0c0.4-0.3,0.7-0.5,0.9-0.7c0.1-0.1,0.5-0.9,1.1-2c0.6-0.6,1.1-1.3,1.2-2.2
	c2.7-5.2,6.7-14.1,6.7-19.6c0,0,0,0,0,0c0.6-4.4,0.5-8.6-0.7-11.4c-1.7-4.2-5-6.4-9.3-7c-4.4-0.6-7.1,1.9-9.2,5.3
	c-1.1,1.8-2,3.9-2.8,6.2c0,0-4.2,18.5-4,25.6c-0.9,5.6-3.5,10.4-6.8,15c-3.4,4.6-6.8,9.1-9.9,13.8c-3.6,5.4-4.7,11.4-4,17.9
	c0,0,0,0.1,0,0.1c0.1,0,0.2,0,0.3,0c-0.1,0.1-0.2,0.1-0.3,0.2c0.2,3.2-1.3,6.5-1.9,9.6c-0.3-0.5-1-1.6-2-3.2c-0.7,1.5-1.3,3-1.8,4.5
	c-1.3,7.2-0.7,16.8,2.3,26.8c0.8,2.6,2.1,4.8,3.7,6.8c0-0.9,0.2-1.9,0.5-2.8c1-3.5,0.7-6.6-0.1-10c-1.3-5.3,0.7-11.6,4.1-14.8
	c-3-8.4-2.3-14,2.4-17.9c-5.5-9.5-1.5-20.9,8.8-24.6c9.4-3.4,19.1-3.1,27.9-1.5c-7.7,1.3-16.2,2.2-24.5,4.2
	c-9,2.3-11.2,6.7-8.9,15.7c0.4,1.5,2.1,3.3,3.5,3.6c3.9,0.9,8,1.4,12.1,1.5c6.7,0.2,13.4,0.1,20.1,0.2c-10.9,1.4-21.6,5.6-32.9,2.4
	c-1.2-0.3-3.1,0-3.9,0.8c-3,3.2-3.5,7.2-2.6,11.4c0.8,3.8,3.6,5.3,7,6.3c11.9,3.7,23.8,3.3,36.5-0.1c-9.9,7.8-30.7,7.8-43.4,0.5
	c-6.3,6.1-4.1,16.1,4.5,18.1c10.4,2.4,20.9,4.1,32.3,1.8c-8.6,4.7-27.7,4.6-38.6,0.3c-2.4,4.1-1.9,7.7,2.2,11
	c7.9,6.4,16.8,7.5,26.4,4.4c2.1-0.7,3.8-1.5,6.7-0.5c6.5,2.3,16.9-5.4,18.4-12.1c0.4-1.7,1.6-3.3,2.3-4.9c2-4.8,4.1-9.5,5.7-14.4
	c0.4-1-0.9-2.6-1.5-4.2C431.8,213.9,431.8,202.7,423.5,198.7z"/>
<path class="st1" d="M404.2,141.5c0.6-2.1,1-4.1,1-5.7c0,0,0,0,0,0c0.6-4.4,0.5-8.6-0.7-11.4c-0.2-0.5-0.4-0.9-0.6-1.3
	C405.4,129,405.2,135.1,404.2,141.5z"/>
<path class="st1" d="M407.7,175.4c-4.9-1.1-8.9-3.6-11.7-7.3c-0.8-0.1-1.8-0.1-3-0.3c0.2-0.7,0.4-1.5,0.7-2.3
	c-2.8,0.2-5.6,0.8-8.5,0.6c-4.2-0.2-6.7-5.3-3.5-8.5c9-9,12.1-22.2,6.7-33.9c-0.6-1.4-0.6-2.8-0.2-3.9c-0.9,0.8-1.6,1.9-2.3,3
	c-1.1,1.8-2,3.9-2.8,6.2c0,0-4.2,18.5-4,25.6c-0.9,5.6-3.5,10.4-6.8,15c-3.4,4.6-6.8,9.1-9.9,13.8c-3.6,5.4-4.7,11.4-4,17.9
	c0,0,0,0.1,0,0.1c0.1,0,0.2,0,0.3,0c-0.1,0.1-0.2,0.1-0.3,0.2c0.2,3.2-1.3,6.5-1.9,9.6c-0.3-0.5-1-1.6-2-3.2c-0.7,1.5-1.3,3-1.8,4.5
	c-1.3,7.2-0.7,16.8,2.3,26.8c0.8,2.6,2.1,4.8,3.7,6.8c0-0.9,0.2-1.9,0.5-2.8c1-3.5,0.7-6.6-0.1-10c-1.3-5.3,0.7-11.6,4.1-14.8
	c-3-8.4-2.3-14,2.4-17.9c-5.5-9.5-1.5-20.9,8.8-24.6c9.4-3.4,19.1-3.1,27.9-1.5c-7.7,1.3-16.2,2.2-24.5,4.2
	c-9,2.3-11.2,6.7-8.9,15.7c0.4,1.5,2.1,3.3,3.5,3.6c3.9,0.9,8,1.4,12.1,1.5c5.5,0.2,11.1,0.1,16.6,0.1c0.8-0.3,1.5-0.6,2.3-0.9
	c-9.3-3.6-18.1-9.2-10.8-16.6C396.4,178.1,401.9,176.4,407.7,175.4z"/>
<path class="st1" d="M379,249.4c1.5-2,3.3-3.7,5.3-5.1c-7.5,0.1-15.4-1-21-3.2c-2.4,4.1-1.9,7.7,2.2,11c3.2,2.6,6.7,4.3,10.2,5.3
	C376.2,254.6,377.3,251.9,379,249.4z"/>
<path class="st1" d="M369.6,239c6.2,1.5,12.5,2.6,18.9,2.8c2.6-1.3,5.4-2.4,8.2-3.3c-0.8-0.1-1.4-0.2-1.5-0.3
	c-4-0.3-8.4-0.1-12.2-1.3c-5.4-1.7-4.4-9.8,1.3-9.8c6.6,0,13.3-0.2,19.6-2c2.8-0.8,5.8-1.9,7.8-4.2c0.7-0.8,1.1-2.2,1.7-3
	c-0.9-0.1-2.4-0.4-3.2-0.4c-2.6,0-5.1,0.2-7.7,0.4c-4.3,0.3-9.4,1.2-13.6-0.4c-2.9-1.1-4.8-4.4-3-7.3c2.8-4.6,7.4-7.4,12.5-9.5
	c-8.8,1.7-17.6,4-26.9,1.4c-1.2-0.3-3.1,0-3.9,0.8c-3,3.2-3.5,7.2-2.6,11.4c0.8,3.8,3.6,5.3,7,6.3c11.9,3.7,23.8,3.3,36.5-0.1
	c-9.9,7.8-30.7,7.8-43.4,0.5C358.8,227,361,237,369.6,239z"/>
<path class="st0" d="M293,120c-0.2-6.1-4.9-51.1-23.3-56.7s-25.2-4.4-32.9-5.6c-7.7-1.2-19.8-13.5-30.6-12.4
	c-10.7,1.2-26.1,1.9-36.6,35.4c0,0-4.2,37.5-3.5,45.9c0.2,2.9,0.8,9.4,1.8,17.1c5,2.9,7.3,10.6,4.3,15.7c0,0.2,0,0.3,0,0.5
	c0.4,2,0.9,4.1,1.2,6.1c0.4,2.6,0.2,5.1-0.5,7.4c1.1,4.6,2.4,8.4,3.8,10.8c6.1,10.5,20.1,38.5,44.3,41.5c24.3,3,42.7-11.9,50.6-24
	c7.9-12.1,16.6-33.1,18-37.5C290.9,159.9,293.3,126.1,293,120z"/>
<path class="st1" d="M211,212.5c-10.9-16.6-17.9-35.6-22.9-54.7c-5.5-20.9-6.9-42.3-3-63.6c3.3-17.7,10.5-34,20.3-48.7
	c-10.7,1.1-25.6,2.6-35.8,35.4c0,0-4.2,37.5-3.5,45.9c0.2,2.9,0.8,9.4,1.8,17.1c5,2.9,7.3,10.6,4.3,15.7c0,0.2,0,0.3,0,0.5
	c0.4,2,0.9,4.1,1.2,6.1c0.4,2.6,0.2,5.1-0.5,7.4c1.1,4.6,2.4,8.4,3.8,10.8c6.1,10.5,20.1,38.5,44.3,41.5c0.1,0,0.2,0,0.4,0
	C217.6,221.7,214.2,217.2,211,212.5z"/>
<polygon class="st4" points="237.3,115.7 249.4,105.7 270.4,104.3 279.5,113.3 266.5,110 250.4,110 "/>
<polygon class="st4" points="176.9,117.2 188.1,108.3 205.8,108.3 216.1,117.2 204.2,114.4 191.1,114.1 "/>
<path class="st5" d="M294.9,115.3c0.7,0.3,2.3,2.1,3.7,2.2c1.4,0.1,5.1-1.9,4.5,4.8c-0.6,6.6,1.5,4.4-1.8,11.2
	c-3.3,6.8-10,16.1-10.8,17.1c-0.8,1,2-16.7,1.9-23.7S294.9,115.3,294.9,115.3z"/>
<path class="st5" d="M168,118.3c0,0-1.4,3.6-4,2.9s-4.5-4.1-4.5,0.1s-0.6,10.4,2,15.2s3.9,6.8,5.1,7.3c1.3,0.6,2.7,0.9,2.7,0.9
	s-2.7-4.9-2.3-8.9C167.5,131.8,168,118.3,168,118.3z"/>
<path d="M217.5,160.9c0,0-3.3,0.7-3.5-0.4s0-1.8,1.8-1.7c1.7,0.1,3.9-0.3,5.1,0.8c1.1,1,2.4,3.6,3.8,4.1s-2,0.3-3.5-1.3
	C219.6,160.8,219.9,159.4,217.5,160.9z"/>
<path d="M217.5,187.5c0,0,4.1-0.4,11.2-1.9s20-7.3,20-7.3s-6.3,6.4-8.3,7.9C238.4,187.7,220,193,217.5,187.5z"/>
<path d="M221.4,122.3c0,0-1.3,13.5-4.8,19.9c-3.5,6.4-4.7,8.9-4.7,8.9s9.1-7.9,9.4-17.4C221.8,124.2,221.4,122.3,221.4,122.3z"/>
<path d="M256,314.5c-0.3,1.2-0.5,2.4-0.8,3.6c2,10.3,4,20.7,6.1,31.6c0.2,0.3,0.3,0.6,0.5,1c1.3,2.8,2.2,5.5,2.9,8.4
	c1.2-0.2,2.4-0.3,3.6-0.5c-1.1-2.8-2-5.6-2.4-8.7C262.6,337.9,259.3,326.2,256,314.5z"/>
<path d="M103.6,192c-0.4-0.6-0.9-1.3-1.4-2.1C102.7,190.5,103.2,191.2,103.6,192z"/>
<path d="M220.6,225c-2-0.2-4-0.4-5.9-0.6c-0.4,0.9-0.8,1.7-1.3,2.7c-8.6-2.1-17.1-4.1-26.3-6.3c0-0.1,0.1-0.2,0.1-0.4
	c-0.9-0.1-1.8-0.3-2.7-0.4c-1.9-0.3-3.5-0.9-4.7-1.7c-1-0.2-2-0.3-2.9-0.7c-15-5.6-33.4-8.9-45.2-14.9c-2.1-1.1-5.6-3.2-9.3-5.9
	c-0.5-0.2-1-0.4-1.5-0.7c-7.7-4.5-16.3-13.2-23-20.8c0,0,0,0.1,0,0.1c-1.6-1.7-2.9-3.1-4.1-4.5c-1.9-2.1-3.6-4.4-5-6.7
	c-1.5-1.9-6-15-6.5-21.8c-0.6-8-3.7-16.3-7.6-23.3c-4.8-8.6-17.4-7.9-22.4,0.2c-4.5,7.2-3.4,24.3,1.5,31.1c3.2,4.4,5.6,9.3,8.7,14.4
	c-4.7,2-8.8,4.7-13.2,5.4c-7.9,1.2-13.6,6-19.7,10.3c-1.3,0.9-2.8,3-2.7,4.3c0.8,8.6-4.1,17-2.6,24.7c1.5,7.8,3.3,16.1,6.6,23.7
	c0.3,0.7,0.8,1.2,1.2,1.8c1.6,3,3.9,5.9,4.7,9.2c2,7.5,13,13.5,13,13.5c0.9,0.3,1.9,0.5,2.9,0.6c10.9,1.5,22,2.1,33,1.9
	c2.2,0,3.4-0.6,3.8-1c2.2,0.4,7.2,1.1,7.8,1.1c3.1,0,6-1.9,8.5-5.1c13.6-4.2,40.4,1,69.4,14.2c2.5,25.2-0.8,49.8-10,74.1
	c1.2,0.5,2.4,1.2,3.4,2.1c0.8,0.2,1.8,0.6,2,0.6c0.4,0.1,0.8,0.1,1.1,0.2c1.2-2.8,2.4-5.4,3.1-8.1c7.3-29.4,12.6-71.8,4.4-75.7
	c-28.6-13.1-55.4-18.5-69.4-14.7c2.5-6.2,4-14.3,4-23.2c0-8.7-5.8-26.7-8.2-32.9c14.8,15.8,72.3,31.5,106.5,37.4
	c0.4,1.4,0.8,2.7,1.2,4c1.1,0.3,2.1,0.7,3.2,1.2c1,0.6,2.1,1,3.2,1.5c-0.6-1.3-1-2.7-1.1-4.3C218.6,229.2,219.3,226.9,220.6,225z
	 M109.1,224.9c0,10.3-2.1,19.6-5.4,26.1c-0.9,0.7-1.7,1.6-2.4,2.5c-0.6-0.1-1.2-0.3-1.9-0.4c2-2.5,2.5-6,1.6-9.2
	c-1-3.5-0.7-6.6,0.1-10c1.3-5.3-0.7-11.6-4.1-14.8c3-8.4,2.3-14-2.4-17.9c5.5-9.5,1.5-20.9-8.8-24.6c-9.4-3.4-19.1-3.1-27.9-1.5
	c7.7,1.3,16.2,2.2,24.5,4.2c9,2.3,11.2,6.7,8.9,15.7c-0.4,1.5-2.1,3.3-3.5,3.6c-3.9,0.9-8,1.4-12.1,1.5c-6.7,0.2-13.4,0.1-20.1,0.2
	c10.9,1.4,21.6,5.6,32.9,2.4c1.2-0.3,3.1,0,3.9,0.8c3,3.2,3.5,7.2,2.6,11.4c-0.8,3.8-3.6,5.3-7,6.3c-11.9,3.7-23.8,3.3-36.5-0.1
	c9.9,7.8,30.7,7.8,43.4,0.5c6.3,6.1,4.1,16.1-4.5,18.1c-10.4,2.4-20.9,4.1-32.3,1.8c8.6,4.7,27.7,4.6,38.6,0.3
	c2.4,4.1,1.9,7.7-2.2,11c-7.9,6.4-16.8,7.5-26.4,4.4c-2.1-0.7-3.8-1.5-6.7-0.5c-2.3,0.8-5.1,0.3-7.8-0.9c0-0.2-9-4.8-9.7-7.5
	c-1.8-6-5.8-10.6-8.2-16.1c-1.1-2.5-1.5-5.3-1.8-8c-0.1-1.2,1.2-2.4,1.9-3.8c-8.7-6-8.9-17.6,0.2-22.1c-0.4-0.4-0.8-0.8-1.1-1.3
	c-3.1-4.7-3-9.8-0.7-14.6c2-4.4,6.4-3.9,10.4-3.7c3.1,0.2,6.3,0.3,9.4,0.5c0-0.2,0.1-0.4,0.1-0.6c-3.3-1-6.6-2.1-11.1-3.4
	c2.2-1,3.1-1.7,4-1.7c5.6-0.1,10.5-1.8,14.8-5.4c0.6-0.5,2.3,0.2,4.5,0.4c-2-5.3-2.8-11.5-6.1-15.7c-6.4-8.3-6.9-17.3-6.1-26.8
	c0.4-4.7,4.6-7.9,9.3-8.6c4.8-0.7,8,1.7,9.8,5.7c1.9,4.2,2.8,8.9,4.6,13.1c2.2,5.3,0.3,10.9,1.5,16.4c1.8,8,5.1,15,10.6,20.8
	c4,4.3,6.7,8.9,8.5,13.9c0,0,0.1,0,0.1,0.1C102.6,196.5,109.1,216,109.1,224.9z"/>
<path d="M432.5,190.6c0.7-2.7-0.4-6.8-2.3-8.9c-5.1-5.6-11.5-9.3-19.1-11.2c-4.9-1.2-9.5-3.6-14.1-5.3c2.6-4.9,4.2-9.3,6.8-12.8
	c6.7-8.8,6.9-18.6,4.9-28.7c-1.2-5.9-5.4-9.1-11.3-10.1c-5.7-1-10.8,0.9-13,5.8c-3.4,7.6-7,15.7-7.5,23.8c-0.7,11.7-5,20.8-12.6,29
	c-4.9,6.3-15.1,17.9-27.2,23.9c-0.4,0.2-0.9,0.4-1.3,0.6c-11.7,6.5-29.5,13.8-55.1,21.3c-0.2,0.1-0.5,0-1.1-0.1c-1.8,1.3-4,2-6.8,2
	c0,0-0.1,0-0.1,0c0,0.2,0.1,0.3,0.1,0.5c-9.2,2.2-18,4.4-26.9,6.5c-0.4-0.7-0.7-1.3-1-1.9c-2,0.2-4,0.3-6,0.4
	c1.9,3.1,2.2,7,0.4,10.3c-0.5,1-1.1,1.9-1.6,2.8c2.2-0.1,4.3-0.2,6.5-0.5c1.3-1.2,1.6-3.1,1.6-4.9c0.1-3.3,1.8-4.1,4.5-4.5
	c32.9-5.8,80.8-19.8,103-38.8c-3.1,10.7-7.1,33-4.7,43.1c0.5,2.5,1.1,5,1.8,7.5c1.4,4.5,3.1,8.7,5,12.4c-11.8-7-41.7-2.1-74.1,12.8
	c-8.2,3.9-2.9,46.3,4.4,75.7c0.7,2.7,1.9,5.3,3.1,8.1c0.4-0.1,0.8-0.1,1.1-0.2c0.2,0,1.2-0.4,2-0.6c1-0.9,2.2-1.6,3.4-2.1
	c-9.1-24.4-12.5-49-10-74.1c33.9-15.4,65-20,75.2-11.2c0-0.1,0-0.2,0-0.3c0.9-0.9,4.3-3,6.3-4.1c2.5,1.5,5.1,2.7,7.6,2.7
	c11,0.3,22.1-0.4,33-1.9c7.1-1,12.7-5.3,14.7-13.2c0.8-3,3-5.5,4.4-8.3c1.6-3.2,4-6.5,4.3-9.9c0.5-5.7,3-10.4,5-15.4v-6.1
	C433.2,200.6,431,196.3,432.5,190.6z M423.4,220.4c0.6,1.6,1.8,3.1,1.5,4.2c-1.7,4.9-3.7,9.6-5.7,14.4c-0.7,1.7-1.9,3.2-2.3,4.9
	c-1.5,6.8-11.9,14.4-18.4,12.1c-2.9-1-4.5-0.2-6.7,0.5c-9.6,3.1-18.5,2-26.4-4.4c-4.1-3.3-4.6-6.8-2.2-11c10.9,4.3,30,4.4,38.6-0.3
	c-11.4,2.2-21.9,0.6-32.3-1.8c-8.6-2-10.8-11.9-4.5-18.1c12.7,7.3,33.5,7.4,43.4-0.5c-12.6,3.4-24.5,3.8-36.5,0.1
	c-3.4-1.1-6.2-2.5-7-6.3c-0.9-4.2-0.4-8.2,2.6-11.4c0.8-0.8,2.7-1.1,3.9-0.8c11.4,3.2,22-1,32.9-2.4c-6.7-0.1-13.4,0.1-20.1-0.2
	c-4-0.1-8.1-0.6-12.1-1.5c-1.4-0.3-3.1-2.2-3.5-3.6c-2.3-9-0.1-13.4,8.9-15.7c8.3-2.1,16.8-3,24.5-4.2c-8.8-1.6-18.4-1.9-27.9,1.5
	c-10.3,3.7-14.3,15-8.8,24.6c-4.7,3.9-5.4,9.5-2.4,17.9c-3.4,3.3-5.4,9.6-4.1,14.8c0.9,3.5,1.2,6.5,0.1,10c-0.3,0.9-0.4,1.9-0.5,2.8
	c-1.6-2-2.9-4.2-3.7-6.8c-3-10-3.7-19.6-2.3-26.8c0.5-1.5,1.1-3,1.8-4.5c1,1.6,1.7,2.7,2,3.2c0.6-3,2.1-6.4,1.9-9.6
	c0.1-0.1,0.2-0.1,0.3-0.2c-0.1,0-0.2,0-0.3,0c0,0,0-0.1,0-0.1c-0.6-6.6,0.5-12.5,4-17.9c3.1-4.7,6.6-9.3,9.9-13.8
	c3.3-4.6,6-9.4,6.8-15c-0.2-7.1,4-25.6,4-25.6c0.8-2.3,1.7-4.4,2.8-6.2c2.1-3.5,4.9-5.9,9.2-5.3c4.3,0.6,7.6,2.8,9.3,7
	c1.2,2.9,1.3,7.1,0.7,11.4c0,0,0,0,0,0c0,5.5-4,14.4-6.7,19.6c-0.1,0.9-0.6,1.5-1.2,2.2c-0.6,1.1-1,1.8-1.1,2
	c-0.1,0.2-0.5,0.4-0.9,0.7c0,0,0,0,0,0c-0.8,2.8-1.6,5.5-2.1,7.5c2.4,0.4,4,0.2,4.9,0.9c3.6,2.7,7.2,4.7,11.9,4.5
	c1.6,0,3.2,0.8,4.7,1.3c0,0.4,0.1,0.7,0.1,1.1c-3.4,1.1-6.7,2.1-10.1,3.2c3.5,0.4,6.9,0.2,10.2,0c8.6-0.4,12.4,3.7,11.2,12.3
	c-0.4,2.6-1.7,5-2.6,7.6C431.8,202.7,431.8,213.9,423.4,220.4z"/>
<path class="st6" d="M271.3,199.6l6.2,25.9c0,0-18,15.4-30.7,18.7c-12.6,3.2-19.3,3.8-18.5,0s1.2-4,16.3-17.4
	S271.3,199.6,271.3,199.6z"/>
<path class="st1" d="M244.4,232.6c0.9-1.6,2-3.1,3.1-4.6c-0.4-0.9-0.5-2-0.1-3.2c0.1-0.3,0.2-0.5,0.3-0.8c-1,0.9-2,1.8-3.1,2.8
	c-15,13.4-15.4,13.6-16.3,17.4s5.8,3.2,18.5,0c7.4-1.9,16.7-8,23.1-12.7c-6.7,2.7-13.1,6-19.9,8.5
	C245.8,241.5,242.3,236.1,244.4,232.6z"/>
<ellipse cx="200.9" cy="127.4" rx="3.6" ry="8"/>
<ellipse cx="252.9" cy="126.8" rx="3.6" ry="8"/>
<path class="st7" d="M291,67.3c-5.3-13.6-15.1-24.7-27.1-32.3c0.1-0.1,0.2-0.1,0.3-0.2c-4.3-2.9-8.8-5.4-13.6-7.4c0,0,0,0,0,0
	c-13.1-4.7-15.7-10.7-15.7-10.7s-1.6,1.9-3.6,4.2c-3.7-4.8-6.4-10-6.4-10s-2,4.6-4.1,9.2c-2.4-1.3-4-2.3-4-2.3s-1.4,4.2-7.5,7.9
	c-1.6,0.5-3.2,1-4.8,1.6c-9.3,2.6-15.5,5.9-15.5,5.9l-6.6,6.9c0,0-14.2,7.4-17.2,19c-3,11.7-7.9,34.4-7.9,34.4l9.5,20.2
	c0,0-1.2,23.6,0,26.8c0.4,1.2,1,2.1,1.5,2.7c1,6.6,5,32,5.6,34.5c0.7,2.9,12.8,31.8,32.4,45.6c19.5,13.8,43.2,1.3,55.4-6.5
	c12.2-7.8,27.3-45.9,28.6-49.3c1.2-3.4,2.9-30.1,2.9-30.1l-2.1,6c0,0,5.9-21.2,9.6-37.7C304.3,89.2,299.9,90.4,291,67.3z M256.8,204
	c-5.9,4.5-12.3,8.1-18.9,9.8l-2.5-4.3l-0.9-6.8l6.3-5.8l-18.9,0.9l5.6,3.7c0,0,0.7,6.8,0,8.2c-0.3,0.7-2.4,2.6-4.5,4.5
	c-5.3-0.9-10.1-2.7-14.5-5.1l-5.6-15.5l1.2-7.7l21.7-6.3l2.6-3.5l4.2,3l18.9,1.2l5.4,4V204z M289.4,148c0,0-1.9,13.1-4.7,22.4
	c-1.3,4.4-8.1,14.9-17.7,24.6c0,0-0.8-10.6-2.6-13.7c-1.2-2.2-5.2-5.5-7.5-6.5c-3.7-1.7-12.5-1.1-16.3-2.6c-1.8-0.7-4.4-4.3-6.3-4.2
	c-1.9,0.1-4.1,4.9-6.1,4.9c-1.9,0-3.9-5-5.8-4.9c-2.4,0.1-4.8,5.8-7,6.8c-4.3,1.9-14.9,0.9-18.2,4.2c-2.1,2-2.8,11.3-2.8,11.3
	l0.5,8.8c-7.3-7.1-12-14.6-13.8-18c-3.7-7.2-10.7-39.4-10.7-39.4l-0.5-1l1.4-28.4c0,0-1.2-20.7,0.5-27.8c2.1-9.1,13-28.2,22.6-30
	c3.2-0.6,3.7-2.2,3-4.1c0.1,0,0.2-0.1,0.3-0.1c0,0.3-0.1,0.5-0.1,0.8c0,8.6,14.2,15.6,31.8,15.6c7.9,0,15.1-1.4,20.7-3.7
	c7.8,1.3,17.8,3.1,22.5,4.7c7.3,2.4,9.1,14.4,9.7,19.4c0.5,4.1,1,13.4,1,13.4l5.1,16.3l2.5,26.8L289.4,148z"/>
<path class="st6" d="M179.9,222.5c0,0,21,31.2,76.6,32.7c33.7,0.9-71.4,101.5-71.4,101.5l-19.5-2.5c0,0,9.3-23.8,12.6-52.9
	c3.3-29.2,4-31.8-1.8-35.8c-5.8-3.9-40.7-13.3-54.7-13.9c-14-0.6-13.5-4.5-13.1-6.3c0.4-1.8,3.1-37.6-2.6-49
	c-5.7-11.4,2.1-6.3,7.5-1.8C118.9,198.9,175.3,222.7,179.9,222.5z"/>
<path class="st1" d="M107.9,202.5c3.9,2.2,7.7,4.6,11.6,7.1c7.6,4.9,15.6,8.5,23.8,12.3c18,8.3,35.9,17,55.1,22.1
	c18.6,5,37.3,12.1,56.6,13.6c2.5,0.2,5,0.3,7.5,0.3c-0.9-1.7-2.8-2.7-6.1-2.8c-55.6-1.5-76.6-32.7-76.6-32.7
	c-4.6,0.3-61-23.5-66.4-28c-5.4-4.5-13.2-9.6-7.5,1.8C106.8,197.9,107.4,200,107.9,202.5z"/>
<path class="st1" d="M165.6,354.1l11.5,1.5c0.4-3,0.9-5.9,1.5-8.9c3.1-15.9,8.1-31.4,10.6-47.5c1.2-7.7,1.9-15.7,1.6-23.6
	c-0.2-5-1.4-9.8-5-13.5c-4.7-4.8-11.5-7.8-17.6-10.4c-7-3.1-14.4-5.3-21.9-6.8c-12.3-2.5-24.9-2.7-37.4-1c-0.1,0.7-0.1,1.1-0.1,1.3
	c-0.4,1.8-0.8,5.7,13.1,6.3c14,0.6,48.9,9.9,54.7,13.9c5.8,3.9,5.1,6.6,1.8,35.8C174.9,330.4,165.6,354.1,165.6,354.1z"/>
<path class="st6" d="M186.1,199.6l-6.2,25.9c0,0,18,15.4,30.7,18.7s19.3,3.8,18.5,0c-0.8-3.8-1.2-4-16.3-17.4
	C197.7,213.3,186.1,199.6,186.1,199.6z"/>
<path class="st1" d="M225.4,240.3c0.6-0.2,1.3-0.2,1.8-0.1c-1.8-2.2-5.6-5.5-14.4-13.4c-15-13.4-26.7-27.1-26.7-27.1l-6.2,25.9
	c0,0,6.4,5.5,14.3,10.6C204.5,238.5,215.1,242.9,225.4,240.3z"/>
<path d="M260.9,252.4c3.4,0.1,6,3,5.8,6.4c-0.1,3.2-2.8,5.8-6,5.8c-3.4,0-6.1-2.7-6-6.2C254.8,254.9,257.5,252.3,260.9,252.4z"/>
<path d="M214,300.3c3.4,0.1,6,3,5.8,6.4c-0.1,3.2-2.8,5.8-6,5.8c-3.4,0-6.1-2.7-6-6.2C207.9,302.8,210.6,300.2,214,300.3z"/>
<g>
	<g>
		<path class="st8" d="M165.6,374.3c-1.2,0-2.5-0.1-3.7-0.3c-4.1-0.6-7.8-2-10.9-4.2c-2.7-1.9-5-4.3-6.9-7.1
			c-1.8-2.8-3.2-5.9-4.1-9.2c-1.1-4.1-1.6-8.6-1.5-13.4c0-4.7,0.4-9.4,1.1-13.9c0.6-4.3,1.5-8.4,2.7-12.2c1.2-3.9,2.6-7.4,4.2-10.5
			c1.7-3.1,3.6-5.8,5.6-7.9c2.2-2.2,4.6-3.8,7.1-4.6c2.1-0.7,4.1-1,5.9-1c0.8,0,1.6,0.1,2.4,0.2c2.5,0.4,4.7,1.4,6.5,2.9
			c1.8,1.4,3.4,3.2,4.7,5.3c1.2,2,2.3,4.2,3,6.4c0.6,1.6,1,3.2,1.3,4.8c0.3,1.6,0.6,3.1,0.7,4.5c0.2,1.4,0.3,2.8,0.3,4.1
			c0,1.2,0,2.3,0,3.2c-0.1,2-0.8,3.7-2.2,5.1c-1.4,1.4-3.2,2.2-5.2,2.2c-2.1,0-3.8-0.8-5.3-2.3c-1.4-1.5-2.1-3.4-2-5.5
			c0-1.9-0.2-4-0.3-6.3c-0.2-2.2-0.6-4.3-1.2-6.2c-0.5-1.7-1.3-3-2.2-3.9c-0.4-0.4-0.7-0.5-1.2-0.5c-0.3,0-0.6,0.1-1,0.2
			c-0.6,0.2-1.8,0.9-3.7,3.4c-1.6,2.2-3.1,4.9-4.3,8c-1.3,3.3-2.4,7.1-3.1,11.1c-0.7,4.1-1.3,8.2-1.6,12.4c-0.2,2.7-0.2,5.3,0.1,7.7
			c0.2,2.4,0.7,4.7,1.5,6.7c0.7,1.9,1.7,3.7,2.9,5.2c1.2,1.4,2.6,2.6,4.1,3.4c1.6,0.8,3.5,1.3,5.7,1.5c0.3,0,0.6,0,0.9,0
			c2,0,4.2-0.4,6.6-1.2c2.2-0.7,4.3-1.9,6.3-3.6c2.1-1.7,3.9-3.8,5.6-6.3c1.6-2.5,2.9-5.2,3.9-8.3c0.8-2.6,1.3-5.4,1.4-8.3l-0.1-2.3
			c-0.2-3.9-0.4-7.9-0.5-11.9c-0.2-4-0.3-7.8-0.5-11.6c-0.2-3.7-0.3-7.1-0.5-10.2c-0.2-3.1-0.3-5.7-0.4-7.9
			c-0.1-2.1-0.2-3.5-0.2-4.3c-0.1-2.1,0.5-3.9,1.9-5.4c1.3-1.4,3-2.2,5-2.4c0.2,0,0.3,0,0.4,0c1.9,0,3.6,0.7,5.1,2
			c1.5,1.4,2.4,3.2,2.3,5.2l-0.3,30.5c0.8-1.7,1.7-3.2,2.6-4.6c1.2-1.9,2.5-3.5,3.9-4.7c1.5-1.4,3-2.2,4.7-2.5
			c0.6-0.1,1.2-0.1,1.8-0.1c2.7,0,6.3,1.1,8.2,6.5c1.5,4.3,2.2,10.4,2.2,18.8c0,5.5,0.2,9.6,0.6,12.2c0.1,0.8,0.3,1.3,0.4,1.7
			c0.4-0.3,0.7-0.6,1.1-1.1c0.8-1,1.5-2.2,2.1-3.6c0.6-1.4,1.2-2.9,1.6-4.5c0.4-1.5,0.8-2.9,1-4.2c0.2-0.8,0.3-1.6,0.4-2.4
			c-0.2-3-0.1-6.2,0.5-9.4c0.7-3.9,1.9-7.7,3.5-11.1c1.6-3.5,3.6-6.6,6-9.2c2.5-2.8,5.2-4.6,8.1-5.6c1.2-0.4,2.3-0.6,3.3-0.6
			c1.6,0,2.9,0.4,4.1,1.3c1.8,1.3,3,3,3.7,5c1.1,3.3,1.2,6.5,0.5,9.5c-0.7,2.8-2,5.5-3.7,7.7c-1.7,2.2-3.7,4.2-6,5.8
			c-1.8,1.3-3.7,2.3-5.4,3.1c0,1-0.1,2.1,0,3.4c0,1.7,0.3,3.3,0.8,4.7c0.4,1.3,1.1,2.2,2,2.8c0.3,0.2,0.7,0.3,1.1,0.3
			c0.6,0,1.3-0.2,2.1-0.5c2.9-1,5.8-3.6,8.8-7.7c3-4.1,4.7-10.5,5.2-19c0.1-1.4,0.7-2.7,1.8-3.7c0.1-0.1,0.2-0.2,0.4-0.3
			c1-1.1,2.2-2,3.6-2.7c1.6-0.7,3.6-1.5,6-2.1c-0.1-2.7-0.1-5.3-0.2-7.9c-0.1-3.1-0.1-6.3,0-9.3c0.1-3.1,0.2-6.2,0.4-9.3
			c0.2-3.2,0.6-6.4,1.2-9.7c0.2-1.1,0.5-2.5,0.9-4c0.4-1.6,1.1-3.2,1.9-4.7c0.9-1.6,2-3,3.3-4.3c1.4-1.4,3.2-2.5,5.2-3.1
			c1.2-0.4,2.4-0.6,3.6-0.6c0.6,0,1.1,0,1.7,0.1c1.7,0.3,3.3,0.9,4.8,1.8c1.5,0.9,2.8,2,4,3.4c1.2,1.4,2.2,2.9,3.1,4.6
			c1.1,2.2,2.1,4.6,2.8,7.2c0.7,2.5,1.2,4.9,1.6,7.3c0.4,2.4,0.6,4.6,0.7,6.6c0.1,2,0.2,3.6,0.2,4.8c0,2.1-0.6,3.9-2,5.3
			c-1.3,1.5-3,2.2-5.1,2.3c-0.1,0-0.2,0-0.3,0c-1.9,0-3.6-0.6-5-1.9c-1.4-1.3-2.2-3-2.3-4.9l-0.1-0.2l0-0.3c-0.1-5-0.4-9.1-1-12.2
			c-0.6-3.1-1.2-5.4-1.9-7c-0.6-1.5-1.1-2.2-1.4-2.5c-0.1,0.2-0.3,0.6-0.5,1c-0.4,0.9-0.7,2.2-1.1,3.9c-0.4,1.8-0.7,4.1-1,7
			c-0.3,2.9-0.6,6.6-0.7,10.9c-0.1,3.7-0.2,8-0.1,12.9l1.2-0.2c2.1-0.4,4.2-0.9,6.2-1.3c2-0.4,3.8-0.9,5.6-1.3
			c1.6-0.4,2.7-0.7,3.5-1c0.3-0.1,0.5-0.2,0.7-0.3c0.5-1.6,1.7-2.8,3.4-3.4c0.6-0.2,1.2-0.3,1.7-0.3c0.8,0,1.6,0.2,2.4,0.6
			c1.3,0.7,2.2,1.8,2.7,3.2c0.6,1.9,0.4,3.8-0.6,5.5c-0.7,1.2-1.8,2.3-3.3,3.1c-1.3,0.7-2.9,1.4-4.8,2c-1.9,0.6-4.1,1.2-6.6,1.8
			c-2.5,0.6-5.4,1.2-8.7,1.8l-3.2,0.7c0,5.5,0.1,11,0.1,16.4c0.1,5.3,0.1,10.8,0.1,16.8l0,0.8l-0.5,0.6c-0.7,0.7-1.3,1.5-2,2.2
			l-0.9,1l-1.3-0.4c-2-0.6-3.9-1.3-5.9-2l-1.3-0.5l0-1.4c-0.1-5.2-0.2-10.4-0.4-15.9c-0.2-5.1-0.3-10-0.5-14.7
			c-0.4,0.1-0.7,0.2-1,0.3c-0.2,0.1-0.4,0.2-0.5,0.2c0,0.1-0.1,0.2-0.1,0.2c-0.3,3.4-0.7,6.4-1.4,9.1c-1,3.8-2.4,7.5-4.2,10.8
			c-1.8,3.3-4.1,6.3-6.8,8.7c-2.7,2.5-5.8,4.3-9.3,5.4c-2.2,0.7-4.4,1.1-6.4,1.1c-0.8,0-1.6-0.1-2.4-0.2c-2.7-0.4-5.1-1.4-7.2-3
			c-0.2-0.1-0.4-0.3-0.5-0.4c-1,2.1-2.1,4-3.3,5.8c-2.1,2.8-4.8,4.8-8,5.8c-1.2,0.4-2.3,0.6-3.5,0.6c-1.2,0-2.4-0.2-3.6-0.7
			c-2-0.8-3.8-2.2-5.2-4.1c-1.4-1.8-2.5-4-3.4-6.5c-0.8-2.4-1.4-5-1.7-7.7c-0.3-2.7-0.4-5.5-0.2-8.3c0.2-2.6,0.4-4.9,0.6-7
			c-0.4,0.8-0.7,1.6-1.1,2.5c-0.9,2.3-1.9,5-2.8,8c-0.9,3-1.8,6-2.6,9.1c-0.8,3.1-1.4,6.2-2,9.2c-0.5,3-0.9,5.7-1.1,8.1l0,1.4
			c0,2.2-1,3.5-1.9,4.2c-1,0.8-2.2,1.3-3.6,1.4l-0.1,0l-0.1,0c-1.5-0.1-2.8-0.7-3.8-1.8c-0.6-0.7-1-1.5-1.3-2.3
			c-1.6,1.8-3.3,3.5-5.2,5.1c-3.2,2.6-7,4.6-11.1,5.9C171.6,373.8,168.6,374.3,165.6,374.3z M251.6,306.6c-0.3,0.6-0.7,1.3-1,2
			c-0.1,0.3-0.3,0.6-0.4,1c0.2-0.4,0.5-0.7,0.6-1.1C251.2,307.9,251.5,307.2,251.6,306.6z"/>
		<path d="M295.1,249.8c0.5,0,0.9,0,1.4,0.1c1.4,0.2,2.8,0.7,4.1,1.5c1.3,0.8,2.5,1.8,3.6,3c1.1,1.2,2,2.6,2.8,4.2
			c1.1,2.1,2,4.4,2.6,6.8c0.7,2.4,1.2,4.8,1.5,7.1c0.4,2.3,0.6,4.5,0.7,6.4c0.1,2,0.2,3.5,0.2,4.7c0,1.5-0.5,2.8-1.4,3.9
			c-1,1.1-2.2,1.6-3.7,1.7c-0.1,0-0.2,0-0.2,0c-1.4,0-2.6-0.5-3.6-1.4c-1.1-1-1.6-2.2-1.6-3.7l-0.1-0.2c-0.1-5.2-0.5-9.3-1.1-12.5
			c-0.6-3.2-1.3-5.7-2-7.4c-0.7-1.7-1.5-2.9-2.2-3.4c-0.6-0.5-1.1-0.7-1.4-0.7c-0.1,0-0.1,0-0.2,0c-0.2,0.1-0.4,0.3-0.7,0.6
			c-0.3,0.4-0.7,1.1-1.1,2.1c-0.4,1-0.8,2.4-1.2,4.2c-0.4,1.8-0.8,4.2-1.1,7.2c-0.3,3-0.6,6.7-0.7,11c-0.2,4.3-0.2,9.5-0.1,15.4
			l3.5-0.7c2.1-0.4,4.2-0.9,6.2-1.3c2-0.4,3.9-0.9,5.6-1.3c1.7-0.4,2.9-0.8,3.7-1.1c0.8-0.3,1.4-0.6,1.7-0.7
			c0.2-1.5,0.9-2.4,2.3-2.9c0.4-0.1,0.7-0.2,1.1-0.2c0.5,0,1,0.1,1.5,0.4c0.8,0.4,1.4,1.1,1.7,2c0.4,1.4,0.3,2.7-0.4,3.9
			c-0.5,0.9-1.4,1.8-2.5,2.4c-1.2,0.7-2.6,1.3-4.4,1.9c-1.8,0.6-4,1.2-6.5,1.7c-2.5,0.6-5.4,1.2-8.7,1.8l-4.8,1
			c0,6.1,0.1,12.1,0.2,18.1c0.1,5.6,0.1,11.2,0.1,16.8c-0.7,0.7-1.3,1.5-2,2.3c-1.9-0.6-3.9-1.3-5.8-2c-0.1-5.2-0.2-10.5-0.4-15.9
			c-0.2-5.9-0.4-11.7-0.6-17.2c-1.6,0.4-2.8,0.8-3.6,1.1c-0.8,0.3-1.3,0.6-1.5,0.8c0,0.4-0.2,0.8-0.3,1.1c-0.2,3.1-0.6,6.1-1.4,9.1
			c-0.9,3.7-2.3,7.1-4,10.3c-1.7,3.2-3.9,5.9-6.4,8.2c-2.5,2.3-5.4,4-8.6,5c-2,0.7-4,1-5.8,1c-0.7,0-1.4-0.1-2.1-0.2
			c-2.4-0.4-4.5-1.2-6.2-2.6c-0.9-0.7-1.7-1.5-2.5-2.4c-1.1,3-2.5,5.8-4.2,8.1c-1.8,2.5-4.2,4.2-7,5.1c-1,0.3-1.9,0.5-2.8,0.5
			c-1,0-1.9-0.2-2.8-0.6c-1.7-0.7-3.2-1.9-4.4-3.5c-1.2-1.6-2.3-3.6-3.1-5.9c-0.8-2.3-1.3-4.7-1.6-7.3c-0.3-2.6-0.4-5.3-0.2-7.9
			c0.2-2.6,0.4-5,0.6-7.1c0.2-2.1,0.5-3.8,0.6-5.1c0.1-1.2,0.1-1.8-0.1-1.8c0,0,0,0,0,0c-0.8,0.3-1.7,1.2-2.6,2.7
			c-0.9,1.6-1.9,3.5-2.8,5.9c-1,2.4-1.9,5.1-2.9,8.1c-0.9,3-1.8,6.1-2.6,9.2c-0.8,3.1-1.5,6.3-2,9.3c-0.6,3.1-1,5.9-1.2,8.4l0,1.5
			c0,1.1-0.4,2-1.1,2.6c-0.7,0.6-1.5,0.9-2.5,1c-1,0-1.8-0.4-2.4-1.1c-0.6-0.7-0.9-1.5-0.9-2.4c0.1-0.1,0.1-0.3,0-0.5
			c0-1-0.1-2.4-0.1-4.1c-0.2,0.3-0.4,0.7-0.6,1c-2.1,3.2-4.6,6.1-7.7,8.5c-3,2.4-6.5,4.3-10.5,5.6c-2.9,0.9-5.7,1.4-8.5,1.4
			c-1.1,0-2.3-0.1-3.4-0.2c-3.8-0.5-7.1-1.8-10.1-3.9c-2.5-1.8-4.6-3.9-6.4-6.6c-1.7-2.6-3-5.5-3.8-8.6c-1-4-1.5-8.2-1.5-12.9
			c0-4.6,0.4-9.2,1-13.7c0.6-4.2,1.5-8.2,2.6-11.9c1.1-3.8,2.5-7.1,4.1-10.1c1.6-3,3.3-5.5,5.3-7.5c2-2,4-3.4,6.3-4.1
			c1.9-0.6,3.7-0.9,5.3-0.9c0.7,0,1.4,0.1,2,0.2c2.2,0.4,4,1.2,5.7,2.5c1.6,1.3,3,2.8,4.2,4.7c1.2,1.9,2.1,3.9,2.9,6
			c0.5,1.5,1,3,1.3,4.5c0.3,1.5,0.5,3,0.7,4.3c0.2,1.4,0.3,2.7,0.3,3.9s0,2.2,0,3c-0.1,1.5-0.6,2.8-1.6,3.8c-1,1-2.3,1.6-3.7,1.6
			c0,0,0,0,0,0c0,0,0,0,0,0c-1.5,0-2.8-0.6-3.8-1.7c-1.1-1.1-1.6-2.5-1.5-4c0-2-0.2-4.1-0.4-6.6c-0.2-2.4-0.6-4.6-1.3-6.6
			c-0.6-2-1.5-3.6-2.6-4.7c-0.7-0.8-1.6-1.1-2.7-1.1c-0.5,0-1,0.1-1.6,0.3c-1.4,0.5-3,1.8-4.7,4.1c-1.7,2.3-3.3,5.1-4.6,8.5
			c-1.4,3.5-2.4,7.3-3.2,11.4c-0.7,4.1-1.3,8.3-1.7,12.6c-0.2,2.8-0.2,5.5,0.1,8.1c0.3,2.6,0.8,5,1.6,7.1c0.8,2.2,1.8,4.1,3.2,5.7
			c1.3,1.7,2.9,3,4.8,3.9c1.9,1,4,1.5,6.5,1.7c0.4,0,0.7,0,1.1,0c2.2,0,4.6-0.4,7.3-1.3c2.4-0.8,4.8-2.1,7-3.9
			c2.2-1.8,4.2-4.1,6-6.7c1.7-2.6,3.1-5.5,4.2-8.8c0.9-2.9,1.4-5.8,1.5-8.9c0-0.8-0.1-1.6-0.1-2.4c-0.2-3.9-0.4-7.9-0.5-11.9
			c-0.2-4-0.3-7.8-0.5-11.6c-0.2-3.7-0.3-7.2-0.5-10.2c-0.2-3.1-0.3-5.7-0.4-7.8c-0.1-2.1-0.2-3.6-0.2-4.4c-0.1-1.5,0.4-2.8,1.4-3.9
			c1-1.1,2.2-1.6,3.6-1.8c0.1,0,0.2,0,0.3,0c1.4,0,2.6,0.5,3.7,1.5c1.1,1,1.7,2.3,1.7,3.7l-0.3,40.8c0.9-2.7,1.9-5.2,3-7.5
			c1.1-2.3,2.2-4.4,3.3-6.2c1.2-1.8,2.3-3.3,3.5-4.4c1.2-1.1,2.4-1.8,3.7-2c0.5-0.1,1-0.1,1.4-0.1c3,0,5.1,1.7,6.3,5.2
			c1.4,4,2.1,10,2,18.1c0,5.6,0.2,9.8,0.6,12.6c0.4,2.5,1,3.8,1.8,3.8c0.1,0,0.2,0,0.3,0c1.1-0.3,2.1-1.1,2.9-2.2
			c0.9-1.1,1.7-2.5,2.3-4c0.7-1.5,1.2-3.1,1.7-4.7c0.5-1.6,0.8-3.1,1-4.4c0.2-0.9,0.3-1.8,0.5-2.6c-0.3-2.9-0.1-5.9,0.5-9.1
			c0.7-3.8,1.8-7.3,3.3-10.6c1.5-3.3,3.4-6.2,5.7-8.7c2.2-2.5,4.7-4.2,7.3-5c1-0.3,1.9-0.5,2.7-0.5c1.1,0,2.1,0.3,3,0.9
			c1.4,1,2.4,2.4,2.9,4c1,3,1.1,5.8,0.4,8.4c-0.7,2.6-1.8,4.9-3.3,7c-1.6,2.1-3.4,3.9-5.6,5.4c-2.1,1.5-4.2,2.6-6.2,3.4
			c-0.1,1.3-0.2,2.9-0.1,4.8c0,1.9,0.4,3.7,0.9,5.3c0.6,1.6,1.5,2.9,2.7,3.8c0.6,0.5,1.4,0.7,2.3,0.7c0.8,0,1.8-0.2,2.8-0.6
			c3.3-1.2,6.5-4,9.7-8.4c3.2-4.5,5.1-11.2,5.6-20.1c0.1-0.9,0.4-1.7,1.1-2.3c0.1-0.1,0.2-0.1,0.3-0.2c0.8-0.9,1.7-1.7,3.2-2.4
			c1.8-0.8,4.2-1.7,7.2-2.4c-0.1-3.3-0.2-6.4-0.3-9.5c-0.1-3.1-0.1-6.1,0-9.2c0.1-3.1,0.2-6.1,0.4-9.3c0.2-3.1,0.6-6.3,1.2-9.5
			c0.2-1.1,0.5-2.3,0.9-3.8c0.4-1.4,1-2.9,1.8-4.3c0.8-1.4,1.7-2.7,2.9-3.9c1.2-1.2,2.7-2.1,4.4-2.6
			C293.2,250,294.2,249.8,295.1,249.8 M246.3,316c1.2-0.7,2.4-1.6,3.6-2.9c1.2-1.2,2.2-2.5,2.8-3.8c0.8-1.8,1.2-3.4,1.3-4.9
			c0.1-1.5-0.2-2.3-0.7-2.4c-0.1,0-0.1,0-0.2,0c-0.6,0-1.3,0.5-2.1,1.6c-0.8,1.2-1.6,2.6-2.2,4.2c-0.6,1.6-1.2,3.1-1.6,4.6
			C246.7,314,246.5,315.1,246.3,316 M295.1,245.8C295.1,245.8,295.1,245.8,295.1,245.8c-1.4,0-2.8,0.2-4.2,0.7
			c-2.4,0.8-4.4,2-6.1,3.6c-1.4,1.4-2.6,3.1-3.6,4.8c-0.9,1.7-1.6,3.4-2.1,5.1c-0.4,1.6-0.8,2.9-1,4.1c-0.6,3.4-1,6.7-1.2,10
			c-0.2,3.2-0.3,6.3-0.4,9.4c-0.1,3.1,0,6.2,0,9.4c0.1,2.1,0.1,4.2,0.2,6.4c-1.9,0.6-3.4,1.2-4.8,1.8c-1.6,0.8-3,1.7-4.1,3
			c-0.1,0.1-0.3,0.2-0.4,0.3c-1.4,1.3-2.3,3.1-2.4,5l0,0l0,0c-0.4,8.1-2.1,14.1-4.8,18c-2.7,3.8-5.4,6.1-7.8,7l0,0l0,0
			c-0.8,0.3-1.2,0.3-1.4,0.3c0,0,0,0-0.1,0c-0.5-0.4-0.9-1-1.2-1.8c-0.4-1.2-0.7-2.6-0.7-4.1c0-0.7,0-1.4,0-2.1
			c1.5-0.7,3-1.7,4.6-2.7c2.5-1.7,4.7-3.8,6.5-6.2c1.9-2.5,3.2-5.3,4-8.4c0.8-3.3,0.7-6.9-0.5-10.6c-0.8-2.4-2.3-4.5-4.4-6
			c-1.5-1.1-3.3-1.7-5.3-1.7c-1.2,0-2.5,0.2-3.9,0.7c-3.3,1-6.3,3.1-9,6.2c-2.5,2.8-4.6,6.1-6.3,9.7c-1.7,3.6-2.9,7.5-3.6,11.6
			c-0.6,3.3-0.8,6.6-0.5,9.7c-0.1,0.7-0.2,1.3-0.4,2l0,0l0,0c-0.2,1.2-0.5,2.5-0.9,4c-0.4,1.4-0.9,2.9-1.5,4.2
			c0,0.1-0.1,0.2-0.1,0.3c-0.2-2.3-0.2-5.2-0.2-8.7c0-8.6-0.7-15-2.3-19.4c-2.4-6.9-7.3-7.9-10.1-7.9c-0.7,0-1.3,0.1-2,0.2l0,0l0,0
			c-2,0.4-3.9,1.4-5.7,3c-1,0.9-2,2.1-3,3.4l0.2-23.2c0-2.6-1-4.9-3-6.7c-1.8-1.6-4-2.5-6.4-2.5c-0.2,0-0.3,0-0.5,0l-0.1,0l-0.1,0
			c-2.5,0.2-4.6,1.2-6.3,3c-1.7,1.8-2.5,4.2-2.4,6.8l0,0.1l0,0.1c0.1,0.7,0.1,2.1,0.2,4.2c0.1,2.2,0.2,4.8,0.4,7.9
			c0.1,3,0.3,6.4,0.5,10.2c0.2,3.7,0.3,7.6,0.5,11.6c0.2,4,0.4,7.9,0.5,11.9l0.1,1.5l0,0.8c-0.1,2.7-0.5,5.2-1.3,7.6
			c-0.9,2.9-2.2,5.5-3.7,7.8c-1.5,2.3-3.2,4.2-5.2,5.8c-1.8,1.5-3.7,2.6-5.7,3.2c-2.2,0.7-4.3,1.1-6,1.1c-0.3,0-0.5,0-0.8,0
			c-1.9-0.1-3.6-0.5-4.9-1.2c-1.4-0.7-2.5-1.6-3.5-2.9c-1.1-1.3-1.9-2.8-2.5-4.6c-0.7-1.8-1.1-3.9-1.4-6.2c-0.2-2.3-0.3-4.8,0-7.4
			c0.4-4.1,0.9-8.2,1.6-12.2c0.7-3.9,1.7-7.4,3-10.7c1.2-3,2.5-5.6,4.1-7.6c1.8-2.4,2.7-2.7,2.7-2.7c0.1,0,0.2-0.1,0.2-0.1
			c0.6,0.7,1.2,1.7,1.6,3.1c0.5,1.7,0.9,3.6,1.1,5.7c0.2,2.3,0.3,4.3,0.3,6.2c-0.1,2.6,0.8,5,2.6,6.9c1.8,1.9,4.2,2.9,6.7,2.9
			c2.6,0,4.9-1,6.6-2.8c1.7-1.7,2.6-4,2.7-6.4c0-0.9,0.1-2,0-3.3c0-1.3-0.1-2.8-0.3-4.3c-0.2-1.5-0.4-3-0.8-4.6
			c-0.3-1.7-0.8-3.4-1.4-5.1c-0.8-2.3-1.9-4.6-3.2-6.7c-1.4-2.3-3.2-4.2-5.1-5.8c-2.1-1.7-4.6-2.8-7.4-3.3c-0.9-0.2-1.8-0.2-2.7-0.2
			c-2,0-4.2,0.4-6.5,1.1c-2.8,0.9-5.5,2.6-7.9,5.1c-2.2,2.3-4.2,5.1-6,8.4c-1.7,3.2-3.2,6.9-4.4,10.8c-1.2,3.9-2.1,8.1-2.7,12.5
			c-0.7,4.7-1,9.4-1.1,14.2c0,4.9,0.5,9.6,1.6,13.9c0.9,3.5,2.4,6.8,4.3,9.8c2,3,4.5,5.6,7.4,7.7c3.4,2.4,7.4,3.9,11.8,4.6
			c1.3,0.2,2.6,0.3,3.9,0.3c3.1,0,6.4-0.5,9.7-1.6c4.4-1.4,8.4-3.5,11.8-6.2c1.3-1,2.4-2.1,3.5-3.2c0.1,0.1,0.1,0.1,0.2,0.2
			c1.4,1.5,3.2,2.3,5.2,2.4l0.2,0l0.2,0c1.7-0.1,3.4-0.8,4.7-1.9c1.7-1.4,2.6-3.4,2.6-5.7l0,0l0,0l0-1.3c0.2-2.3,0.6-4.9,1.1-7.8
			c0.5-3,1.2-6,2-9.1c0.6-2.4,1.2-4.7,1.9-7c0.1,0.8,0.1,1.6,0.2,2.4c0.3,2.8,0.9,5.5,1.8,8.1c0.9,2.7,2.2,5.1,3.7,7
			c1.7,2.2,3.7,3.8,6,4.8c1.4,0.6,2.8,0.9,4.3,0.9c1.3,0,2.7-0.2,4.1-0.7c3.7-1.2,6.7-3.4,9-6.5c0.9-1.2,1.7-2.5,2.5-3.9
			c2,1.2,4.2,2,6.6,2.4c0.9,0.1,1.8,0.2,2.7,0.2c2.2,0,4.6-0.4,7-1.2c3.7-1.2,7.1-3.2,10-5.8c2.8-2.6,5.2-5.7,7.2-9.2
			c1.6-2.9,2.9-6,3.9-9.3c0,0.8,0,1.6,0.1,2.4c0.2,5.2,0.3,10.4,0.4,15.9l0.1,2.8l2.6,0.9c2.1,0.7,4.1,1.4,5.9,2l2.5,0.8l1.7-2
			c0.6-0.7,1.3-1.5,1.9-2.2l1-1.1l0-1.5c0-6.1,0-11.6-0.1-16.9c-0.1-5-0.1-10-0.1-14.8l1.5-0.3c3.3-0.6,6.3-1.3,8.8-1.8
			c2.6-0.6,4.9-1.2,6.8-1.8c2.1-0.7,3.8-1.4,5.2-2.2c1.8-1,3.1-2.3,4-3.9c1.3-2.2,1.6-4.7,0.8-7.1c-0.6-1.9-1.9-3.4-3.7-4.3
			c-0.7-0.4-1.5-0.6-2.3-0.7c0.8-1.4,1.1-3,1.1-4.7c0-1.3-0.1-2.9-0.2-4.9c-0.1-2.1-0.4-4.4-0.8-6.8c-0.4-2.5-0.9-5-1.6-7.6
			c-0.7-2.7-1.7-5.2-2.9-7.6c-0.9-1.8-2.1-3.5-3.3-4.9c-1.4-1.5-2.9-2.8-4.5-3.8c-1.7-1-3.6-1.7-5.6-2
			C296.5,245.9,295.8,245.8,295.1,245.8L295.1,245.8L295.1,245.8z M293.7,295.6c0-3.9,0-7.4,0.1-10.4c0.2-4.2,0.4-7.8,0.7-10.7
			c0.3-2.7,0.6-4.9,1-6.6c0.3,1.2,0.7,2.6,1,4.2c0.6,3,0.9,7,1,11.9l0,0.6l0.1,0.2c0.2,2.3,1.2,4.4,2.9,6c1.3,1.2,2.9,2,4.5,2.3
			c-0.2,0.1-0.5,0.1-0.8,0.2c-1.7,0.4-3.5,0.9-5.5,1.3C297,294.9,295.4,295.3,293.7,295.6L293.7,295.6z"/>
	</g>
</g>
<g>
	<g>
		<path class="st9" d="M165.6,373.3c-1.2,0-2.4-0.1-3.5-0.3c-3.9-0.6-7.5-1.9-10.5-4.1c-2.6-1.8-4.8-4.1-6.6-6.8
			c-1.8-2.7-3.1-5.7-3.9-8.9c-1-4-1.6-8.4-1.5-13.1c0-4.6,0.4-9.3,1-13.8c0.6-4.2,1.5-8.3,2.6-12.1c1.1-3.8,2.5-7.3,4.1-10.3
			c1.6-3.1,3.5-5.6,5.5-7.7c2.1-2.1,4.3-3.6,6.7-4.3c2-0.6,3.9-1,5.6-1c0.8,0,1.5,0.1,2.2,0.2c2.3,0.4,4.4,1.3,6.1,2.7
			c1.7,1.3,3.2,3,4.4,5c1.2,1.9,2.2,4,2.9,6.2c0.6,1.5,1,3.1,1.3,4.6c0.3,1.5,0.6,3,0.7,4.4c0.2,1.4,0.3,2.7,0.3,4
			c0,1.2,0,2.2,0,3.1c-0.1,1.7-0.7,3.2-1.9,4.5c-1.2,1.2-2.7,1.9-4.5,1.9c-1.8,0-3.3-0.7-4.6-2c-1.3-1.3-1.9-2.9-1.8-4.8
			c0-1.8-0.2-4-0.4-6.4c-0.2-2.3-0.6-4.5-1.2-6.4c-0.6-1.8-1.4-3.3-2.4-4.3c-0.6-0.6-1.2-0.8-1.9-0.8c-0.4,0-0.8,0.1-1.3,0.2
			c-0.8,0.3-2.2,1.1-4.2,3.8c-1.7,2.2-3.2,5-4.4,8.3c-1.4,3.4-2.4,7.2-3.1,11.3c-0.7,4.1-1.3,8.3-1.6,12.5c-0.2,2.7-0.2,5.4,0.1,7.9
			c0.3,2.5,0.8,4.8,1.5,6.9c0.7,2.1,1.8,3.9,3,5.5c1.2,1.5,2.7,2.8,4.5,3.7c1.7,0.9,3.8,1.4,6.1,1.6c0.3,0,0.7,0,1,0
			c2.1,0,4.4-0.4,7-1.2c2.3-0.7,4.6-2,6.7-3.8c2.1-1.8,4.1-4,5.8-6.5c1.7-2.5,3-5.4,4.1-8.5c0.9-2.7,1.4-5.6,1.4-8.6l-0.1-2.3
			c-0.2-3.9-0.4-7.9-0.5-11.9c-0.2-4-0.3-7.8-0.5-11.6c-0.2-3.7-0.3-7.1-0.5-10.2c-0.2-3.1-0.3-5.7-0.4-7.9
			c-0.1-2.1-0.2-3.6-0.2-4.3c-0.1-1.8,0.5-3.4,1.6-4.6c1.1-1.2,2.6-1.9,4.3-2.1c0.1,0,0.3,0,0.4,0c1.7,0,3.1,0.6,4.4,1.7
			c1.4,1.2,2,2.7,2,4.5l-0.3,35.2c0.3-0.8,0.7-1.6,1-2.4c1.1-2.4,2.2-4.5,3.4-6.3c1.2-1.9,2.4-3.4,3.7-4.6c1.3-1.2,2.7-2,4.2-2.2
			c0.6-0.1,1.1-0.1,1.6-0.1c3.4,0,5.9,2,7.2,5.9c1.4,4.1,2.1,10.3,2.1,18.4c0,5.5,0.2,9.7,0.6,12.4c0.4,2.1,0.8,2.7,0.9,2.9
			c0.8-0.3,1.6-0.9,2.4-1.9c0.8-1.1,1.6-2.4,2.2-3.8c0.7-1.5,1.2-3,1.7-4.6c0.5-1.6,0.8-3,1-4.3c0.2-0.9,0.3-1.7,0.4-2.5
			c-0.3-3-0.1-6.1,0.5-9.3c0.7-3.8,1.8-7.5,3.4-10.9c1.6-3.4,3.5-6.4,5.8-9c2.3-2.6,4.9-4.4,7.7-5.3c1.1-0.3,2.1-0.5,3-0.5
			c1.3,0,2.5,0.4,3.5,1.1c1.6,1.2,2.7,2.7,3.3,4.5c1,3.1,1.2,6.1,0.5,8.9c-0.7,2.7-1.9,5.2-3.5,7.4c-1.6,2.2-3.6,4-5.8,5.6
			c-2,1.4-3.9,2.5-5.8,3.2c-0.1,1.1-0.1,2.5-0.1,4.1c0,1.8,0.3,3.5,0.9,5c0.5,1.4,1.3,2.5,2.4,3.3c0.5,0.3,1,0.5,1.7,0.5
			c0.7,0,1.5-0.2,2.5-0.5c3.1-1.1,6.2-3.8,9.3-8.1c3.1-4.3,4.9-10.9,5.4-19.5c0.1-1.2,0.6-2.2,1.5-3c0.1-0.1,0.2-0.2,0.3-0.2
			c0.9-1.1,2-1.9,3.4-2.5c1.7-0.8,3.9-1.6,6.6-2.3c-0.1-3-0.2-5.9-0.2-8.7c-0.1-3.1-0.1-6.2,0-9.3c0.1-3.1,0.2-6.2,0.4-9.3
			c0.2-3.1,0.6-6.4,1.2-9.6c0.2-1.1,0.5-2.4,0.9-3.9c0.4-1.5,1-3,1.8-4.5c0.8-1.5,1.9-2.9,3.1-4.1c1.3-1.3,2.9-2.3,4.8-2.9
			c1.1-0.3,2.2-0.5,3.3-0.5c0.5,0,1,0,1.5,0.1c1.6,0.2,3.1,0.8,4.5,1.6c1.4,0.8,2.7,1.9,3.8,3.2c1.1,1.3,2.1,2.8,2.9,4.4
			c1.1,2.2,2,4.5,2.7,7c0.7,2.4,1.2,4.9,1.5,7.2c0.4,2.3,0.6,4.5,0.7,6.5c0.1,2,0.2,3.6,0.2,4.8c0,1.8-0.6,3.4-1.7,4.6
			c-1.2,1.3-2.6,1.9-4.4,2l-0.3,0c-1.6,0-3.1-0.6-4.3-1.7c-1.3-1.1-1.9-2.6-2-4.3l-0.1-0.2l0-0.1c-0.1-5.1-0.5-9.2-1.1-12.4
			c-0.6-3.1-1.3-5.5-2-7.2c-0.8-1.9-1.5-2.7-1.9-3c-0.3-0.3-0.5-0.4-0.7-0.4c-0.1,0.1-0.1,0.1-0.3,0.3c-0.1,0.2-0.4,0.6-0.9,1.8
			c-0.4,0.9-0.8,2.3-1.1,4.1c-0.4,1.8-0.7,4.2-1.1,7.1c-0.3,3-0.6,6.6-0.7,10.9c-0.2,4-0.2,8.7-0.1,14.2l2.4-0.5
			c2.1-0.4,4.2-0.9,6.2-1.3c2-0.4,3.9-0.9,5.6-1.3c1.6-0.4,2.8-0.8,3.6-1.1c0.5-0.2,0.9-0.3,1.2-0.5c0.4-1.6,1.3-2.7,2.9-3.1
			c0.5-0.2,1-0.2,1.4-0.2c0.7,0,1.3,0.2,2,0.5c1.1,0.5,1.8,1.4,2.2,2.6c0.5,1.6,0.3,3.2-0.5,4.7c-0.6,1.1-1.6,2-2.9,2.8
			c-1.2,0.7-2.8,1.4-4.6,1.9c-1.9,0.6-4.1,1.2-6.6,1.7c-2.4,0.5-5.4,1.2-8.7,1.8l-4,0.8c0,5.8,0.1,11.5,0.2,17.2
			c0.1,5.3,0.1,10.8,0.1,16.8v0.4l-0.3,0.3c-0.7,0.7-1.3,1.5-2,2.2l-0.4,0.5l-0.6-0.2c-1.9-0.6-3.9-1.3-5.9-2l-0.7-0.2l0-0.7
			c-0.1-5.2-0.2-10.5-0.4-15.9c-0.2-5.5-0.3-10.9-0.5-16c-1,0.3-1.7,0.5-2.3,0.7c-0.5,0.2-0.8,0.3-1,0.4c-0.1,0.2-0.1,0.5-0.2,0.7
			c-0.3,3.4-0.7,6.4-1.4,9.1c-0.9,3.8-2.3,7.3-4.1,10.5c-1.8,3.2-4,6.1-6.6,8.4c-2.6,2.4-5.6,4.1-8.9,5.2c-2.1,0.7-4.2,1-6.1,1
			c-0.8,0-1.5-0.1-2.3-0.2c-2.5-0.4-4.8-1.3-6.7-2.8c-0.5-0.4-1-0.9-1.5-1.3c-1,2.6-2.3,4.9-3.8,6.9c-1.9,2.6-4.5,4.5-7.5,5.4
			c-1.1,0.3-2.1,0.5-3.1,0.5c-1.1,0-2.2-0.2-3.2-0.6c-1.8-0.8-3.5-2.1-4.8-3.8c-1.3-1.7-2.4-3.8-3.2-6.2c-0.8-2.4-1.4-4.9-1.7-7.5
			c-0.3-2.7-0.4-5.4-0.2-8.1c0.2-2.6,0.4-5.1,0.6-7.2c0.2-1.9,0.4-3.5,0.6-4.7c-0.2,0.3-0.5,0.7-0.8,1.2c-0.9,1.5-1.8,3.4-2.8,5.8
			c-0.9,2.4-1.9,5.1-2.8,8c-0.9,3-1.8,6.1-2.6,9.2c-0.8,3.1-1.5,6.2-2,9.3c-0.6,3-0.9,5.8-1.1,8.2l0,1.5c0,1.5-0.5,2.6-1.5,3.4
			c-0.9,0.7-1.9,1.1-3,1.2l-0.1,0c-1.2-0.1-2.3-0.5-3.1-1.5c-0.8-0.9-1.2-2-1.1-3.2l0-0.2l0,0c0,0,0-0.6,0-1c-1.9,2.6-4.2,5-6.7,7
			c-3.1,2.5-6.7,4.4-10.8,5.7C171.4,372.9,168.4,373.3,165.6,373.3z M252.9,303.2c-0.2,0.1-0.6,0.4-1.1,1.1c-0.8,1.1-1.5,2.5-2.1,4
			c-0.6,1.5-1.1,3-1.6,4.5c-0.1,0.3-0.2,0.6-0.3,0.9c0.4-0.4,0.9-0.8,1.3-1.2c1.2-1.1,2-2.3,2.6-3.5c0.7-1.6,1.2-3.1,1.2-4.5
			C253,303.8,253,303.4,252.9,303.2z"/>
		<path class="st8" d="M295.1,249.8c0.5,0,0.9,0,1.4,0.1c1.4,0.2,2.8,0.7,4.1,1.5c1.3,0.8,2.5,1.8,3.6,3c1.1,1.2,2,2.6,2.8,4.2
			c1.1,2.1,2,4.4,2.6,6.8c0.7,2.4,1.2,4.8,1.5,7.1c0.4,2.3,0.6,4.5,0.7,6.4c0.1,2,0.2,3.5,0.2,4.7c0,1.5-0.5,2.8-1.4,3.9
			c-1,1.1-2.2,1.6-3.7,1.7c-0.1,0-0.2,0-0.2,0c-1.4,0-2.6-0.5-3.6-1.4c-1.1-1-1.6-2.2-1.6-3.7l-0.1-0.2c-0.1-5.2-0.5-9.3-1.1-12.5
			c-0.6-3.2-1.3-5.7-2-7.4c-0.7-1.7-1.5-2.9-2.2-3.4c-0.6-0.5-1.1-0.7-1.4-0.7c-0.1,0-0.1,0-0.2,0c-0.2,0.1-0.4,0.3-0.7,0.6
			c-0.3,0.4-0.7,1.1-1.1,2.1c-0.4,1-0.8,2.4-1.2,4.2c-0.4,1.8-0.8,4.2-1.1,7.2c-0.3,3-0.6,6.7-0.7,11c-0.2,4.3-0.2,9.5-0.1,15.4
			l3.5-0.7c2.1-0.4,4.2-0.9,6.2-1.3c2-0.4,3.9-0.9,5.6-1.3c1.7-0.4,2.9-0.8,3.7-1.1c0.8-0.3,1.4-0.6,1.7-0.7
			c0.2-1.5,0.9-2.4,2.3-2.9c0.4-0.1,0.7-0.2,1.1-0.2c0.5,0,1,0.1,1.5,0.4c0.8,0.4,1.4,1.1,1.7,2c0.4,1.4,0.3,2.7-0.4,3.9
			c-0.5,0.9-1.4,1.8-2.5,2.4c-1.2,0.7-2.6,1.3-4.4,1.9c-1.8,0.6-4,1.2-6.5,1.7c-2.5,0.6-5.4,1.2-8.7,1.8l-4.8,1
			c0,6.1,0.1,12.1,0.2,18.1c0.1,5.6,0.1,11.2,0.1,16.8c-0.7,0.7-1.3,1.5-2,2.3c-1.9-0.6-3.9-1.3-5.8-2c-0.1-5.2-0.2-10.5-0.4-15.9
			c-0.2-5.9-0.4-11.7-0.6-17.2c-1.6,0.4-2.8,0.8-3.6,1.1c-0.8,0.3-1.3,0.6-1.5,0.8c0,0.4-0.2,0.8-0.3,1.1c-0.2,3.1-0.6,6.1-1.4,9.1
			c-0.9,3.7-2.3,7.1-4,10.3c-1.7,3.2-3.9,5.9-6.4,8.2c-2.5,2.3-5.4,4-8.6,5c-2,0.7-4,1-5.8,1c-0.7,0-1.4-0.1-2.1-0.2
			c-2.4-0.4-4.5-1.2-6.2-2.6c-0.9-0.7-1.7-1.5-2.5-2.4c-1.1,3-2.5,5.8-4.2,8.1c-1.8,2.5-4.2,4.2-7,5.1c-1,0.3-1.9,0.5-2.8,0.5
			c-1,0-1.9-0.2-2.8-0.6c-1.7-0.7-3.2-1.9-4.4-3.5c-1.2-1.6-2.3-3.6-3.1-5.9c-0.8-2.3-1.3-4.7-1.6-7.3c-0.3-2.6-0.4-5.3-0.2-7.9
			c0.2-2.6,0.4-5,0.6-7.1c0.2-2.1,0.5-3.8,0.6-5.1c0.1-1.2,0.1-1.8-0.1-1.8c0,0,0,0,0,0c-0.8,0.3-1.7,1.2-2.6,2.7
			c-0.9,1.6-1.9,3.5-2.8,5.9c-1,2.4-1.9,5.1-2.9,8.1c-0.9,3-1.8,6.1-2.6,9.2c-0.8,3.1-1.5,6.3-2,9.3c-0.6,3.1-1,5.9-1.2,8.4l0,1.5
			c0,1.1-0.4,2-1.1,2.6c-0.7,0.6-1.5,0.9-2.5,1c-1,0-1.8-0.4-2.4-1.1c-0.6-0.7-0.9-1.5-0.9-2.4c0.1-0.1,0.1-0.3,0-0.5
			c0-1-0.1-2.4-0.1-4.1c-0.2,0.3-0.4,0.7-0.6,1c-2.1,3.2-4.6,6.1-7.7,8.5c-3,2.4-6.5,4.3-10.5,5.6c-2.9,0.9-5.7,1.4-8.5,1.4
			c-1.1,0-2.3-0.1-3.4-0.2c-3.8-0.5-7.1-1.8-10.1-3.9c-2.5-1.8-4.6-3.9-6.4-6.6c-1.7-2.6-3-5.5-3.8-8.6c-1-4-1.5-8.2-1.5-12.9
			c0-4.6,0.4-9.2,1-13.7c0.6-4.2,1.5-8.2,2.6-11.9c1.1-3.8,2.5-7.1,4.1-10.1c1.6-3,3.3-5.5,5.3-7.5c2-2,4-3.4,6.3-4.1
			c1.9-0.6,3.7-0.9,5.3-0.9c0.7,0,1.4,0.1,2,0.2c2.2,0.4,4,1.2,5.7,2.5c1.6,1.3,3,2.8,4.2,4.7c1.2,1.9,2.1,3.9,2.9,6
			c0.5,1.5,1,3,1.3,4.5c0.3,1.5,0.5,3,0.7,4.3c0.2,1.4,0.3,2.7,0.3,3.9s0,2.2,0,3c-0.1,1.5-0.6,2.8-1.6,3.8c-1,1-2.3,1.6-3.7,1.6
			c0,0,0,0,0,0c0,0,0,0,0,0c-1.5,0-2.8-0.6-3.8-1.7c-1.1-1.1-1.6-2.5-1.5-4c0-2-0.2-4.1-0.4-6.6c-0.2-2.4-0.6-4.6-1.3-6.6
			c-0.6-2-1.5-3.6-2.6-4.7c-0.7-0.8-1.6-1.1-2.7-1.1c-0.5,0-1,0.1-1.6,0.3c-1.4,0.5-3,1.8-4.7,4.1c-1.7,2.3-3.3,5.1-4.6,8.5
			c-1.4,3.5-2.4,7.3-3.2,11.4c-0.7,4.1-1.3,8.3-1.7,12.6c-0.2,2.8-0.2,5.5,0.1,8.1c0.3,2.6,0.8,5,1.6,7.1c0.8,2.2,1.8,4.1,3.2,5.7
			c1.3,1.7,2.9,3,4.8,3.9c1.9,1,4,1.5,6.5,1.7c0.4,0,0.7,0,1.1,0c2.2,0,4.6-0.4,7.3-1.3c2.4-0.8,4.8-2.1,7-3.9
			c2.2-1.8,4.2-4.1,6-6.7c1.7-2.6,3.1-5.5,4.2-8.8c0.9-2.9,1.4-5.8,1.5-8.9c0-0.8-0.1-1.6-0.1-2.4c-0.2-3.9-0.4-7.9-0.5-11.9
			c-0.2-4-0.3-7.8-0.5-11.6c-0.2-3.7-0.3-7.2-0.5-10.2c-0.2-3.1-0.3-5.7-0.4-7.8c-0.1-2.1-0.2-3.6-0.2-4.4c-0.1-1.5,0.4-2.8,1.4-3.9
			c1-1.1,2.2-1.6,3.6-1.8c0.1,0,0.2,0,0.3,0c1.4,0,2.6,0.5,3.7,1.5c1.1,1,1.7,2.3,1.7,3.7l-0.3,40.8c0.9-2.7,1.9-5.2,3-7.5
			c1.1-2.3,2.2-4.4,3.3-6.2c1.2-1.8,2.3-3.3,3.5-4.4c1.2-1.1,2.4-1.8,3.7-2c0.5-0.1,1-0.1,1.4-0.1c3,0,5.1,1.7,6.3,5.2
			c1.4,4,2.1,10,2,18.1c0,5.6,0.2,9.8,0.6,12.6c0.4,2.5,1,3.8,1.8,3.8c0.1,0,0.2,0,0.3,0c1.1-0.3,2.1-1.1,2.9-2.2
			c0.9-1.1,1.7-2.5,2.3-4c0.7-1.5,1.2-3.1,1.7-4.7c0.5-1.6,0.8-3.1,1-4.4c0.2-0.9,0.3-1.8,0.5-2.6c-0.3-2.9-0.1-5.9,0.5-9.1
			c0.7-3.8,1.8-7.3,3.3-10.6c1.5-3.3,3.4-6.2,5.7-8.7c2.2-2.5,4.7-4.2,7.3-5c1-0.3,1.9-0.5,2.7-0.5c1.1,0,2.1,0.3,3,0.9
			c1.4,1,2.4,2.4,2.9,4c1,3,1.1,5.8,0.4,8.4c-0.7,2.6-1.8,4.9-3.3,7c-1.6,2.1-3.4,3.9-5.6,5.4c-2.1,1.5-4.2,2.6-6.2,3.4
			c-0.1,1.3-0.2,2.9-0.1,4.8c0,1.9,0.4,3.7,0.9,5.3c0.6,1.6,1.5,2.9,2.7,3.8c0.6,0.5,1.4,0.7,2.3,0.7c0.8,0,1.8-0.2,2.8-0.6
			c3.3-1.2,6.5-4,9.7-8.4c3.2-4.5,5.1-11.2,5.6-20.1c0.1-0.9,0.4-1.7,1.1-2.3c0.1-0.1,0.2-0.1,0.3-0.2c0.8-0.9,1.7-1.7,3.2-2.4
			c1.8-0.8,4.2-1.7,7.2-2.4c-0.1-3.3-0.2-6.4-0.3-9.5c-0.1-3.1-0.1-6.1,0-9.2c0.1-3.1,0.2-6.1,0.4-9.3c0.2-3.1,0.6-6.3,1.2-9.5
			c0.2-1.1,0.5-2.3,0.9-3.8c0.4-1.4,1-2.9,1.8-4.3c0.8-1.4,1.7-2.7,2.9-3.9c1.2-1.2,2.7-2.1,4.4-2.6
			C293.2,250,294.2,249.8,295.1,249.8 M246.3,316c1.2-0.7,2.4-1.6,3.6-2.9c1.2-1.2,2.2-2.5,2.8-3.8c0.8-1.8,1.2-3.4,1.3-4.9
			c0.1-1.5-0.2-2.3-0.7-2.4c-0.1,0-0.1,0-0.2,0c-0.6,0-1.3,0.5-2.1,1.6c-0.8,1.2-1.6,2.6-2.2,4.2c-0.6,1.6-1.2,3.1-1.6,4.6
			C246.7,314,246.5,315.1,246.3,316 M295.1,247.8C295.1,247.8,295.1,247.8,295.1,247.8c-1.2,0-2.4,0.2-3.6,0.6
			c-2.1,0.7-3.9,1.7-5.2,3.1c-1.3,1.3-2.4,2.8-3.3,4.3c-0.8,1.5-1.5,3.1-1.9,4.7c-0.4,1.5-0.7,2.8-0.9,4c-0.6,3.3-1,6.6-1.2,9.7
			c-0.2,3.1-0.3,6.3-0.4,9.3c-0.1,3,0,6.2,0,9.3c0.1,2.6,0.2,5.2,0.2,7.9c-2.4,0.7-4.4,1.4-6,2.1c-1.4,0.7-2.6,1.5-3.6,2.7
			c-0.1,0.1-0.2,0.2-0.4,0.3c-1.1,1-1.7,2.2-1.8,3.7c-0.5,8.5-2.2,14.9-5.2,19.1c-3,4.1-5.9,6.7-8.8,7.7c-0.9,0.3-1.6,0.5-2.2,0.5
			c-0.6,0-1-0.2-1.1-0.3c-0.9-0.6-1.6-1.6-2-2.8c-0.5-1.4-0.8-3-0.8-4.7c0-1.3,0-2.4,0-3.4c1.7-0.8,3.6-1.8,5.4-3.1
			c2.3-1.6,4.3-3.6,6-5.8c1.7-2.3,3-4.9,3.7-7.7c0.7-3,0.6-6.1-0.5-9.5c-0.7-2-1.9-3.7-3.7-5c-1.2-0.8-2.6-1.3-4.1-1.3
			c-1,0-2.1,0.2-3.3,0.6c-2.9,0.9-5.7,2.8-8.1,5.6c-2.4,2.6-4.4,5.8-6,9.2c-1.6,3.5-2.8,7.2-3.5,11.1c-0.6,3.2-0.7,6.4-0.5,9.4
			c-0.1,0.8-0.3,1.5-0.4,2.3c-0.2,1.3-0.6,2.7-1,4.2c-0.4,1.5-1,3-1.6,4.5c-0.6,1.4-1.3,2.6-2.1,3.6c-0.4,0.5-0.7,0.8-1.1,1.1
			c-0.1-0.4-0.2-0.9-0.4-1.7c-0.5-2.6-0.7-6.8-0.6-12.2c0-8.4-0.7-14.5-2.2-18.8c-1.9-5.4-5.5-6.5-8.2-6.5c-0.6,0-1.1,0-1.7,0.1
			c-1.6,0.3-3.2,1.1-4.7,2.5c-1.3,1.2-2.6,2.8-3.9,4.7c-0.9,1.4-1.7,2.9-2.6,4.6l0.3-30.5c0-2-0.8-3.8-2.3-5.2c-1.4-1.3-3.1-2-5.1-2
			c-0.1,0-0.3,0-0.4,0l0,0l0,0c-2,0.1-3.6,1-5,2.4c-1.3,1.5-2,3.3-1.9,5.3l0,0l0,0c0.1,0.7,0.1,2.2,0.2,4.3c0.1,2.2,0.2,4.8,0.4,7.9
			c0.1,3,0.3,6.4,0.5,10.2c0.2,3.7,0.3,7.6,0.5,11.6c0.2,4,0.4,7.9,0.5,11.9l0.1,1.5l0,0.9c-0.1,2.9-0.5,5.7-1.4,8.3
			c-1,3-2.3,5.8-3.9,8.3c-1.6,2.4-3.5,4.5-5.6,6.3c-2,1.7-4.2,2.9-6.3,3.6c-2.4,0.8-4.7,1.2-6.6,1.2c-0.3,0-0.6,0-0.9,0
			c-2.2-0.1-4.1-0.6-5.7-1.5c-1.6-0.8-3-2-4.2-3.4c-1.2-1.5-2.2-3.2-2.9-5.2c-0.7-2-1.2-4.2-1.5-6.7c-0.3-2.5-0.3-5.1-0.1-7.8
			c0.4-4.2,0.9-8.3,1.6-12.4c0.7-4,1.7-7.7,3.1-11.1c1.2-3.2,2.7-5.9,4.3-8c1.9-2.6,3.2-3.3,3.7-3.4c0.4-0.1,0.7-0.2,1-0.2
			c0.5,0,0.9,0.2,1.2,0.5c0.9,0.9,1.6,2.2,2.2,3.9c0.6,1.9,1,3.9,1.2,6.2c0.2,2.3,0.3,4.5,0.3,6.3c-0.1,2.1,0.6,4,2,5.5
			c1.5,1.5,3.2,2.3,5.3,2.3c2,0,3.8-0.7,5.2-2.2c1.4-1.4,2.1-3.1,2.2-5.1c0-0.8,0.1-1.9,0-3.1c0-1.3-0.1-2.6-0.3-4.1
			c-0.2-1.4-0.4-2.9-0.7-4.5c-0.3-1.6-0.8-3.2-1.3-4.8c-0.8-2.2-1.8-4.3-3-6.3c-1.3-2.1-2.9-3.9-4.7-5.3c-1.9-1.5-4.1-2.4-6.5-2.9
			c-0.8-0.1-1.6-0.2-2.4-0.2c-1.8,0-3.8,0.3-5.9,1c-2.5,0.8-4.9,2.3-7.1,4.6c-2.1,2.1-4,4.8-5.6,7.9c-1.6,3.1-3,6.6-4.2,10.5
			c-1.1,3.8-2,7.9-2.7,12.2c-0.7,4.6-1,9.3-1.1,13.9c0,4.8,0.5,9.3,1.5,13.4c0.9,3.3,2.2,6.4,4.1,9.2c1.8,2.8,4.2,5.2,6.9,7.1
			c3.2,2.2,6.8,3.6,10.9,4.2c1.2,0.2,2.4,0.3,3.7,0.3c2.9,0,6-0.5,9.1-1.5c4.2-1.3,7.9-3.3,11.1-5.9c1.9-1.5,3.7-3.2,5.2-5.1
			c0.2,0.8,0.6,1.6,1.3,2.3c1,1.1,2.3,1.7,3.8,1.8l0.1,0l0.1,0c1.4-0.1,2.6-0.6,3.6-1.4c0.8-0.7,1.9-1.9,1.9-4.2l0-1.4
			c0.2-2.4,0.6-5.1,1.1-8.1c0.6-3,1.2-6.1,2-9.2c0.8-3.1,1.6-6.2,2.6-9.1c0.9-3,1.9-5.6,2.8-8c0.4-0.9,0.7-1.7,1.1-2.5
			c-0.2,2.1-0.4,4.4-0.6,7c-0.2,2.7-0.1,5.5,0.2,8.3c0.3,2.7,0.9,5.2,1.7,7.7c0.9,2.5,2,4.7,3.4,6.5c1.4,1.9,3.2,3.3,5.2,4.1
			c1.1,0.5,2.3,0.7,3.6,0.7c1.1,0,2.3-0.2,3.5-0.6c3.3-1,6-3,8-5.8c1.3-1.7,2.4-3.6,3.3-5.8c0.2,0.1,0.4,0.3,0.5,0.4
			c2,1.6,4.5,2.6,7.2,3c0.8,0.1,1.6,0.2,2.4,0.2c2,0,4.1-0.4,6.4-1.1c3.5-1.1,6.6-2.9,9.3-5.4c2.7-2.4,4.9-5.3,6.8-8.7
			c1.8-3.3,3.2-6.9,4.2-10.8c0.7-2.7,1.2-5.7,1.4-9.1c0-0.1,0.1-0.2,0.1-0.2c0.1-0.1,0.3-0.1,0.5-0.2c0.3-0.1,0.6-0.2,1-0.3
			c0.2,4.7,0.3,9.6,0.5,14.7c0.2,5.2,0.3,10.4,0.4,15.9l0,1.4l1.3,0.5c2.1,0.7,4,1.4,5.9,2l1.3,0.4l0.9-1c0.6-0.7,1.3-1.5,2-2.2
			l0.5-0.6l0-0.8c0-6.1,0-11.6-0.1-16.8c-0.1-5.6-0.1-11.1-0.1-16.4l3.2-0.7c3.3-0.6,6.2-1.3,8.7-1.8c2.5-0.6,4.7-1.2,6.6-1.8
			c1.9-0.6,3.5-1.3,4.8-2c1.5-0.8,2.6-1.9,3.3-3.2c1-1.7,1.2-3.6,0.6-5.5c-0.5-1.4-1.4-2.5-2.7-3.2c-0.8-0.4-1.6-0.6-2.4-0.6
			c-0.6,0-1.1,0.1-1.7,0.3c-1.7,0.5-2.9,1.7-3.4,3.4c-0.2,0.1-0.4,0.2-0.7,0.3c-0.7,0.3-1.9,0.6-3.5,1c-1.7,0.4-3.6,0.9-5.6,1.3
			c-2,0.4-4.1,0.9-6.2,1.3l-1.2,0.2c-0.1-4.9,0-9.2,0.1-12.9c0.2-4.3,0.4-7.9,0.7-10.9c0.3-2.9,0.7-5.3,1-7c0.4-1.7,0.7-3,1.1-3.9
			c0.2-0.5,0.3-0.8,0.5-1c0.3,0.3,0.7,0.9,1.4,2.5c0.7,1.6,1.3,3.9,1.9,7c0.6,3.1,0.9,7.2,1,12.2l0,0.3l0.1,0.2
			c0.1,1.9,0.9,3.6,2.3,4.9c1.4,1.3,3.1,1.9,5,1.9c0.1,0,0.2,0,0.3,0c2-0.1,3.7-0.9,5.1-2.3c1.3-1.4,2-3.2,2-5.3
			c0-1.2-0.1-2.8-0.2-4.8c-0.1-2-0.4-4.2-0.7-6.6c-0.4-2.4-0.9-4.9-1.6-7.3c-0.7-2.5-1.6-4.9-2.8-7.2c-0.9-1.7-1.9-3.2-3.1-4.6
			c-1.2-1.4-2.6-2.5-4-3.4c-1.5-0.9-3.1-1.5-4.8-1.8C296.3,247.9,295.7,247.8,295.1,247.8L295.1,247.8L295.1,247.8z M250.3,309.6
			c0.1-0.3,0.3-0.7,0.4-1c0.3-0.7,0.6-1.4,1-2c-0.2,0.6-0.4,1.3-0.7,1.9C250.7,308.9,250.5,309.3,250.3,309.6L250.3,309.6z"/>
	</g>
</g>
<g>
	<g>
		<path class="st8" d="M161.3,406.4c-1,0-1.9-0.2-2.7-0.5c-0.8-0.4-1.5-0.9-2.1-1.6c-0.5-0.6-0.9-1.4-1.2-2.2
			c-0.3-0.8-0.6-1.7-0.8-2.6c-0.2-0.8-0.3-1.6-0.4-2.4c-0.1-0.7-0.3-1.4-0.4-2c-0.1-0.5-0.3-0.9-0.5-1.2c-0.2-0.2-0.4-0.4-0.7-0.5
			c-0.1,0-0.3-0.1-0.4-0.1c-0.1,0.5-0.2,1.1-0.3,1.6c-0.2,1-0.5,1.9-0.8,2.8c-0.8,2.1-1.9,3.9-3.4,5.1c-1.5,1.3-3.3,2.1-5.4,2.6
			c-0.8,0.2-1.5,0.3-2.2,0.3c-0.5,0-1,0-1.5-0.1c-1.2-0.2-2.2-0.6-3.2-1.2c-0.9-0.6-1.7-1.3-2.4-2.2c-0.6-0.9-1.1-1.9-1.3-2.9
			c-0.4-1.5-0.4-2.9-0.1-4c0.3-1.1,0.7-2.1,1.3-3c0.6-0.9,1.4-1.7,2.3-2.3c0.9-0.6,1.8-1,2.7-1.3c0.3-0.1,0.5-0.1,0.8-0.1
			c-0.3-0.4-0.5-0.9-0.6-1.4c-0.5-2.2-0.6-4.2-0.3-6c0.3-1.8,0.9-3.6,1.7-5.3c0.6-1.2,1.4-2.3,2.3-3.4c0.9-1,1.9-1.9,3-2.7
			c1-0.8,2.1-1.5,3.2-2c1.1-0.6,2.2-1,3.2-1.2c1.2-0.3,2.4-0.4,3.4-0.4c0.6,0,1.3,0.1,1.9,0.2c1.6,0.3,3,0.8,4.2,1.6
			c1.2,0.8,2.2,1.9,2.9,3.1c0.7,1.2,1.2,2.6,1.5,4c0.3,1.4,0.3,2.9,0.1,4.5c-0.2,1.5-0.7,3-1.4,4.5c-0.6,1.3-1.6,2.6-2.7,3.9
			c-0.8,0.8-1.7,1.6-2.7,2.3c0.2,0.2,0.4,0.5,0.5,0.7c0.6,0.9,1,1.8,1.3,2.8c0.3,0.9,0.5,1.8,0.7,2.7c0.2,0.8,0.4,1.6,0.6,2.3
			c0,0.1,0.1,0.2,0.1,0.3c0.1,0,0.1-0.1,0.2-0.1c0.5-0.2,1-0.3,1.5-0.3c0.5,0,0.9,0.1,1.3,0.2c0.9,0.3,1.7,1,2.1,2
			c0.4,0.9,0.4,1.9,0.1,2.9c-0.4,1-1.1,1.7-2.1,2.1C163.6,406.2,162.4,406.4,161.3,406.4C161.4,406.4,161.3,406.4,161.3,406.4z
			 M139,395.4c-0.3,0.1-0.6,0.2-0.8,0.4c-0.3,0.2-0.5,0.4-0.6,0.6c-0.1,0.2-0.2,0.5-0.2,0.7c0,0.3,0,0.5,0,0.8
			c0.1,0.4,0.2,0.7,0.4,0.9c0.2,0.3,0.5,0.5,0.8,0.6c0.4,0.2,0.7,0.3,1.1,0.3c0.1,0,0.3,0,0.4,0c0.2,0,0.4,0,0.6-0.1
			c0.9-0.2,1.7-0.6,2.3-1.1c-0.1,0-0.3,0-0.4,0c-0.6,0-1.2-0.2-1.8-0.5c-0.9-0.5-1.5-1.2-1.8-2.2c0,0,0-0.1,0-0.1
			C139.1,395.7,139,395.6,139,395.4z M143.5,389.6c0.6,0.4,1.2,0.9,1.6,1.5c0.2,0.3,0.4,0.6,0.6,1c0-0.1,0-0.2,0-0.3
			c0.1-1,0.1-2,0.2-3c0-1,0-1.9,0-2.8c0-0.9,0-1.9,0-2.8c0-1.3,0.1-2.6,0.3-3.7c0.1-0.5,0.1-0.9,0.2-1.4c-0.4,0.8-0.8,1.7-1.1,2.6
			c-0.4,1.4-0.4,2.9,0,4.6c0.2,1,0.1,2-0.4,2.8C144.5,388.8,144,389.3,143.5,389.6z M152.8,378.2c0,0.1-0.1,0.3-0.1,0.6
			c-0.1,0.9-0.2,2.1-0.2,3.6c0,1,0,2,0,3.1c0,0.4,0,0.8,0,1.3c0.9-0.4,1.7-0.9,2.3-1.4c1.1-0.9,2-2,2.7-3c0.6-1.1,1-2.2,1.2-3.3
			c0.2-1.1,0.1-2.1-0.1-3c-0.1-0.6-0.3-1.1-0.6-1.6c-0.3-0.4-0.6-0.8-1-1.1c-0.4-0.3-0.9-0.5-1.5-0.6c-0.2,0-0.4,0-0.6,0
			c-0.5,0-1.1,0.1-1.7,0.2c-0.1,0-0.1,0-0.2,0c0.1,0.1,0.3,0.1,0.4,0.2c0.6,0.5,1,1.1,1.2,1.9c0,0,0,0.1,0,0.1
			c0.1,0.7-0.1,1.3-0.4,1.9C153.7,377.6,153.3,378,152.8,378.2z"/>
		<path class="st8" d="M154.6,367.6c0.6,0,1.1,0,1.6,0.1c1.4,0.2,2.6,0.7,3.6,1.4c1,0.7,1.9,1.6,2.5,2.6c0.6,1.1,1.1,2.2,1.3,3.5
			c0.2,1.3,0.3,2.6,0.1,4c-0.2,1.4-0.6,2.7-1.3,4c-0.6,1.2-1.4,2.4-2.5,3.5c-1.1,1.1-2.4,2.2-4,3.1c0.3,0.2,0.6,0.5,0.9,0.8
			c0.3,0.3,0.6,0.7,0.8,1c0.5,0.7,0.8,1.5,1.1,2.4c0.3,0.9,0.5,1.7,0.7,2.6c0.2,0.8,0.4,1.6,0.6,2.3c0.2,0.7,0.4,1.2,0.7,1.5
			c0.1,0.1,0.2,0.2,0.3,0.2c0.1,0,0.2,0,0.4-0.1c0.3-0.1,0.6-0.3,0.9-0.4c0.3-0.1,0.6-0.2,0.9-0.2c0.3,0,0.5,0.1,0.8,0.2
			c0.6,0.2,1,0.6,1.2,1.2c0.3,0.6,0.3,1.2,0.1,1.7c-0.2,0.6-0.6,1-1.2,1.2c-1.1,0.4-2,0.6-2.8,0.6c0,0,0,0-0.1,0
			c-0.8,0-1.5-0.1-2.1-0.4c-0.6-0.3-1.1-0.7-1.5-1.2c-0.4-0.5-0.8-1.1-1-1.8c-0.3-0.8-0.5-1.6-0.7-2.4c-0.2-0.8-0.3-1.6-0.4-2.4
			c-0.1-0.8-0.3-1.5-0.5-2.1c-0.2-0.7-0.4-1.2-0.8-1.7c-0.3-0.4-0.8-0.8-1.4-1c-0.3-0.1-0.7-0.2-1.2-0.2c-0.3,0-0.7,0-1.1,0.1
			c-0.1,0.9-0.2,1.8-0.4,2.7c-0.2,0.9-0.4,1.7-0.7,2.5c-0.7,1.9-1.7,3.4-2.9,4.5c-1.3,1.1-2.9,1.9-4.8,2.3c-0.6,0.2-1.3,0.2-1.9,0.2
			c-0.4,0-0.8,0-1.2-0.1c-1-0.2-1.9-0.5-2.6-1c-0.8-0.5-1.4-1.1-2-1.8c-0.5-0.7-0.9-1.5-1.1-2.4c-0.3-1.3-0.3-2.4-0.1-3.3
			s0.6-1.7,1.1-2.4c0.5-0.8,1.2-1.4,1.9-1.9c0.8-0.5,1.5-0.9,2.2-1c0.5-0.1,1-0.2,1.5-0.2c0.2,0,0.5,0,0.7,0
			c0.7,0.1,1.3,0.3,1.9,0.6c0.6,0.3,1.1,0.8,1.6,1.4c0.4,0.6,0.8,1.3,1,2.2c0.2,0.6,0.1,1.2-0.2,1.7c-0.3,0.6-0.7,0.9-1.3,1.1
			c-0.2,0.1-0.5,0.1-0.7,0.1c-0.4,0-0.7-0.1-1-0.3c-0.6-0.3-0.9-0.7-1.1-1.3c0-0.2-0.1-0.4-0.1-0.6c0-0.2-0.1-0.5-0.2-0.7
			c-0.1-0.2-0.3-0.3-0.5-0.4c-0.1-0.1-0.2-0.1-0.4-0.1c-0.1,0-0.3,0-0.5,0.1c-0.7,0.2-1.2,0.4-1.6,0.7c-0.4,0.3-0.8,0.7-1,1.1
			c-0.2,0.4-0.4,0.8-0.4,1.3c-0.1,0.5,0,0.9,0.1,1.3c0.1,0.6,0.4,1.1,0.8,1.6c0.4,0.4,0.8,0.8,1.3,1c0.5,0.2,1,0.4,1.6,0.5
			c0.2,0,0.4,0,0.6,0c0.3,0,0.7,0,1-0.1c1.5-0.4,2.8-1.1,3.7-2.1c0.9-1,1.5-2.3,1.9-3.9c0.3-1.1,0.4-2.2,0.5-3.2
			c0.1-1.1,0.1-2.1,0.2-3.1c0-1,0-2,0-2.9c0-0.9,0-1.8,0-2.7c0-1.3,0.1-2.5,0.2-3.5c0.1-1.1,0.4-2,0.7-2.8c0.3-0.8,0.7-1.4,1.2-1.9
			c0.5-0.5,1.1-0.8,1.9-0.9c0.1,0,0.1,0,0.2,0c0.3,0,0.6,0.1,0.9,0.3c0.3,0.2,0.5,0.5,0.6,0.9c0,0.4,0,0.7-0.2,1s-0.4,0.5-0.7,0.6
			c-0.4,0.1-0.7,0.6-0.8,1.7c-0.2,1-0.2,2.3-0.2,3.8c0,1,0,2,0,3.1c0,1.1,0,2.2-0.1,3.4c1.9-0.5,3.5-1.4,4.8-2.4
			c1.3-1,2.3-2.2,3-3.5c0.7-1.3,1.2-2.5,1.4-3.8c0.2-1.3,0.2-2.5-0.1-3.6c-0.2-0.7-0.4-1.4-0.8-2c-0.4-0.6-0.9-1.1-1.5-1.6
			c-0.6-0.4-1.3-0.7-2.1-0.8c-0.3,0-0.6-0.1-0.9-0.1c-0.6,0-1.3,0.1-2,0.3c-1.1,0.3-2.3,0.8-3.5,1.6c-1.2,0.8-2.3,1.8-3.3,3.1
			c-1,1.2-1.7,2.7-2.1,4.3c-0.5,1.6-0.5,3.4,0,5.4c0.1,0.6,0.1,1.2-0.3,1.7c-0.3,0.5-0.8,0.9-1.4,1c-0.2,0-0.4,0.1-0.5,0.1
			c-0.4,0-0.8-0.1-1.2-0.3c-0.5-0.3-0.9-0.8-1-1.4c-0.4-2-0.5-3.8-0.3-5.5c0.3-1.7,0.8-3.3,1.6-4.8c0.6-1.1,1.3-2.1,2.1-3.1
			c0.9-1,1.8-1.8,2.8-2.5c1-0.7,2-1.4,3-1.9s2-0.9,2.8-1.1C152.6,367.8,153.7,367.6,154.6,367.6 M154.6,364.6
			c-1.2,0-2.5,0.2-3.8,0.5c-1.1,0.3-2.3,0.7-3.5,1.3c-1.2,0.6-2.3,1.3-3.5,2.2c-1.1,0.9-2.2,1.8-3.2,2.9c-1,1.1-1.9,2.4-2.6,3.7
			c-0.9,1.8-1.6,3.7-1.9,5.7c-0.3,2-0.2,4.2,0.3,6.6c0,0,0,0,0,0c-0.8,0.3-1.5,0.7-2.2,1.2c-1,0.7-1.9,1.6-2.7,2.7
			c-0.7,1-1.2,2.2-1.5,3.5c-0.3,1.4-0.3,3,0.1,4.7c0.3,1.2,0.8,2.4,1.6,3.5c0.8,1.1,1.7,1.9,2.8,2.6c1.1,0.7,2.3,1.1,3.7,1.4
			c0.6,0.1,1.2,0.2,1.8,0.2c0.8,0,1.7-0.1,2.6-0.3c2.4-0.6,4.4-1.5,6-3c1.7-1.4,3-3.4,3.8-5.8c0.1-0.2,0.2-0.5,0.2-0.7
			c0.1,0.7,0.3,1.5,0.4,2.2c0.2,1,0.5,2,0.8,2.9c0.3,0.9,0.8,1.8,1.4,2.5c0.7,0.9,1.6,1.6,2.6,2.1c1,0.4,2.1,0.7,3.3,0.7l0.1,0
			c1.2,0,2.5-0.3,3.9-0.9c1.4-0.6,2.4-1.6,2.9-2.9c0.5-1.3,0.5-2.7-0.1-4c-0.6-1.3-1.6-2.3-2.9-2.8c-0.6-0.2-1.2-0.3-1.9-0.3
			c-0.2,0-0.4,0-0.6,0c-0.1-0.3-0.2-0.7-0.3-1.1c-0.2-0.9-0.5-1.8-0.8-2.7c-0.3-1-0.7-1.9-1.2-2.8c0.6-0.5,1.2-1,1.7-1.6
			c1.3-1.4,2.3-2.8,3-4.2c0.8-1.6,1.3-3.2,1.5-4.9c0.2-1.7,0.2-3.4-0.1-4.9c-0.3-1.6-0.9-3.1-1.7-4.5c-0.9-1.4-2-2.6-3.4-3.6
			c-1.4-0.9-3-1.6-4.8-1.9C156.1,364.7,155.4,364.6,154.6,364.6L154.6,364.6z M154.1,379.2c0.5-0.3,0.9-0.8,1.2-1.3
			c0.5-0.9,0.7-1.8,0.6-2.8c0-0.1,0-0.2,0-0.2c0-0.1-0.1-0.3-0.1-0.4c0.1,0,0.2,0.1,0.2,0.1c0.2,0.2,0.4,0.4,0.6,0.6
			c0.2,0.4,0.4,0.7,0.5,1.1c0.2,0.7,0.2,1.5,0,2.4c-0.1,0.9-0.5,1.8-1,2.7c-0.5,0.9-1.3,1.7-2.2,2.5c0-0.6,0-1.1,0-1.7
			C154,381.1,154,380,154.1,379.2L154.1,379.2z"/>
	</g>
	<g>
		<path class="st8" d="M241.7,360.6c-0.5,0-0.9-0.1-1.3-0.3c-0.6-0.3-1.2-0.8-1.5-1.4c-0.3-0.6-0.5-1.2-0.4-1.8c0-0.2,0-0.4,0.1-0.6
			c-0.1-0.3-0.3-0.6-0.3-0.9c-0.2-0.9-0.1-1.8,0.4-2.5c0.5-0.7,1.2-1.2,2-1.4c0.4-0.1,0.7-0.1,1-0.1c0.6,0,1.3,0.1,1.8,0.4
			c0.8,0.4,1.5,1.2,1.8,2.1c0.2,0.7,0.3,1.3,0.3,1.9c0,0.5-0.1,1-0.2,1.3c-0.2,0.5-0.3,0.9-0.6,1.4c-0.3,0.6-0.8,1-1.4,1.4
			c-0.2,0.2-0.5,0.3-0.9,0.4C242.2,360.5,241.9,360.6,241.7,360.6L241.7,360.6z"/>
		<path class="st8" d="M241.6,353c0.4,0,0.8,0.1,1.1,0.3c0.5,0.3,0.9,0.7,1.2,1.3c0.1,0.4,0.2,0.8,0.2,1.3c0,0.4-0.1,0.8-0.2,1.1
			c-0.1,0.3-0.3,0.7-0.5,1c-0.2,0.4-0.5,0.7-0.9,0.9c-0.1,0.1-0.2,0.1-0.4,0.2c-0.1,0-0.3,0.1-0.4,0.1c-0.2,0-0.5-0.1-0.7-0.2
			c-0.4-0.2-0.6-0.4-0.8-0.8c-0.2-0.3-0.2-0.6-0.2-1c0-0.3,0.1-0.6,0.3-0.9c-0.3-0.2-0.5-0.6-0.6-1c-0.1-0.5,0-0.9,0.2-1.4
			c0.3-0.4,0.6-0.7,1.1-0.8C241.2,353.1,241.4,353,241.6,353 M241.6,350c-0.5,0-0.9,0.1-1.4,0.2c-1.2,0.3-2.2,1-2.9,2.1
			c-0.7,1.1-0.9,2.4-0.6,3.7c0.1,0.3,0.1,0.5,0.2,0.7c0,0.1,0,0.2,0,0.3c-0.1,0.9,0.2,1.8,0.6,2.6c0.5,0.9,1.3,1.6,2.2,2.1
			c0.6,0.3,1.3,0.4,1.9,0.4c0.4,0,0.7,0,1.1-0.1c0.5-0.1,1-0.3,1.4-0.6c0.8-0.5,1.5-1.1,1.9-1.9c0.3-0.5,0.5-1.1,0.7-1.6
			c0,0,0-0.1,0-0.1c0.1-0.5,0.2-1,0.3-1.6c0.1-0.8,0-1.7-0.3-2.5c0,0,0-0.1,0-0.1c-0.5-1.2-1.4-2.2-2.5-2.8
			C243.4,350.2,242.5,350,241.6,350L241.6,350z"/>
	</g>
	<g>
		<path class="st8" d="M170.6,398.5c-0.6,0-1.2-0.1-1.8-0.2c-1.2-0.3-2.3-0.8-3.2-1.7c-0.9-0.8-1.5-1.7-2-2.9
			c-0.5-1.1-0.7-2.3-0.8-3.6c-0.1-1.6,0.1-3.2,0.5-4.9c0.4-1.7,1.1-3.3,1.9-4.7c0.8-1.5,1.8-2.8,2.9-3.8c1.2-1.2,2.5-1.9,3.9-2.2
			c0.4-0.1,0.9-0.2,1.3-0.2c0.9,0,1.8,0.3,2.4,0.8c0.8,0.7,1.3,1.6,1.6,2.6c0.4,1.6,0.3,3-0.1,4.4c-0.4,1.3-1.1,2.4-1.9,3.3
			c-0.8,0.9-1.8,1.7-2.9,2.4c-0.7,0.4-1.4,0.8-2.1,1c0,0.3-0.1,0.6-0.1,1c0,0.6,0,1.3,0.2,1.8c0.1,0.4,0.3,0.7,0.5,0.9
			c0,0,0.1,0,0.2,0c0.1,0,0.3,0,0.6-0.1c1.1-0.3,2.3-1.2,3.6-2.7c0.9-1,1.6-2.5,2.1-4.5c0.2-1.4,0.4-2.7,0.7-4
			c0.3-1.1,0.6-2.2,1-3.3c0.4-1.1,0.9-2.1,1.5-2.9c0.6-0.9,1.3-1.7,2.1-2.3c0.8-0.7,1.8-1.2,2.8-1.4c0.5-0.1,1-0.2,1.4-0.2
			c0.6,0,1.2,0.1,1.8,0.3c0.9,0.4,1.6,0.9,2.2,1.6c0.6,0.7,0.9,1.5,1.2,2.3c0.2,0.8,0.3,1.6,0.2,2.3c0.3-0.9,0.6-1.7,0.9-2.5
			c0.5-1.2,1.2-2.3,2-3.3c0.8-1,1.7-2,2.8-2.7c1.1-0.8,2.3-1.3,3.7-1.6c0.3-0.1,0.6-0.1,0.9-0.1c0.7,0,1.4,0.2,2.1,0.6
			c0.9,0.6,1.5,1.5,1.7,2.5c0.1,0.5,0.1,1-0.1,1.5c0,0.1,0,0.1-0.1,0.2c0.2,0.3,0.4,0.5,0.5,0.8c0.3,0.6,0.5,1.2,0.7,1.9
			c0.1,0.5,0.2,1,0.2,1.5c0.2-0.1,0.3-0.2,0.5-0.3c0.1-0.1,0.2-0.2,0.3-0.4l-0.2-6.9c0-1.1,0.4-2,1.2-2.7c0.7-0.7,1.6-1,2.6-1
			c1,0,1.9,0.4,2.6,1c0.1-0.1,0.2-0.2,0.2-0.3c0.9-1.2,1.9-1.9,3-2.2c0.5-0.1,1.1-0.2,1.6-0.2c0.4,0,0.8,0,1.2,0.1
			c0.9,0.2,1.6,0.6,2.3,1.2c0.6,0.5,1.1,1.2,1.5,2c0,0,0,0.1,0.1,0.1c0.5-1,1.1-1.9,1.6-2.7c0.7-0.9,1.3-1.7,2-2.3
			c0.8-0.7,1.7-1.1,2.6-1.2c0.2,0,0.3,0,0.5,0c1.2,0,3.4,0.5,4.2,3.5c0.5,1.9,0.6,4.6,0.3,8.2c-0.2,1.8-0.2,3.3-0.2,4.3
			c0.1-0.2,0.3-0.4,0.4-0.7c0.3-0.6,0.6-1.1,0.8-1.7c0.2-0.6,0.4-1.2,0.5-1.7c0.3-1,0.5-1.9,0.6-2.7c0-0.2,0.1-0.4,0.1-0.6
			c0-0.1,0-0.3,0-0.4c0-0.4,0-0.8,0-1.1c0-1.2,0-2.4,0-3.4c0-1.1,0.1-2,0.1-2.7c0-1,0.5-1.9,1.3-2.6c0.7-0.6,1.5-0.9,2.4-0.9
			c0.1,0,0.2,0,0.3,0c1,0.1,1.9,0.5,2.6,1.3c0.7,0.8,1,1.8,0.9,2.9c-0.2,1-0.3,2.1-0.4,3.2c-0.1,1.1-0.2,2.3-0.3,3.4
			c-0.1,1.1-0.1,2.2-0.1,3.1c0,0.9,0.1,1.7,0.2,2.4c0.1,0.3,0.1,0.6,0.2,0.7c0,0,0.1-0.1,0.1-0.1c0.3-0.4,0.6-0.8,0.9-1.4
			c0.3-0.6,0.6-1.3,0.9-2c0.3-0.7,0.5-1.5,0.7-2.3l0.1-0.3c0-1.2,0.2-2.5,0.5-3.8c0.4-1.7,1.1-3.3,1.9-4.7c0.8-1.5,1.8-2.8,2.9-3.8
			c1.2-1.2,2.5-1.9,3.9-2.2c0.4-0.1,0.9-0.2,1.3-0.2c0.9,0,1.8,0.3,2.4,0.8c0.8,0.7,1.3,1.6,1.6,2.6c0.4,1.6,0.3,3-0.1,4.4
			c-0.4,1.3-1.1,2.4-1.9,3.3c-0.8,0.9-1.8,1.7-2.9,2.4c-0.7,0.4-1.4,0.8-2.1,1c0,0.3-0.1,0.6-0.1,1c0,0.6,0,1.3,0.2,1.8
			c0.1,0.4,0.3,0.7,0.5,0.9l0,0c0,0,0,0,0.2,0c0.1,0,0.3,0,0.6-0.1c1.1-0.3,2.3-1.2,3.6-2.7c1.2-1.4,2.1-3.7,2.6-6.7l-0.1-6.9
			c0-1.1,0.4-2,1.2-2.7c0.7-0.7,1.6-1,2.6-1c1.1,0,2,0.5,2.7,1.2c0.3,0.3,0.5,0.6,0.6,0.9c0.2-0.3,0.4-0.6,0.6-0.8
			c0.6-0.9,1.3-1.6,2-2.2c0.8-0.7,1.6-1,2.5-1.1c0.2,0,0.3,0,0.5,0c1.2,0,3.4,0.5,4.2,3.5c0.5,1.9,0.6,4.6,0.3,8.2
			c-0.2,1.8-0.2,3.3-0.2,4.3c0.1-0.2,0.3-0.4,0.4-0.7c0.3-0.6,0.6-1.1,0.8-1.7c0.2-0.6,0.4-1.2,0.5-1.7l0-0.2
			c0.1-1.2,0.2-2.4,0.4-3.5c0.3-1.4,0.7-2.7,1.2-4c0.5-1.3,1.1-2.5,1.8-3.6c0.7-1.1,1.6-2,2.5-2.8c1-0.8,2.1-1.4,3.2-1.7
			c0.3-0.1,0.6-0.1,0.9-0.2c0.1-1.9,0.3-3.8,0.4-5.5c0.2-2.1,0.3-3.9,0.4-5.3c0.1-1,0.5-1.9,1.3-2.6c0.7-0.6,1.5-0.9,2.4-0.9
			c0.1,0,0.2,0,0.3,0c1,0.1,1.9,0.5,2.6,1.3c0.7,0.8,1,1.8,0.9,2.9c-0.3,2.2-0.7,4.4-1,6.7c-0.3,2.3-0.6,4.5-0.8,6.6
			c-0.2,2.1-0.4,4.1-0.5,6c-0.1,1.8-0.1,3.4,0,4.7c0.1,1.3,0.3,2.1,0.4,2.5c0.1-0.1,0.1-0.1,0.2-0.2c0.3-0.4,0.6-0.8,0.9-1.4
			c0.3-0.6,0.6-1.3,0.8-2c0.3-0.8,0.5-1.5,0.7-2.3c0-0.1,0.1-0.5,0.1-0.5c0.1-0.9,0.2-1.6,0.3-2.3c0.3-1.4,0.7-2.7,1.2-4
			c0.5-1.3,1.1-2.5,1.8-3.6c0.7-1.1,1.6-2,2.5-2.8c1-0.8,2.1-1.4,3.2-1.7c0.7-0.2,1.4-0.3,2.1-0.3c0.4,0,0.9,0,1.3,0.1
			c0.9,0.2,1.8,0.6,2.4,1.1c0.6,0.5,1.1,1.2,1.5,1.9c0.3,0.6,0.5,1.3,0.7,1.9c0.3,1.1,0.1,2.1-0.6,3c-0.2,0.2-0.3,0.4-0.5,0.6
			c0.1,0.1,0.3,0.3,0.4,0.4c0.3,0.4,0.5,0.8,0.7,1.3c0.2,0.5,0.2,1.1,0.1,1.7c-0.2,1.1-0.4,2-0.3,2.7c0,0.8,0.1,1.2,0.2,1.4
			c0.3-0.4,0.5-0.8,0.8-1.3c0.3-0.6,0.5-1.2,0.7-2c0.2-0.8,0.4-1.5,0.6-2.2c0.2-0.8,0.3-1.4,0.4-2c0.1-0.6,0.1-1.1,0.2-1.5
			c0-0.9,0.5-1.7,1.3-2.2c0.5-0.4,1.1-0.5,1.7-0.5c0.1,0,0.2,0,0.4,0c0.7,0.1,1.4,0.4,2,1.1c0.4,0.5,0.8,1.3,0.6,2.4
			c-0.1,0.7-0.2,1.4-0.4,2.3c-0.1,0.9-0.3,1.8-0.5,2.7c-0.2,1-0.5,1.9-0.8,2.9c-0.3,1-0.8,1.9-1.2,2.7c-0.5,0.9-1.1,1.6-1.8,2.3
			c-0.8,0.7-1.7,1.2-2.7,1.4c-0.5,0.1-1.1,0.2-1.6,0.2l0,0c-1,0-1.9-0.3-2.7-0.7c-0.4-0.2-0.8-0.5-1.1-0.8c-0.4,0.6-0.9,1.1-1.3,1.6
			c-0.6,0.6-1.2,1-1.8,1.4c-0.7,0.4-1.5,0.7-2.3,0.9c-0.4,0.1-0.8,0.1-1.1,0.1c-1.2,0-2.3-0.4-3.2-1.2c0,0-0.1-0.1-0.1-0.1
			c-0.5,0.7-1,1.2-1.5,1.7c-0.8,0.7-1.7,1.2-2.7,1.4c-0.5,0.1-1.1,0.2-1.6,0.2c-1,0-1.8-0.2-2.5-0.7c-0.3-0.2-0.6-0.5-0.9-0.8
			c-0.4,0.5-0.8,1-1.2,1.5c-0.5,0.5-1.2,1-1.8,1.4c-0.7,0.4-1.5,0.7-2.3,0.9c-0.4,0.1-0.8,0.1-1.1,0.1c-1.2,0-2.3-0.4-3.2-1.2
			c0,0,0,0,0,0c-0.2,0.3-0.4,0.5-0.6,0.7c-1.1,1.2-2.4,2-3.9,2.4c-0.4,0.1-0.9,0.2-1.3,0.2c-0.8,0-1.5-0.2-2.1-0.5
			c-0.9-0.5-1.7-1.2-2.3-2.1c-0.5-0.9-1-1.9-1.3-3c-0.3-1.1-0.4-2.3-0.5-3.4c0-0.7,0-1.4,0-2.1c-0.1,0.2-0.1,0.4-0.2,0.5
			c-0.5,1.3-1,2.6-1.4,3.9c-0.4,1.3-0.8,2.6-1.1,3.9c-0.3,1.2-0.5,2.2-0.7,3.2c0,0.1,0,0.2,0,0.4l-0.1,0.5c0,0.1,0,0.2-0.1,0.2
			c-0.2,0.6-0.6,1-1.1,1.4c-0.5,0.3-1,0.5-1.6,0.5c-0.1,0-0.2,0-0.4,0c-0.8-0.1-1.5-0.5-2-1.1c-0.1-0.1-0.1-0.1-0.2-0.2
			c-0.4,0.4-0.9,0.8-1.3,1.2c-1.3,1-2.8,1.7-4.3,2.1c-0.8,0.2-1.6,0.3-2.3,0.3c-0.6,0-1.2-0.1-1.8-0.2c-1.1-0.3-2-0.7-2.8-1.3
			c-0.1,0.1-0.2,0.3-0.2,0.4c-0.6,0.9-1.2,1.6-1.9,2.3c-0.8,0.7-1.7,1.2-2.7,1.4c-0.5,0.1-1,0.2-1.5,0.2c-0.5,0-0.9-0.1-1.3-0.2
			c-0.9-0.2-1.6-0.7-2.3-1.3c-0.1-0.1-0.2-0.2-0.3-0.3c-0.4,0.6-0.8,1.1-1.2,1.6c-1.1,1.2-2.4,2-3.9,2.4c-0.4,0.1-0.9,0.2-1.3,0.2
			c-0.8,0-1.5-0.2-2.1-0.5c-0.9-0.5-1.7-1.2-2.3-2.1c-0.5-0.9-1-1.9-1.3-3c-0.3-1.1-0.4-2.3-0.5-3.4c0-0.6,0-1.1,0-1.7
			c-0.4,1.1-0.8,2.2-1.1,3.3c-0.4,1.3-0.8,2.5-1.1,3.7c-0.3,1.1-0.5,2.2-0.7,3.2c0,0.1,0,0.1,0,0.2c0,1-0.5,1.9-1.3,2.6
			c-0.7,0.6-1.5,0.9-2.4,0.9c-0.1,0-0.2,0-0.3,0c-1-0.1-1.9-0.5-2.6-1.3c-0.7-0.8-1-1.8-0.9-2.9c0.1-1,0.3-2.1,0.5-3.3
			c0.2-1.1,0.3-2.3,0.4-3.4c0.1-1.2,0.2-2.2,0.2-3.2c0-0.9,0-1.8,0-2.5c0-0.1,0-0.1,0-0.2c-0.3,0.5-0.6,1.2-0.9,2
			c-0.4,1-0.7,2.1-1.1,3.3c-0.3,1.2-0.7,2.4-1,3.7c-0.3,1.2-0.6,2.4-0.8,3.4c-0.2,1.1-0.4,1.9-0.5,2.6c0,0,0,0.1,0,0.1l-0.1,1.1
			c-0.1,0.8-0.4,1.5-1,2c-0.5,0.5-1.2,0.7-1.9,0.7c-0.1,0-0.2,0-0.2,0c-0.9-0.1-1.8-0.6-2.3-1.4c0-0.1-0.1-0.1-0.1-0.2l-0.1-0.1
			c0,0,0-0.1-0.1-0.1c-0.2-0.5-0.3-1-0.2-1.7c0,0,0-0.1,0-0.1l-0.1-3c-0.5,0.1-0.9,0.3-1.4,0.3c-0.1,0.8-0.4,1.5-0.6,2.3
			c-0.4,1.1-0.9,2.2-1.6,3.1c-0.6,0.9-1.4,1.8-2.2,2.4c-0.9,0.7-1.8,1.2-2.8,1.4c-0.6,0.1-1.2,0.2-1.8,0.2c-1.2,0-2.3-0.3-3.2-0.9
			c-0.4-0.2-0.7-0.5-1-0.8c-0.7,0.9-1.6,1.7-2.5,2.4c-1.3,1-2.9,1.7-4.6,2.1c-0.7,0.2-1.3,0.2-2,0.2c-0.3,0-0.7,0-1-0.1
			c-0.9-0.1-1.8-0.4-2.5-0.9c-0.4-0.3-0.9-0.6-1.2-0.9c-0.8,1-1.7,1.9-2.7,2.7c-1.3,1-2.8,1.7-4.3,2.1
			C172.1,398.4,171.3,398.5,170.6,398.5z M185.8,380c-0.1,0.1-0.2,0.3-0.2,0.4c-0.4,1-0.8,2.1-1.2,3.3c-0.3,1-0.5,2-0.6,3
			c-0.1,0.8-0.1,1.4,0.1,1.9c0.2,0.5,0.3,0.5,0.4,0.6c0.2,0.1,0.4,0.1,0.5,0.1c0.1,0,0.2,0,0.4,0c0.9-0.2,1.7-0.6,2.5-1.2
			c0.8-0.6,1.5-1.3,2-2.2c0.6-0.9,1.1-1.9,1.5-3.1c0.1-0.2,0.1-0.4,0.2-0.7l0.1-0.2c0.1-1.1,0.3-2.2,0.5-3.1
			c-0.2,0.6-0.6,1.1-1.1,1.5c-0.7,0.6-1.5,0.9-2.4,0.9c-0.1,0-0.2,0-0.3,0C187.3,381.1,186.4,380.7,185.8,380z M198.1,386.3
			c0.1,0,0.2,0,0.4,0c0.5-0.1,1.1-0.7,1.7-1.7c0.5-0.8,0.8-1.7,1-2.5c-0.6-0.4-1.2-0.8-1.6-1.2c-0.3-0.4-0.6-0.8-0.8-1.1
			c-0.1,0.2-0.1,0.4-0.2,0.5c-0.3,0.7-0.5,1.5-0.6,2.2c-0.1,0.8-0.2,1.5-0.3,2.1C197.7,385.3,197.8,385.9,198.1,386.3
			C198.1,386.3,198.1,386.3,198.1,386.3C198.1,386.3,198.1,386.3,198.1,386.3z M290.8,354.6c-0.1,0.1-0.3,0.3-0.4,0.4
			c-0.8,0.9-1.5,2.4-2.1,4.4c-0.3,0.9-0.5,1.9-0.6,2.8c-0.1,0.9-0.1,1.7-0.1,2.3c0,0.3,0.1,0.6,0.1,0.8c0.3-0.2,0.5-0.4,0.8-0.7
			c0.5-0.7,0.9-1.4,1.2-2.3c0.3-0.9,0.6-1.7,0.8-2.6c0.2-0.8,0.3-1.5,0.3-1.9c0-0.8,0-1.6,0-2.3
			C290.8,355.2,290.8,354.9,290.8,354.6z M310.3,349.8c-0.3,0.2-0.6,0.5-0.8,0.8c-0.8,0.9-1.5,2.4-2.1,4.4c-0.3,1-0.5,1.9-0.6,2.8
			c-0.1,0.9-0.2,1.7-0.1,2.3c0,0.3,0.1,0.6,0.1,0.8c0.3-0.1,0.5-0.4,0.8-0.7c0.5-0.6,0.9-1.3,1.2-2.1c0.3-0.8,0.6-1.6,0.8-2.5
			c0.2-0.9,0.3-1.6,0.4-2.1l0.1-0.7c0-0.1,0-0.1,0-0.2c0.1-0.5,0.3-0.9,0.6-1.3c0.1-0.2,0.3-0.4,0.5-0.6
			C310.8,350.5,310.5,350.2,310.3,349.8z"/>
		<path class="st8" d="M295.8,333.8c0.1,0,0.1,0,0.2,0c0.6,0,1.2,0.3,1.6,0.8c0.4,0.5,0.6,1,0.5,1.6c-0.3,2.2-0.7,4.4-1,6.7
			c-0.3,2.3-0.6,4.5-0.8,6.7c-0.2,2.2-0.4,4.2-0.5,6.1c-0.1,1.9-0.1,3.5,0,4.9c0.1,1.4,0.3,2.4,0.6,3.2c0.3,0.6,0.6,0.9,1.1,0.9
			c0.1,0,0.2,0,0.3,0c0.5-0.1,0.9-0.4,1.3-0.9c0.4-0.5,0.8-1,1.1-1.7c0.3-0.7,0.6-1.4,0.9-2.2c0.3-0.8,0.5-1.6,0.7-2.4
			c0.1-0.2,0.1-0.4,0.1-0.6c0.1-0.7,0.2-1.5,0.3-2.2c0.3-1.3,0.7-2.5,1.1-3.7c0.5-1.2,1-2.3,1.7-3.3c0.7-1,1.4-1.8,2.2-2.5
			c0.8-0.7,1.7-1.1,2.6-1.3c0.6-0.1,1.2-0.2,1.7-0.2c0.3,0,0.7,0,0.9,0.1c0.7,0.2,1.3,0.4,1.8,0.8s0.8,0.8,1.1,1.4
			c0.3,0.5,0.5,1.1,0.6,1.6c0.2,0.7,0,1.3-0.3,1.9c-0.4,0.6-0.9,0.9-1.6,1c-0.1,0-0.2,0-0.3,0c-0.5,0-1-0.2-1.4-0.5
			c-0.5-0.4-0.8-0.9-0.8-1.5c0-0.1,0-0.3,0-0.3c0-0.1,0-0.1-0.1-0.1c0,0,0,0,0,0c-1,0.1-2,0.6-2.9,1.7c-0.9,1.1-1.7,2.7-2.4,4.9
			c-0.3,1-0.6,2-0.7,3.1c-0.1,1-0.2,1.9-0.1,2.6c0.1,0.8,0.2,1.3,0.5,1.8c0.2,0.3,0.5,0.5,0.8,0.5c0.1,0,0.2,0,0.3,0
			c0.8-0.2,1.4-0.6,2-1.3c0.6-0.7,1-1.5,1.4-2.4c0.4-0.9,0.7-1.8,0.9-2.7c0.2-0.9,0.3-1.7,0.4-2.3l0-0.3l0-0.3
			c0.1-0.3,0.2-0.5,0.3-0.7c0.2-0.3,0.5-0.6,0.9-0.8c0.3-0.2,0.7-0.2,1.1-0.2c0,0,0.1,0,0.1,0c0.3,0,0.6,0.1,0.9,0.3
			c0.3,0.2,0.5,0.4,0.7,0.6c0.2,0.2,0.3,0.5,0.4,0.8c0.1,0.3,0.1,0.6,0,0.9c-0.3,1.2-0.4,2.2-0.4,3.1c0,0.8,0.1,1.5,0.3,1.9
			c0.2,0.5,0.4,0.8,0.7,1c0.2,0.1,0.4,0.2,0.6,0.2c0,0,0.1,0,0.1,0c0.4-0.1,0.8-0.4,1.2-0.8c0.4-0.5,0.7-1,1-1.6
			c0.3-0.6,0.6-1.4,0.8-2.2c0.2-0.8,0.4-1.6,0.6-2.3c0.2-0.8,0.3-1.5,0.4-2.1c0.1-0.7,0.1-1.2,0.2-1.6c0-0.5,0.2-0.8,0.6-1.1
			c0.3-0.2,0.6-0.3,0.9-0.3c0.1,0,0.1,0,0.2,0c0.4,0,0.7,0.2,1,0.5c0.3,0.3,0.3,0.7,0.3,1.2c-0.1,0.7-0.2,1.5-0.4,2.3
			c-0.1,0.9-0.3,1.7-0.5,2.6c-0.2,0.9-0.5,1.8-0.8,2.7c-0.3,0.9-0.7,1.7-1.1,2.5c-0.4,0.7-0.9,1.4-1.5,1.9c-0.6,0.5-1.2,0.9-2,1.1
			c-0.4,0.1-0.8,0.2-1.2,0.2c-0.7,0-1.4-0.2-1.9-0.5c-0.9-0.5-1.6-1.3-2.1-2.3c-0.3,0.6-0.6,1.2-1,1.8c-0.4,0.6-0.8,1.1-1.2,1.5
			c-0.5,0.5-1,0.9-1.5,1.2c-0.6,0.3-1.2,0.6-1.9,0.7c-0.3,0.1-0.6,0.1-0.9,0.1c-0.8,0-1.6-0.3-2.2-0.8c-0.5-0.4-0.9-1-1.3-1.6
			c-0.2,0.5-0.5,0.9-0.7,1.3c-0.5,0.8-1,1.4-1.6,1.9c-0.6,0.5-1.3,0.9-2.1,1.1c-0.4,0.1-0.8,0.2-1.2,0.2c-0.7,0-1.2-0.2-1.7-0.5
			c-0.8-0.5-1.4-1.3-1.8-2.4c-0.3,0.6-0.6,1.2-1,1.7c-0.4,0.6-0.8,1.1-1.3,1.5c-0.5,0.5-1,0.8-1.5,1.2s-1.2,0.6-1.8,0.7
			c-0.3,0.1-0.6,0.1-0.8,0.1c-0.8,0-1.6-0.3-2.2-0.8c-0.5-0.4-0.8-0.8-1.1-1.4c-0.4,0.8-0.9,1.6-1.5,2.3c-0.9,1-1.9,1.6-3.1,1.9
			c-0.3,0.1-0.6,0.1-0.9,0.1c-0.5,0-1-0.1-1.4-0.3c-0.7-0.4-1.3-0.9-1.7-1.6c-0.5-0.7-0.8-1.6-1.1-2.6c-0.3-1-0.4-2-0.4-3.1
			c0-1.1,0-2.2,0.2-3.3c0.2-1.1,0.3-2.1,0.5-3c0.2-0.9,0.3-1.6,0.4-2.1c0.1-0.5,0.1-0.8,0-0.8c0,0,0,0,0,0c-0.3,0.1-0.8,0.5-1.2,1.1
			c-0.5,0.7-0.9,1.5-1.5,2.5c-0.5,1-1,2.2-1.5,3.5c-0.5,1.3-1,2.6-1.4,3.9c-0.4,1.3-0.8,2.7-1.1,4c-0.3,1.3-0.6,2.4-0.7,3.5l0,0.1
			l-0.1,0.5c-0.1,0.3-0.3,0.5-0.6,0.7c-0.2,0.1-0.4,0.2-0.7,0.2c-0.1,0-0.1,0-0.2,0c-0.4-0.1-0.7-0.2-1-0.6
			c-0.1-0.1-0.1-0.3-0.2-0.4c0,0,0,0,0,0c0-0.1-0.1-0.2-0.1-0.4c0-0.1,0-0.1,0-0.2l0-2.1c-0.1,0.2-0.2,0.3-0.3,0.5
			c-0.8,1.3-1.8,2.3-3,3.2c-1.1,0.9-2.4,1.5-3.8,1.8c-0.7,0.2-1.3,0.2-1.9,0.2c-0.5,0-1-0.1-1.4-0.2c-1-0.2-1.8-0.7-2.5-1.3
			c-0.4-0.3-0.7-0.7-1-1.2c-0.3,0.8-0.7,1.5-1.1,2.2c-0.5,0.8-1,1.4-1.6,2c-0.6,0.5-1.3,0.9-2.1,1.1c-0.4,0.1-0.8,0.1-1.1,0.1
			c-0.3,0-0.6,0-0.9-0.1c-0.6-0.2-1.2-0.5-1.6-0.9c-0.5-0.5-0.8-1-1.1-1.7c-0.1-0.2-0.2-0.5-0.3-0.7c0,0.1-0.1,0.2-0.1,0.4
			c-0.6,1.3-1.3,2.5-2.1,3.4c-0.9,1-1.9,1.6-3.1,1.9c-0.3,0.1-0.6,0.1-0.9,0.1c-0.5,0-1-0.1-1.4-0.3c-0.7-0.4-1.3-0.9-1.7-1.6
			c-0.5-0.7-0.8-1.6-1.1-2.6c-0.3-1-0.4-2-0.4-3.1c0-1.1,0-2.2,0.2-3.3c0.2-1.1,0.3-2.1,0.5-3s0.3-1.6,0.4-2.1
			c0.1-0.5,0.1-0.8,0-0.8c0,0,0,0,0,0c-0.3,0.1-0.7,0.4-1.2,1c-0.4,0.6-0.9,1.4-1.3,2.4c-0.5,1-0.9,2-1.4,3.2
			c-0.5,1.2-0.9,2.5-1.3,3.7c-0.4,1.3-0.8,2.6-1.1,3.8c-0.3,1.3-0.6,2.4-0.7,3.4c0,0,0,0.1,0,0.1c0,0,0,0,0,0.1
			c0,0.6-0.3,1.1-0.7,1.5c-0.4,0.4-0.9,0.5-1.4,0.5c-0.1,0-0.1,0-0.2,0c-0.6,0-1.2-0.3-1.6-0.8c-0.4-0.5-0.6-1-0.5-1.6
			c0.1-1,0.3-2.1,0.5-3.3c0.2-1.2,0.3-2.3,0.4-3.5c0.1-1.1,0.2-2.2,0.3-3.3c0.1-1,0-1.9,0-2.7c-0.1-0.8-0.2-1.3-0.5-1.7
			c-0.2-0.3-0.4-0.5-0.8-0.5c-0.1,0-0.2,0-0.3,0c-0.4,0.1-0.8,0.5-1.2,1.1c-0.4,0.7-0.8,1.5-1.2,2.5c-0.4,1-0.8,2.2-1.1,3.4
			c-0.4,1.3-0.7,2.5-1,3.7c-0.3,1.2-0.6,2.4-0.8,3.5c-0.2,1.1-0.4,2-0.5,2.7l0,0.1l-0.1,1.2c0,0.4-0.2,0.7-0.5,1
			c-0.3,0.2-0.6,0.3-0.9,0.3c0,0-0.1,0-0.1,0c-0.5,0-0.9-0.3-1.1-0.7l0,0l-0.1-0.2c-0.1-0.2-0.1-0.5-0.1-0.9l0,0l-0.1-5.7
			c-0.5,0.3-1.1,0.6-1.7,0.8c-0.8,0.3-1.6,0.4-2.5,0.5c-0.1,1.1-0.4,2.1-0.7,3.1c-0.4,1-0.8,1.9-1.4,2.7c-0.6,0.8-1.2,1.5-1.9,2.1
			c-0.7,0.6-1.5,0.9-2.3,1.1c-0.5,0.1-1,0.2-1.4,0.2c-0.9,0-1.7-0.2-2.5-0.7c-0.8-0.5-1.5-1.2-1.9-2.1c-0.1,0.2-0.2,0.4-0.3,0.6
			c-0.8,1.3-1.8,2.3-3,3.2c-1.2,0.9-2.5,1.5-4.1,1.9c-0.6,0.1-1.1,0.2-1.6,0.2c-0.3,0-0.5,0-0.8-0.1c-0.8-0.1-1.4-0.3-2-0.7
			c-0.6-0.3-1.1-0.8-1.6-1.3c-0.2-0.3-0.4-0.5-0.6-0.8c-0.2,0.3-0.3,0.6-0.5,0.8c-0.8,1.3-1.8,2.3-3,3.2c-1.1,0.9-2.4,1.5-3.8,1.8
			c-0.7,0.2-1.3,0.2-1.9,0.2c-0.5,0-1-0.1-1.4-0.2c-1-0.2-1.8-0.7-2.5-1.3c-0.7-0.6-1.3-1.4-1.7-2.4c-0.4-0.9-0.6-2-0.7-3.1
			c-0.1-1.4,0.1-2.9,0.5-4.4c0.4-1.6,1-3,1.7-4.4c0.8-1.3,1.6-2.5,2.7-3.5c1-1,2.1-1.6,3.2-1.9c0.3-0.1,0.6-0.1,0.9-0.1
			c0.6,0,1.1,0.2,1.4,0.5c0.6,0.5,0.9,1.1,1.1,1.8c0.3,1.3,0.3,2.5-0.1,3.5c-0.4,1.1-0.9,2-1.6,2.8c-0.7,0.8-1.6,1.5-2.5,2.1
			s-1.9,1-2.7,1.2c-0.1,0.5-0.2,1.2-0.2,2c0,0.8,0,1.6,0.2,2.3c0.2,0.7,0.5,1.3,1,1.7c0.3,0.3,0.7,0.4,1.1,0.4c0.3,0,0.6-0.1,1-0.2
			c1.4-0.4,2.9-1.5,4.4-3.2c1.1-1.2,1.9-3,2.4-5.2c0.1-1.3,0.4-2.6,0.7-3.9c0.3-1.1,0.6-2.1,1-3.1c0.4-1,0.8-1.9,1.4-2.6
			c0.5-0.8,1.1-1.5,1.8-2c0.7-0.5,1.4-0.9,2.2-1.1c0.4-0.1,0.8-0.1,1.1-0.1c0.4,0,0.8,0.1,1.2,0.2c0.7,0.3,1.2,0.6,1.6,1.2
			c0.4,0.5,0.7,1.1,0.9,1.8c0.2,0.7,0.2,1.3,0.1,1.9c-0.1,0.6-0.4,1.1-0.8,1.5c-0.4,0.3-0.9,0.5-1.4,0.5c-0.1,0-0.1,0-0.2,0
			c-0.6,0-1.1-0.3-1.6-0.8c-0.4-0.5-0.6-1.1-0.5-1.7c-0.9,0.7-1.6,1.6-2.1,2.7c-0.5,1.1-0.9,2.3-1.2,3.6c-0.3,1.1-0.5,2.2-0.6,3.2
			c-0.1,1-0.1,1.9,0.2,2.6c0.2,0.7,0.7,1.2,1.2,1.5c0.4,0.2,0.7,0.2,1.1,0.2c0.2,0,0.5,0,0.7-0.1c1.1-0.3,2.1-0.7,3-1.4
			c0.9-0.7,1.7-1.6,2.4-2.6c0.7-1,1.2-2.2,1.6-3.4c0.1-0.3,0.2-0.7,0.3-1.1c0.1-1,0.3-2,0.5-3c0.3-1.2,0.6-2.3,1.1-3.4
			c0.5-1.1,1.1-2.1,1.8-3c0.7-0.9,1.5-1.7,2.5-2.4c0.9-0.7,2-1.1,3.2-1.4c0.2,0,0.3-0.1,0.5-0.1c0.4,0,0.8,0.1,1.2,0.4
			c0.6,0.4,0.9,0.8,1,1.5c0.1,0.3,0,0.7,0,1c-0.1,0.3-0.2,0.6-0.4,0.8c0.4,0.4,0.8,0.8,1,1.3c0.2,0.5,0.4,1,0.5,1.5
			c0.1,0.5,0.2,1.1,0.2,1.6s0,1.1,0,1.6c0.6-0.1,1.1-0.2,1.6-0.4c0.5-0.2,0.9-0.5,1.3-0.8c0.3-0.3,0.6-0.7,0.8-1c0,0,0,0,0-0.1
			l-0.2-7.3c0-0.6,0.3-1.2,0.7-1.6c0.4-0.4,1-0.6,1.6-0.6c0,0,0,0,0,0c0.6,0,1.2,0.3,1.6,0.7c0.4,0.5,0.6,1,0.6,1.6l-0.1,1.1
			c0.6-1.3,1.2-2.4,1.8-3.3c0.7-0.9,1.4-1.4,2.2-1.6c0.4-0.1,0.8-0.2,1.2-0.2c0.3,0,0.6,0,0.8,0.1c0.6,0.1,1.1,0.4,1.6,0.8
			c0.4,0.4,0.8,0.9,1.1,1.6c0.3,0.6,0.6,1.4,0.7,2.1c0.1,0.3,0.1,0.6,0.2,0.9c0,0.3,0.1,0.6,0.1,0.9c0.5-1.2,1-2.4,1.5-3.5
			c0.6-1.1,1.1-2.1,1.7-2.9c0.6-0.8,1.2-1.5,1.8-2s1.2-0.8,1.8-0.8c0.1,0,0.2,0,0.3,0c1.4,0,2.3,0.8,2.8,2.4
			c0.5,1.7,0.5,4.3,0.2,7.7c-0.2,2.4-0.3,4.1-0.2,5.3c0.1,1.1,0.3,1.6,0.7,1.6c0,0,0.1,0,0.1,0c0.5-0.1,0.9-0.4,1.3-0.8
			c0.4-0.5,0.8-1,1.1-1.6c0.3-0.6,0.6-1.3,0.9-1.9s0.4-1.3,0.6-1.8c0.3-1,0.5-1.9,0.7-2.8c0.1-0.3,0.1-0.6,0.1-0.8
			c0-0.6-0.1-1.1-0.1-1.7c0-1.2,0-2.3,0-3.4c0-1.1,0.1-2,0.1-2.7c0-0.6,0.3-1.1,0.7-1.5c0.4-0.4,0.9-0.5,1.4-0.5c0.1,0,0.1,0,0.2,0
			c0.6,0.1,1.2,0.3,1.6,0.8c0.4,0.5,0.6,1,0.5,1.6c-0.2,1-0.3,2.2-0.5,3.3c-0.1,1.2-0.2,2.3-0.3,3.4c-0.1,1.1-0.1,2.2-0.1,3.2
			c0,1,0.1,1.9,0.2,2.6c0.1,0.7,0.3,1.3,0.6,1.7c0.2,0.3,0.5,0.5,0.8,0.5c0.1,0,0.2,0,0.3,0c0.4-0.1,0.8-0.4,1.2-0.8
			c0.4-0.5,0.8-1,1.1-1.7c0.3-0.7,0.7-1.4,0.9-2.2c0.3-0.8,0.5-1.6,0.8-2.4c0-0.2,0.1-0.3,0.1-0.5c0-1.2,0.2-2.4,0.5-3.6
			c0.4-1.6,1-3,1.7-4.4c0.8-1.3,1.6-2.5,2.7-3.5c1-1,2.1-1.6,3.2-1.9c0.3-0.1,0.6-0.1,0.9-0.1c0.6,0,1.1,0.2,1.4,0.5
			c0.6,0.5,0.9,1.1,1.1,1.8c0.3,1.3,0.3,2.5-0.1,3.5c-0.4,1.1-0.9,2-1.6,2.8c-0.7,0.8-1.6,1.5-2.5,2.1c-1,0.6-1.9,1-2.7,1.2
			c-0.1,0.5-0.2,1.2-0.2,2c0,0.8,0,1.6,0.2,2.3c0.2,0.7,0.5,1.3,1,1.7c0.3,0.3,0.7,0.4,1.1,0.4c0.3,0,0.6-0.1,1-0.2
			c1.4-0.4,2.9-1.5,4.4-3.2c1.4-1.7,2.4-4.2,2.9-7.6l-0.1-7c0-0.6,0.3-1.2,0.7-1.6c0.4-0.4,1-0.6,1.6-0.6c0,0,0,0,0,0
			c0.6,0,1.2,0.3,1.6,0.7c0.4,0.5,0.6,1,0.6,1.6l-0.3,4.3c0.5-1.2,1-2.3,1.6-3.3c0.6-1,1.1-1.9,1.7-2.7c0.6-0.8,1.1-1.4,1.7-1.9
			c0.6-0.5,1.1-0.7,1.7-0.8c0.1,0,0.2,0,0.3,0c1.4,0,2.3,0.8,2.7,2.4c0.5,1.7,0.5,4.3,0.2,7.7c-0.2,2.4-0.3,4.1-0.2,5.3
			c0.1,1.1,0.3,1.6,0.7,1.6c0,0,0.1,0,0.1,0c0.5-0.1,0.9-0.4,1.3-0.8c0.4-0.5,0.8-1,1.1-1.6c0.3-0.6,0.6-1.3,0.9-1.9
			c0.3-0.7,0.4-1.3,0.6-1.8c0-0.1,0.1-0.2,0.1-0.3c0-1.2,0.2-2.3,0.4-3.4c0.3-1.3,0.7-2.5,1.1-3.7c0.5-1.2,1-2.3,1.7-3.3
			c0.7-1,1.4-1.8,2.2-2.5c0.8-0.7,1.7-1.1,2.6-1.3c0.4-0.1,0.7-0.1,1.1-0.2c0.3,0,0.5,0,0.7,0c0.1,0,0.1,0,0.2,0
			c0.2-2.4,0.3-4.7,0.5-6.8c0.2-2.1,0.3-3.9,0.4-5.4c0-0.6,0.3-1.1,0.8-1.5C294.7,334,295.2,333.8,295.8,333.8 M287.4,366.9
			c0.1,0,0.2,0,0.3,0c0.8-0.2,1.5-0.7,2.1-1.4c0.6-0.8,1.1-1.6,1.4-2.6c0.4-1,0.7-1.9,0.8-2.8c0.2-0.9,0.3-1.7,0.4-2.2
			c0-0.8,0-1.6,0-2.4c0-0.8,0-1.6,0.1-2.5c0,0,0,0,0-0.1s0-0.1,0-0.1c0-0.1,0-0.3,0-0.3c0-0.1,0-0.1-0.1-0.1c0,0,0,0,0,0
			c-1,0.1-2,0.6-2.9,1.7c-0.9,1.1-1.7,2.7-2.4,4.9c-0.3,1-0.6,2.1-0.7,3.1c-0.1,1-0.2,1.9-0.1,2.6c0.1,0.8,0.2,1.3,0.5,1.8
			C286.8,366.8,287,366.9,287.4,366.9 M254.3,364.6c0.5-0.2,1-0.6,1.6-1.1c0.6-0.5,1-1,1.3-1.5c0.4-0.7,0.6-1.4,0.7-2
			c0.1-0.6,0-1-0.2-1c0,0-0.1,0-0.1,0c-0.3,0-0.6,0.2-0.9,0.6c-0.4,0.5-0.7,1-1.1,1.7c-0.3,0.6-0.6,1.3-0.8,1.9
			C254.6,363.7,254.4,364.2,254.3,364.6 M203.2,378.1c0-0.2,0-0.5,0-0.8c0-0.3,0-0.6,0-0.9c0-0.4-0.1-0.7-0.2-1
			c-0.1-0.2-0.2-0.4-0.2-0.4c0,0,0,0,0,0c-0.1,0-0.1,0.2-0.2,0.5c-0.1,0.4-0.1,0.7,0,1.1C202.5,377.4,202.8,377.9,203.2,378.1
			 M198.1,387.8c0.2,0,0.4,0,0.7-0.1c1-0.2,1.9-1,2.7-2.4c0.8-1.4,1.3-2.8,1.4-4.2c-0.9-0.3-1.6-0.8-2.1-1.3s-0.8-1.1-1-1.7
			c-0.2-0.6-0.3-1.1-0.3-1.5c0-0.5,0-0.8,0-1l0-0.2c-0.5,0.6-1,1.3-1.4,2c-0.4,0.7-0.7,1.5-1,2.3c-0.3,0.8-0.5,1.6-0.7,2.4
			c-0.2,0.8-0.3,1.6-0.3,2.3c0,1.1,0.1,1.9,0.5,2.6C197,387.5,197.5,387.8,198.1,387.8 M169.7,384.4c0.5-0.2,1-0.6,1.6-1.1
			c0.6-0.5,1-1,1.3-1.5c0.4-0.7,0.6-1.4,0.7-2c0.1-0.6,0-1-0.2-1c0,0-0.1,0-0.1,0c-0.3,0-0.6,0.2-0.9,0.6c-0.4,0.5-0.7,1-1.1,1.7
			c-0.3,0.6-0.6,1.3-0.8,1.9C169.9,383.5,169.8,384,169.7,384.4 M295.8,330.8C295.8,330.8,295.8,330.8,295.8,330.8
			c-1.3,0-2.4,0.4-3.4,1.3c-1,0.9-1.7,2.2-1.8,3.6c0,0,0,0,0,0.1c-0.1,1.4-0.2,3.2-0.4,5.3c-0.1,1.4-0.3,2.9-0.4,4.4
			c-1.3,0.3-2.6,1-3.7,1.9c-1,0.9-1.9,1.9-2.7,3.1c-0.8,1.2-1.5,2.5-2,3.9c-0.1,0.3-0.2,0.6-0.3,1c-0.1-0.6-0.2-1.1-0.3-1.6
			c-0.8-2.9-2.9-4.6-5.6-4.6c-0.2,0-0.4,0-0.6,0c0,0,0,0-0.1,0c-1.1,0.1-2.2,0.6-3.3,1.4c-0.6,0.5-1.2,1.1-1.7,1.8
			c-0.9-0.7-2-1.1-3.1-1.2c0,0-0.1,0-0.1,0c-1.4,0-2.6,0.5-3.6,1.4c-0.5,0.5-0.9,1.1-1.2,1.7c-0.9-0.8-2.1-1.2-3.3-1.2
			c-0.5,0-1,0.1-1.6,0.2c-1.6,0.4-3.2,1.3-4.6,2.6c-1.2,1.2-2.3,2.6-3.2,4.2c-0.9,1.6-1.6,3.3-2,5.1c-0.1,0.5-0.2,1-0.3,1.5
			c0-0.2,0.1-0.5,0.1-0.7c0.1-1.1,0.3-2.2,0.4-3.2c0.3-1.5-0.2-3-1.2-4.1c-0.9-1-2.2-1.7-3.6-1.8c-0.2,0-0.3,0-0.4,0
			c-1.3,0-2.4,0.4-3.4,1.3c-1.1,1-1.7,2.2-1.8,3.7c0,0.4,0,0.8,0,1.2c-1-2.3-2.9-3.6-5.3-3.6c-0.2,0-0.4,0-0.6,0c0,0-0.1,0-0.1,0
			c-1.2,0.1-2.3,0.6-3.4,1.5c-0.8,0.7-1.6,1.5-2.3,2.6c-0.2,0.2-0.3,0.5-0.5,0.7c-0.1-0.1-0.3-0.3-0.4-0.4c-0.8-0.8-1.8-1.3-2.9-1.5
			c-0.5-0.1-1-0.2-1.5-0.2c-0.6,0-1.3,0.1-1.9,0.2c-1.2,0.3-2.3,0.9-3.2,1.9c-0.7-0.3-1.4-0.5-2.2-0.5c0,0-0.1,0-0.1,0
			c-1.4,0-2.6,0.5-3.6,1.4c-0.8,0.8-1.4,1.8-1.6,2.9c-0.4-0.5-0.8-0.9-1.4-1.3c-0.9-0.6-1.9-0.9-2.9-0.9c-0.4,0-0.8,0-1.2,0.1
			c-1.5,0.4-3,1-4.2,1.9c-1.2,0.8-2.2,1.9-3.1,3c-0.5,0.6-0.9,1.3-1.3,1.9c-0.2-0.3-0.3-0.5-0.5-0.8c-0.7-0.9-1.7-1.6-2.8-2
			c-0.7-0.3-1.5-0.4-2.3-0.4c-0.6,0-1.2,0.1-1.8,0.2c-1.2,0.3-2.4,0.9-3.4,1.7c-0.9,0.7-1.7,1.6-2.4,2.6c-0.4,0.6-0.8,1.2-1.1,1.9
			c-0.4-0.8-0.9-1.5-1.6-2.1c-0.9-0.8-2.1-1.2-3.4-1.2c-0.5,0-1,0.1-1.6,0.2c-1.6,0.4-3.2,1.3-4.6,2.6c-1.2,1.2-2.3,2.6-3.2,4.2
			c-0.9,1.6-1.6,3.3-2,5.1c-0.5,1.9-0.7,3.7-0.6,5.4c0.1,1.5,0.4,2.8,0.9,4.1c0.6,1.3,1.4,2.5,2.4,3.4c1.1,1,2.4,1.6,3.9,2
			c0.7,0.2,1.4,0.2,2.1,0.2c0.8,0,1.7-0.1,2.6-0.3c1.8-0.4,3.4-1.2,4.9-2.4c0.7-0.5,1.4-1.2,2-1.8c0.1,0.1,0.2,0.1,0.2,0.1
			c0.9,0.5,2,0.9,3.1,1c0.4,0.1,0.8,0.1,1.2,0.1c0.7,0,1.5-0.1,2.3-0.3c1.9-0.5,3.7-1.3,5.2-2.4c0.6-0.5,1.2-1,1.8-1.6c0,0,0,0,0,0
			c1.2,0.8,2.6,1.1,4,1.1c0.7,0,1.4-0.1,2.1-0.3c1.2-0.3,2.4-0.8,3.4-1.7c1-0.7,1.8-1.7,2.5-2.7c0.4-0.5,0.7-1.1,1-1.7
			c0.1,0.2,0.1,0.4,0.2,0.6c0,0.1,0.1,0.2,0.1,0.3l0,0.1c0.1,0.1,0.1,0.2,0.2,0.3c0.8,1.2,2,2,3.4,2.1c0.1,0,0.2,0,0.3,0
			c1.1,0,2.1-0.4,2.9-1.1c0.9-0.8,1.4-1.9,1.5-3l0.1-1.1c0,0,0,0,0,0c0-0.3,0.1-0.7,0.2-1.1c0.2,0.8,0.6,1.6,1.2,2.3
			c0.9,1,2.2,1.7,3.6,1.8c0.1,0,0.3,0,0.4,0c1.3,0,2.4-0.4,3.4-1.3c1.1-1,1.7-2.2,1.8-3.7c0,0,0-0.1,0-0.1c0,0,0,0,0-0.1
			c0.1-0.9,0.3-1.8,0.6-2.9c0.1-0.2,0.1-0.4,0.2-0.6c0.3,0.8,0.6,1.5,1.1,2.1c0.8,1.2,1.7,2.1,2.9,2.7c0.9,0.4,1.8,0.7,2.8,0.7
			c0.5,0,1.1-0.1,1.6-0.2c1.9-0.4,3.4-1.4,4.7-2.8c0.1-0.1,0.2-0.3,0.4-0.4c0.6,0.4,1.2,0.7,1.9,0.8c0.5,0.1,1.1,0.2,1.7,0.2
			c0.6,0,1.2-0.1,1.8-0.2c1.3-0.3,2.4-0.9,3.4-1.8c0.6-0.5,1.1-1.1,1.6-1.7c0.6,0.3,1.3,0.6,2,0.7c0.7,0.2,1.4,0.2,2.1,0.2
			c0.8,0,1.7-0.1,2.6-0.3c1.8-0.4,3.4-1.2,4.9-2.4c0.1-0.1,0.2-0.2,0.3-0.3c0.6,0.4,1.3,0.7,2,0.8c0,0,0,0,0.1,0c0.2,0,0.4,0,0.5,0
			c0.9,0,1.7-0.2,2.4-0.7c0.7-0.5,1.3-1.2,1.7-2c0.1-0.2,0.1-0.3,0.2-0.5l0.1-0.5c0-0.2,0.1-0.4,0.1-0.6c0.1-0.8,0.3-1.8,0.6-2.9
			c0.2-0.6,0.3-1.2,0.5-1.8c0.3,1,0.7,1.8,1.2,2.6c0.7,1.2,1.7,2.1,2.9,2.7c0.9,0.4,1.8,0.7,2.8,0.7c0.5,0,1.1-0.1,1.6-0.2
			c1.7-0.4,3.2-1.3,4.5-2.6c0.9,0.5,1.9,0.7,2.9,0.7c0.5,0,0.9,0,1.4-0.1c1-0.2,1.9-0.5,2.8-1c0.8-0.5,1.5-1,2.1-1.6
			c0.1-0.1,0.3-0.3,0.4-0.4c0.9,0.6,2,0.9,3.2,0.9c0.6,0,1.3-0.1,1.9-0.2c1.3-0.3,2.4-0.9,3.4-1.8c0.3-0.3,0.6-0.5,0.8-0.8
			c0.9,0.5,1.9,0.7,3,0.7c0.5,0,0.9,0,1.4-0.1c1-0.2,2-0.6,2.8-1c0.8-0.5,1.5-1,2.2-1.7c0.2-0.2,0.4-0.4,0.6-0.6c0,0,0,0,0,0
			c1,0.6,2.2,1,3.5,1c0.6,0,1.3-0.1,1.9-0.2c1.3-0.3,2.4-0.9,3.4-1.8c0.8-0.7,1.5-1.6,2.1-2.6c0.5-0.9,1-1.9,1.4-3
			c0.3-1,0.6-2,0.9-3c0.2-1,0.4-1.9,0.5-2.9c0.1-0.8,0.3-1.6,0.4-2.3c0.2-1.3-0.1-2.6-0.9-3.6c-0.8-0.9-1.8-1.5-3-1.6
			c-0.2,0-0.3,0-0.5,0c-0.9,0-1.7,0.3-2.5,0.8c-0.6,0.4-1.1,0.9-1.4,1.5c0-0.1,0-0.3-0.1-0.4c-0.2-0.7-0.4-1.5-0.8-2.2
			c-0.5-0.9-1.1-1.7-1.9-2.4c-0.8-0.7-1.9-1.2-3-1.4c-0.5-0.1-1-0.2-1.6-0.2c-0.7,0-1.6,0.1-2.4,0.3c-1.4,0.3-2.7,1-3.9,2
			c-1,0.8-1.9,1.9-2.7,3.1c-0.8,1.2-1.5,2.5-2,3.9c-0.5,1.3-0.9,2.7-1.3,4.1c0,0,0,0,0,0.1c-0.1,0.7-0.3,1.5-0.3,2.3
			c0,0.1-0.1,0.2-0.1,0.3c0,0.1-0.1,0.2-0.1,0.3c0-0.4,0-0.8,0.1-1.2c0.1-1.8,0.3-3.8,0.5-5.9c0.2-2.1,0.5-4.3,0.8-6.6
			c0.3-2.3,0.6-4.5,1-6.7c0.2-1.5-0.2-3-1.2-4.1c-1-1-2.2-1.7-3.6-1.8C296,330.8,295.9,330.8,295.8,330.8L295.8,330.8z M256.4,370.1
			c0.5-0.2,0.9-0.5,1.4-0.7c0.5-0.3,1.1-0.7,1.6-1.1c-0.2,0.3-0.3,0.5-0.5,0.7c-1.1,1.3-1.9,1.8-2.4,2.1
			C256.3,370.8,256.3,370.5,256.4,370.1C256.3,370.1,256.4,370.1,256.4,370.1L256.4,370.1z M185.3,387.8c0-0.2,0-0.5,0-0.8
			c0.1-0.9,0.3-1.8,0.5-2.8c0.2-0.7,0.4-1.3,0.6-1.9c0.5,0.2,1.1,0.3,1.6,0.4c0.2,0,0.3,0,0.4,0c0.4,0,0.8,0,1.2-0.1
			c-0.3,0.9-0.7,1.8-1.2,2.6c-0.5,0.7-1.1,1.4-1.7,1.9C186.4,387.3,185.9,387.6,185.3,387.8L185.3,387.8z M171.7,389.9
			c0.5-0.2,0.9-0.5,1.4-0.7c0.5-0.3,1.1-0.7,1.6-1.1c-0.2,0.3-0.3,0.5-0.5,0.7c-1.1,1.3-1.9,1.8-2.4,2.1
			C171.7,390.6,171.7,390.3,171.7,389.9C171.7,389.9,171.7,389.9,171.7,389.9L171.7,389.9z"/>
	</g>
</g>
<path class="st10" d="M163.7,375.3c-0.2-1.3-0.7-2.4-1.3-3.5c-0.6-1.1-1.5-1.9-2.5-2.6c-1-0.7-2.2-1.2-3.6-1.4
	c-1.4-0.2-3-0.2-4.7,0.3c-0.9,0.2-1.8,0.6-2.8,1.1s-2,1.1-3,1.9c-1,0.7-1.9,1.6-2.8,2.5c-0.9,1-1.6,2-2.1,3.1
	c-0.8,1.5-1.3,3.1-1.6,4.8c-0.3,1.7-0.2,3.5,0.3,5.5c0.1,0.6,0.5,1.1,1,1.4c0.5,0.3,1.1,0.4,1.7,0.3c0.6-0.2,1.1-0.5,1.4-1
	c0.3-0.5,0.4-1.1,0.3-1.7c-0.5-1.9-0.5-3.7,0-5.4c0.5-1.6,1.2-3.1,2.1-4.3c1-1.2,2-2.3,3.3-3.1c1.2-0.8,2.4-1.3,3.5-1.6
	c1.1-0.3,2.1-0.3,2.9-0.2c0.8,0.1,1.5,0.4,2.1,0.8c0.6,0.4,1.1,0.9,1.5,1.6c0.4,0.6,0.7,1.3,0.8,2c0.3,1.1,0.3,2.3,0.1,3.6
	c-0.2,1.3-0.6,2.6-1.4,3.8c-0.7,1.3-1.7,2.4-3,3.5c-1.3,1-2.9,1.8-4.8,2.4c0-1.2,0.1-2.3,0.1-3.4c0-1.1,0-2.1,0-3.1
	c0-1.5,0.1-2.8,0.2-3.8c0.2-1,0.4-1.6,0.8-1.7c0.3-0.1,0.5-0.3,0.7-0.6s0.3-0.7,0.2-1c-0.1-0.4-0.3-0.7-0.6-0.9
	c-0.3-0.2-0.7-0.3-1.1-0.3c-0.7,0.1-1.4,0.4-1.9,0.9c-0.5,0.5-0.9,1.1-1.2,1.9c-0.3,0.8-0.5,1.7-0.7,2.8c-0.1,1.1-0.2,2.3-0.2,3.5
	c0,0.9,0,1.8,0,2.7c0,0.9,0,1.9,0,2.9c0,1-0.1,2-0.2,3.1c-0.1,1.1-0.3,2.1-0.5,3.2c-0.4,1.5-1,2.8-1.9,3.9c-0.9,1-2.1,1.8-3.7,2.1
	c-0.5,0.1-1,0.1-1.6,0.1c-0.6-0.1-1.1-0.2-1.6-0.5c-0.5-0.2-0.9-0.6-1.3-1c-0.4-0.4-0.6-0.9-0.8-1.6c-0.1-0.4-0.1-0.9-0.1-1.3
	c0.1-0.5,0.2-0.9,0.4-1.3c0.2-0.4,0.6-0.8,1-1.1c0.4-0.3,1-0.6,1.6-0.7c0.4-0.1,0.7-0.1,0.9,0c0.2,0.1,0.4,0.2,0.5,0.4
	c0.1,0.2,0.2,0.4,0.2,0.7c0,0.2,0.1,0.4,0.1,0.6c0.2,0.6,0.6,1,1.1,1.3c0.6,0.3,1.1,0.4,1.7,0.2c0.6-0.2,1-0.6,1.3-1.1
	c0.3-0.6,0.4-1.1,0.2-1.7c-0.2-0.9-0.6-1.6-1-2.2c-0.4-0.6-1-1-1.6-1.4c-0.6-0.3-1.2-0.6-1.9-0.6c-0.7-0.1-1.4,0-2.2,0.1
	c-0.7,0.2-1.5,0.5-2.2,1c-0.8,0.5-1.4,1.2-1.9,1.9c-0.5,0.7-0.9,1.5-1.1,2.4c-0.2,0.9-0.2,2,0.1,3.3c0.2,0.9,0.6,1.7,1.1,2.4
	c0.5,0.7,1.2,1.3,2,1.8c0.8,0.5,1.7,0.8,2.6,1c1,0.2,2,0.1,3.1-0.1c1.9-0.4,3.5-1.2,4.8-2.3c1.3-1.1,2.3-2.6,2.9-4.5
	c0.3-0.8,0.5-1.7,0.7-2.5c0.2-0.9,0.3-1.8,0.4-2.7c0.9-0.1,1.7-0.1,2.2,0.1c0.6,0.2,1,0.5,1.4,1c0.3,0.4,0.6,1,0.8,1.7
	c0.2,0.7,0.3,1.4,0.5,2.1c0.1,0.8,0.3,1.6,0.4,2.4c0.2,0.8,0.4,1.6,0.7,2.4c0.3,0.7,0.6,1.2,1,1.8c0.4,0.5,0.9,0.9,1.5,1.2
	c0.6,0.3,1.3,0.4,2.1,0.4c0.8,0,1.8-0.2,2.8-0.6c0.6-0.2,1-0.6,1.2-1.2c0.2-0.6,0.2-1.2-0.1-1.7c-0.3-0.6-0.7-1-1.2-1.2
	c-0.6-0.2-1.1-0.2-1.7,0c-0.3,0.1-0.6,0.2-0.9,0.4s-0.6,0.1-0.7,0c-0.3-0.3-0.5-0.8-0.7-1.5c-0.2-0.7-0.4-1.5-0.6-2.3
	c-0.2-0.8-0.4-1.7-0.7-2.6c-0.3-0.9-0.6-1.7-1.1-2.4c-0.3-0.4-0.5-0.7-0.8-1c-0.3-0.3-0.6-0.6-0.9-0.8c1.6-0.9,3-1.9,4-3.1
	c1.1-1.1,1.9-2.3,2.5-3.5c0.7-1.3,1.1-2.6,1.3-4C164,377.9,163.9,376.6,163.7,375.3z"/>
<path class="st10" d="M241,358.9c0.4,0.2,0.7,0.2,1.1,0.1c0.2,0,0.4-0.1,0.4-0.2c0.4-0.2,0.7-0.5,0.9-0.9c0.2-0.4,0.4-0.7,0.5-1
	c0.1-0.3,0.1-0.6,0.2-1.1c0-0.4,0-0.8-0.2-1.3c-0.2-0.6-0.6-1-1.2-1.3c-0.5-0.3-1.1-0.3-1.8-0.2c-0.5,0.1-0.8,0.4-1.1,0.8
	s-0.3,0.9-0.2,1.4c0.1,0.4,0.3,0.7,0.6,1c-0.2,0.3-0.3,0.6-0.3,0.9c0,0.3,0.1,0.7,0.2,1C240.3,358.5,240.6,358.7,241,358.9z"/>
<path class="st10" d="M323.4,348.5c-0.3-0.3-0.6-0.5-1-0.5c-0.3,0-0.7,0-1,0.3c-0.4,0.2-0.6,0.6-0.6,1.1c0,0.4-0.1,1-0.2,1.6
	c-0.1,0.7-0.2,1.4-0.4,2.1c-0.2,0.8-0.4,1.5-0.6,2.3c-0.2,0.8-0.5,1.5-0.8,2.2c-0.3,0.6-0.6,1.2-1,1.6s-0.8,0.7-1.2,0.8
	c-0.2,0-0.4,0-0.7-0.2c-0.3-0.2-0.5-0.5-0.7-1c-0.2-0.5-0.3-1.1-0.3-1.9c0-0.8,0.1-1.8,0.4-3.1c0.1-0.3,0.1-0.6,0-0.9
	c-0.1-0.3-0.2-0.6-0.4-0.8c-0.2-0.2-0.4-0.5-0.7-0.6c-0.3-0.2-0.6-0.2-0.9-0.3c-0.4,0-0.8,0.1-1.2,0.2c-0.4,0.2-0.7,0.4-0.9,0.8
	c-0.1,0.2-0.3,0.5-0.3,0.7l0,0.3l0,0.3c-0.1,0.6-0.2,1.3-0.4,2.3c-0.2,0.9-0.5,1.8-0.9,2.7c-0.4,0.9-0.9,1.7-1.4,2.4s-1.2,1.2-2,1.3
	c-0.4,0.1-0.8-0.1-1-0.5c-0.3-0.4-0.4-1-0.5-1.8c-0.1-0.8,0-1.6,0.1-2.6c0.1-1,0.4-2,0.7-3.1c0.7-2.2,1.5-3.8,2.4-4.9
	c0.9-1.1,1.9-1.6,2.9-1.7c0.1,0,0.2,0,0.2,0.1c0,0.1,0,0.2,0,0.3c0.1,0.6,0.3,1.1,0.8,1.5c0.5,0.4,1,0.5,1.7,0.5
	c0.7-0.1,1.2-0.4,1.6-1c0.4-0.6,0.5-1.2,0.3-1.9c-0.1-0.5-0.3-1-0.6-1.6c-0.3-0.5-0.6-1-1.1-1.4c-0.5-0.4-1.1-0.7-1.8-0.8
	c-0.7-0.2-1.6-0.1-2.7,0.1c-0.9,0.2-1.8,0.7-2.6,1.3c-0.8,0.7-1.5,1.5-2.2,2.5s-1.2,2.1-1.7,3.3c-0.5,1.2-0.8,2.5-1.1,3.7
	c-0.2,0.7-0.2,1.5-0.3,2.2c0,0.2-0.1,0.4-0.1,0.6c-0.2,0.8-0.4,1.6-0.7,2.4c-0.3,0.8-0.6,1.5-0.9,2.2c-0.3,0.7-0.7,1.2-1.1,1.7
	c-0.4,0.5-0.8,0.8-1.3,0.9c-0.6,0.1-1-0.2-1.3-0.9s-0.5-1.8-0.6-3.2c-0.1-1.4-0.1-3,0-4.9c0.1-1.9,0.3-3.9,0.5-6.1
	c0.2-2.2,0.5-4.4,0.8-6.7c0.3-2.3,0.6-4.5,1-6.7c0.1-0.6-0.1-1.2-0.5-1.6c-0.4-0.5-1-0.7-1.6-0.8c-0.6-0.1-1.2,0.1-1.6,0.5
	c-0.5,0.4-0.7,0.9-0.8,1.5c-0.1,1.4-0.2,3.2-0.4,5.4c-0.2,2.1-0.4,4.4-0.5,6.8c-0.3,0-0.6,0-0.9,0c-0.3,0-0.7,0.1-1.1,0.2
	c-0.9,0.2-1.8,0.7-2.6,1.3c-0.8,0.7-1.5,1.5-2.2,2.5c-0.7,1-1.2,2.1-1.7,3.3c-0.5,1.2-0.8,2.5-1.1,3.7c-0.2,1.1-0.4,2.2-0.4,3.4
	c0,0.1-0.1,0.2-0.1,0.3c-0.1,0.5-0.3,1.2-0.6,1.8c-0.3,0.7-0.5,1.3-0.9,1.9c-0.3,0.6-0.7,1.2-1.1,1.6c-0.4,0.5-0.8,0.7-1.3,0.8
	c-0.4,0.1-0.6-0.5-0.8-1.6c-0.1-1.2-0.1-3,0.2-5.3c0.3-3.4,0.2-5.9-0.2-7.7c-0.5-1.7-1.5-2.5-3.1-2.4c-0.6,0.1-1.1,0.3-1.7,0.8
	c-0.6,0.5-1.2,1.1-1.7,1.9c-0.6,0.8-1.1,1.7-1.7,2.7c-0.6,1-1.1,2.1-1.6,3.3l0.3-4.3c0.1-0.6-0.1-1.1-0.6-1.6
	c-0.4-0.5-1-0.7-1.6-0.7c-0.6,0-1.1,0.2-1.6,0.6c-0.4,0.4-0.7,0.9-0.7,1.6l0.1,7c-0.5,3.4-1.5,6-2.9,7.6c-1.5,1.8-3,2.8-4.4,3.2
	c-0.9,0.3-1.7,0.2-2.2-0.2c-0.5-0.4-0.8-1-1-1.7c-0.2-0.7-0.3-1.5-0.2-2.3c0-0.8,0.1-1.5,0.2-2c0.9-0.2,1.8-0.7,2.7-1.2
	c1-0.6,1.8-1.2,2.5-2.1c0.7-0.8,1.3-1.8,1.6-2.8c0.4-1.1,0.4-2.2,0.1-3.5c-0.2-0.7-0.5-1.3-1.1-1.8c-0.6-0.5-1.4-0.6-2.4-0.4
	c-1.1,0.3-2.2,0.9-3.2,1.9c-1,1-1.9,2.1-2.7,3.5c-0.8,1.3-1.3,2.8-1.7,4.4c-0.3,1.3-0.5,2.4-0.5,3.6c0,0.2-0.1,0.3-0.1,0.5
	c-0.2,0.8-0.5,1.6-0.8,2.4c-0.3,0.8-0.6,1.5-0.9,2.2c-0.3,0.7-0.7,1.2-1.1,1.7c-0.4,0.5-0.8,0.7-1.2,0.8c-0.4,0.1-0.8,0-1.1-0.5
	c-0.3-0.4-0.5-1-0.6-1.7c-0.1-0.7-0.2-1.6-0.2-2.6c0-1,0-2.1,0.1-3.2c0.1-1.1,0.2-2.3,0.3-3.4c0.1-1.2,0.3-2.3,0.5-3.3
	c0.1-0.6-0.1-1.2-0.5-1.6c-0.4-0.5-1-0.7-1.6-0.8c-0.6,0-1.2,0.1-1.6,0.5c-0.5,0.4-0.7,0.9-0.7,1.5c0,0.7-0.1,1.6-0.1,2.7
	c0,1.1,0,2.2,0,3.4c0,0.5,0.1,1.1,0.1,1.7c0,0.3-0.1,0.5-0.1,0.8c-0.2,0.9-0.4,1.8-0.7,2.8c-0.1,0.6-0.3,1.2-0.6,1.8
	c-0.3,0.7-0.5,1.3-0.9,1.9c-0.3,0.6-0.7,1.2-1.1,1.6c-0.4,0.5-0.8,0.7-1.3,0.8c-0.4,0.1-0.6-0.5-0.8-1.6c-0.1-1.2-0.1-3,0.2-5.3
	c0.3-3.4,0.2-6-0.2-7.7c-0.5-1.7-1.5-2.5-3.1-2.4c-0.6,0.1-1.2,0.3-1.8,0.8c-0.6,0.5-1.2,1.2-1.8,2c-0.6,0.8-1.1,1.8-1.7,2.9
	c-0.6,1.1-1.1,2.3-1.5,3.5c0-0.3-0.1-0.6-0.1-0.9c0-0.3-0.1-0.6-0.2-0.9c-0.2-0.8-0.4-1.5-0.7-2.1c-0.3-0.6-0.7-1.2-1.1-1.6
	c-0.4-0.4-1-0.7-1.6-0.8c-0.6-0.1-1.3-0.1-2.1,0.1c-0.8,0.2-1.5,0.7-2.2,1.6c-0.7,0.9-1.3,2-1.8,3.3l0.1-1.1
	c0.1-0.6-0.1-1.1-0.6-1.6c-0.4-0.5-1-0.7-1.6-0.7c-0.6,0-1.1,0.2-1.6,0.6c-0.4,0.4-0.7,0.9-0.7,1.6l0.2,7.3c0,0,0,0,0,0.1
	c-0.2,0.4-0.5,0.7-0.8,1c-0.3,0.3-0.8,0.6-1.3,0.8c-0.5,0.2-1,0.4-1.6,0.4c0-0.5,0-1.1,0-1.6c0-0.5-0.1-1.1-0.2-1.6
	c-0.1-0.5-0.3-1-0.5-1.5c-0.2-0.5-0.6-0.9-1-1.3c0.2-0.2,0.3-0.5,0.4-0.8c0.1-0.3,0.1-0.6,0-1c-0.1-0.6-0.4-1.1-1-1.5
	c-0.6-0.4-1.1-0.5-1.8-0.3c-1.2,0.3-2.2,0.7-3.2,1.4c-0.9,0.7-1.8,1.5-2.5,2.4c-0.7,0.9-1.3,1.9-1.8,3c-0.5,1.1-0.9,2.2-1.1,3.4
	c-0.2,1-0.4,2-0.5,3c-0.1,0.4-0.2,0.7-0.3,1.1c-0.4,1.3-1,2.4-1.6,3.4c-0.7,1-1.5,1.9-2.4,2.6c-0.9,0.7-1.9,1.2-3,1.4
	c-0.7,0.2-1.3,0.1-1.9-0.2c-0.6-0.3-1-0.7-1.2-1.5c-0.2-0.7-0.3-1.5-0.2-2.6c0.1-1,0.3-2.1,0.6-3.2c0.3-1.3,0.7-2.5,1.2-3.6
	c0.5-1.1,1.2-2,2.1-2.7c-0.1,0.7,0.1,1.2,0.5,1.7c0.4,0.5,0.9,0.7,1.6,0.8c0.6,0.1,1.2-0.1,1.6-0.5c0.5-0.4,0.7-0.9,0.8-1.5
	c0.1-0.6,0.1-1.3-0.1-1.9s-0.5-1.2-0.9-1.8c-0.4-0.5-1-0.9-1.6-1.2c-0.7-0.3-1.4-0.3-2.3-0.1c-0.8,0.2-1.5,0.6-2.2,1.1
	c-0.7,0.5-1.3,1.2-1.8,2s-1,1.7-1.4,2.6c-0.4,1-0.7,2-1,3.1c-0.3,1.3-0.5,2.6-0.7,3.9c-0.6,2.2-1.4,4-2.4,5.2
	c-1.5,1.8-3,2.8-4.4,3.2c-0.9,0.3-1.7,0.2-2.2-0.2c-0.5-0.4-0.8-1-1-1.7c-0.2-0.7-0.3-1.5-0.2-2.3c0-0.8,0.1-1.5,0.2-2
	c0.9-0.2,1.8-0.7,2.7-1.2c1-0.6,1.8-1.2,2.5-2.1c0.7-0.8,1.3-1.8,1.6-2.8c0.4-1.1,0.4-2.2,0.1-3.5c-0.2-0.7-0.5-1.3-1.1-1.8
	c-0.6-0.5-1.4-0.6-2.4-0.4c-1.1,0.3-2.2,0.9-3.2,1.9c-1,1-1.9,2.1-2.7,3.5c-0.8,1.3-1.3,2.8-1.7,4.4c-0.4,1.6-0.6,3-0.5,4.4
	c0.1,1.1,0.3,2.1,0.7,3.1c0.4,0.9,1,1.7,1.7,2.4c0.7,0.6,1.5,1.1,2.5,1.3c1,0.2,2.1,0.2,3.3-0.1c1.4-0.3,2.6-0.9,3.8-1.8
	c1.1-0.9,2.1-2,3-3.2c0.2-0.3,0.3-0.6,0.5-0.8c0.2,0.3,0.3,0.6,0.6,0.8c0.4,0.5,1,1,1.6,1.3c0.6,0.3,1.3,0.6,2,0.7
	c0.7,0.1,1.6,0.1,2.4-0.1c1.5-0.4,2.9-1,4.1-1.9c1.2-0.9,2.2-2,3-3.2c0.1-0.2,0.2-0.4,0.3-0.6c0.5,0.9,1.1,1.6,1.9,2.1
	c1.1,0.7,2.4,0.9,3.9,0.5c0.8-0.2,1.5-0.6,2.3-1.1c0.7-0.6,1.4-1.3,1.9-2.1c0.6-0.8,1-1.7,1.4-2.7c0.4-1,0.6-2,0.7-3.1
	c0.8,0,1.6-0.2,2.5-0.5c0.6-0.2,1.2-0.5,1.7-0.8l0.1,5.7l0,0c0,0.4,0,0.7,0.1,0.9l0.1,0.2l0,0c0.3,0.4,0.6,0.7,1.1,0.7
	c0.4,0,0.7-0.1,1-0.3c0.3-0.3,0.5-0.6,0.5-1l0.1-1.2l0-0.1c0.1-0.7,0.3-1.6,0.5-2.7c0.2-1.1,0.5-2.3,0.8-3.5c0.3-1.2,0.6-2.5,1-3.7
	c0.4-1.2,0.7-2.4,1.1-3.4c0.4-1,0.8-1.9,1.2-2.5c0.4-0.7,0.8-1.1,1.2-1.1c0.4-0.1,0.8,0.1,1,0.5c0.2,0.4,0.4,1,0.5,1.7
	c0.1,0.8,0.1,1.6,0,2.7c-0.1,1-0.1,2.1-0.3,3.3c-0.1,1.1-0.3,2.3-0.4,3.5c-0.2,1.2-0.3,2.3-0.5,3.3c-0.1,0.6,0.1,1.2,0.5,1.6
	c0.4,0.5,1,0.7,1.6,0.8c0.6,0,1.2-0.1,1.6-0.5c0.5-0.4,0.7-0.9,0.7-1.5c0,0,0-0.1,0-0.1c0,0,0,0,0-0.1c0.1-1,0.4-2.2,0.7-3.4
	c0.3-1.3,0.7-2.5,1.1-3.8c0.4-1.3,0.8-2.5,1.3-3.7c0.5-1.2,0.9-2.3,1.4-3.2c0.5-1,0.9-1.7,1.3-2.4c0.4-0.6,0.8-1,1.2-1
	c0.1,0,0.1,0.2,0,0.8c-0.1,0.5-0.3,1.2-0.4,2.1s-0.3,1.9-0.5,3c-0.2,1.1-0.2,2.2-0.2,3.3c0,1.1,0.2,2.1,0.4,3.1
	c0.3,1,0.6,1.9,1.1,2.6c0.5,0.7,1,1.3,1.7,1.6c0.7,0.4,1.5,0.4,2.4,0.2c1.2-0.3,2.3-0.9,3.1-1.9c0.9-1,1.6-2.1,2.1-3.4
	c0-0.1,0.1-0.2,0.1-0.4c0.1,0.2,0.2,0.5,0.3,0.7c0.3,0.7,0.7,1.2,1.1,1.7c0.5,0.5,1,0.8,1.6,0.9c0.6,0.2,1.3,0.2,2.1,0
	c0.8-0.2,1.5-0.5,2.1-1.1c0.6-0.5,1.2-1.2,1.6-2c0.4-0.7,0.8-1.4,1.1-2.2c0.3,0.4,0.6,0.8,1,1.2c0.7,0.6,1.5,1.1,2.5,1.3
	c1,0.2,2.1,0.2,3.3-0.1c1.4-0.3,2.6-0.9,3.8-1.8c1.1-0.9,2.1-2,3-3.2c0.1-0.2,0.2-0.3,0.3-0.5l0,2.1c0,0.1,0,0.1,0,0.2
	c0,0.1,0,0.2,0.1,0.4c0,0,0,0,0,0c0.1,0.1,0.1,0.3,0.2,0.4c0.2,0.3,0.6,0.5,1,0.6c0.4,0,0.7,0,0.9-0.2c0.3-0.2,0.4-0.4,0.6-0.7
	l0.1-0.5l0-0.1c0.2-1,0.4-2.2,0.7-3.5c0.3-1.3,0.7-2.6,1.1-4c0.4-1.3,0.9-2.7,1.4-3.9c0.5-1.3,1-2.4,1.5-3.5c0.5-1,1-1.9,1.5-2.5
	c0.5-0.7,0.9-1,1.2-1.1c0.1,0,0.1,0.2,0,0.8s-0.3,1.2-0.4,2.1c-0.2,0.9-0.3,1.9-0.5,3c-0.2,1.1-0.2,2.2-0.2,3.3
	c0,1.1,0.2,2.1,0.4,3.1c0.3,1,0.6,1.9,1.1,2.6c0.5,0.7,1,1.3,1.7,1.6c0.7,0.4,1.5,0.4,2.4,0.2c1.2-0.3,2.3-0.9,3.1-1.9
	c0.6-0.7,1.1-1.4,1.5-2.3c0.3,0.5,0.7,1,1.1,1.4c0.9,0.7,1.9,1,3.1,0.7c0.7-0.1,1.3-0.4,1.8-0.7c0.6-0.3,1.1-0.7,1.5-1.2
	c0.5-0.5,0.9-1,1.3-1.5c0.4-0.6,0.7-1.1,1-1.7c0.4,1.1,1.1,1.9,1.8,2.4s1.7,0.6,3,0.3c0.8-0.2,1.5-0.5,2.1-1.1
	c0.6-0.5,1.1-1.2,1.6-1.9c0.3-0.4,0.5-0.9,0.7-1.3c0.3,0.6,0.8,1.2,1.3,1.6c0.9,0.7,1.9,0.9,3.1,0.7c0.7-0.1,1.3-0.4,1.9-0.7
	c0.6-0.3,1.1-0.7,1.5-1.2c0.5-0.5,0.9-1,1.2-1.5c0.4-0.6,0.7-1.2,1-1.8c0.5,1,1.2,1.7,2.1,2.3c0.9,0.5,1.9,0.7,3.1,0.4
	c0.8-0.2,1.4-0.5,2-1.1c0.6-0.5,1.1-1.2,1.5-1.9c0.4-0.7,0.8-1.6,1.1-2.5c0.3-0.9,0.6-1.8,0.8-2.7c0.2-0.9,0.4-1.8,0.5-2.6
	c0.1-0.9,0.3-1.6,0.4-2.3C323.7,349.2,323.6,348.8,323.4,348.5z M254.3,363.1c0.2-0.6,0.5-1.2,0.8-1.9c0.3-0.6,0.7-1.2,1.1-1.7
	c0.4-0.5,0.7-0.7,1-0.6c0.2,0.1,0.3,0.4,0.2,1c-0.1,0.6-0.3,1.3-0.7,2c-0.3,0.5-0.7,1-1.3,1.5s-1.1,0.8-1.6,1.1
	C253.9,364.2,254,363.7,254.3,363.1z M169.6,382.9c0.2-0.6,0.5-1.2,0.8-1.9c0.3-0.6,0.7-1.2,1.1-1.7c0.4-0.5,0.7-0.7,1-0.6
	c0.2,0.1,0.3,0.4,0.2,1c-0.1,0.6-0.3,1.3-0.7,2c-0.3,0.5-0.7,1-1.3,1.5c-0.6,0.5-1.1,0.8-1.6,1.1C169.2,384,169.4,383.5,169.6,382.9
	z M201,385.3c-0.8,1.4-1.7,2.2-2.7,2.4c-1,0.2-1.7,0-2.1-0.7c-0.4-0.7-0.5-1.5-0.5-2.6c0-0.7,0.1-1.5,0.3-2.3
	c0.2-0.8,0.4-1.6,0.7-2.4c0.3-0.8,0.6-1.6,1-2.3c0.4-0.7,0.9-1.4,1.4-2l0,0.2c0,0.2,0,0.5,0,1c0,0.5,0.1,1,0.3,1.5
	c0.2,0.6,0.5,1.1,1,1.7c0.5,0.5,1.2,1,2.1,1.3C202.3,382.5,201.8,383.9,201,385.3z M202.6,376.4c0,0.3,0,0.6,0,0.9
	c0,0.3,0,0.6,0,0.8c-0.4-0.3-0.7-0.7-0.8-1.4c0-0.4,0-0.8,0-1.1c0.1-0.3,0.2-0.5,0.2-0.5c0,0,0.1,0.1,0.2,0.4
	C202.5,375.7,202.6,376,202.6,376.4z M291.8,352.8c0,0,0,0.1,0,0.1c0,0,0,0.1,0,0.1c0,0.8,0,1.7-0.1,2.5c0,0.8,0,1.6,0,2.4
	c0,0.5-0.2,1.3-0.4,2.2s-0.5,1.9-0.8,2.8c-0.4,1-0.9,1.8-1.4,2.6c-0.6,0.8-1.3,1.3-2.1,1.4c-0.4,0.1-0.8-0.1-1.1-0.5
	c-0.3-0.4-0.4-1-0.5-1.8c-0.1-0.8,0-1.6,0.1-2.6c0.1-1,0.4-2,0.7-3.1c0.7-2.2,1.5-3.8,2.4-4.9c0.9-1.1,1.9-1.6,2.9-1.7
	c0.1,0,0.2,0,0.2,0.1S291.8,352.7,291.8,352.8z"/>
<g>
	<path d="M223.1,283.2c-0.2,0-0.3,0.3-0.3,0.7c-0.1,0.5-0.1,1,0,1.7l0.1,1.1c0.1,0,0.2,0,0.3,0c0.1,0,0.2,0,0.3,0
		c0.2,0,0.3,0,0.4-0.1c0.1,0,0.2,0,0.2-0.1c0-0.3,0.2-0.5,0.5-0.5c0.2,0,0.3,0,0.5,0.1c0.2,0.1,0.3,0.2,0.3,0.4
		c0.1,0.3,0,0.6-0.1,0.8c-0.2,0.3-0.5,0.5-1,0.6c-0.2,0.1-0.4,0.1-0.6,0.1c-0.2,0-0.5,0.1-0.7,0.1c0,0.7,0,1.4-0.1,2.2
		c0,0.7-0.2,1.4-0.4,2.1l-0.1,0.4c0.6-0.1,1.3-0.2,2-0.3c0.7-0.1,1.4-0.2,2.1-0.3s1.3-0.3,1.9-0.5s1.2-0.6,1.7-1
		c0.5-0.4,0.9-1,1.3-1.7c0.3-0.7,0.6-1.6,0.6-2.6c0-0.2,0.1-0.3,0.2-0.4c0.1-0.1,0.3-0.2,0.5-0.2c0.2,0,0.3,0.1,0.4,0.2
		c0.1,0.1,0.2,0.3,0.2,0.5c-0.1,0.7-0.2,1.4-0.4,2c-0.2,0.6-0.5,1.2-0.8,1.8c-0.3,0.5-0.7,1-1.1,1.4s-0.9,0.7-1.4,1
		c-0.6,0.3-1.3,0.5-1.9,0.7c-0.6,0.1-1.3,0.3-1.9,0.3c-0.6,0.1-1.2,0.2-1.8,0.2s-1.2,0.2-1.7,0.3c-0.4,0.1-0.6,0.2-0.8,0.3
		c-0.6,0.5-1.3,0.9-2.1,1.2c-0.5,0.1-0.9,0.2-1.4,0.1c-0.4-0.1-0.8-0.2-1.2-0.4c-0.4-0.2-0.7-0.5-0.9-0.8s-0.4-0.7-0.5-1
		c-0.2-0.6-0.2-1.1-0.1-1.5c0.1-0.4,0.2-0.8,0.4-1.1c0.2-0.3,0.5-0.6,0.8-0.9c0.3-0.2,0.6-0.4,1-0.5c0.3-0.1,0.6-0.1,1-0.1
		c0.3,0,0.6,0.1,0.9,0.2s0.5,0.3,0.7,0.6c0.2,0.3,0.4,0.6,0.5,0.9c0.1,0.3,0.1,0.5,0,0.8c-0.1,0.3-0.3,0.4-0.6,0.5
		c-0.3,0.1-0.5,0.1-0.8,0c-0.2-0.1-0.4-0.3-0.5-0.6c0-0.1,0-0.2-0.1-0.3c0-0.1-0.1-0.2-0.1-0.3c-0.1-0.1-0.1-0.1-0.2-0.2
		c-0.1,0-0.2,0-0.4,0c-0.3,0.1-0.5,0.2-0.7,0.3c-0.2,0.1-0.3,0.3-0.4,0.5s-0.2,0.4-0.2,0.6s0,0.4,0.1,0.6c0.1,0.3,0.2,0.5,0.4,0.7
		c0.2,0.2,0.4,0.3,0.6,0.4c0.2,0.1,0.5,0.2,0.7,0.2c0.2,0,0.5,0,0.7-0.1c0.7-0.2,1.2-0.5,1.6-1c0.4-0.5,0.6-1.1,0.8-1.8
		c0.1-0.6,0.2-1.1,0.2-1.7c0-0.5,0-1.1,0-1.6l-0.6,0.1c-0.2,0-0.3,0.1-0.4,0.1c-0.1,0-0.2,0.1-0.2,0.1c0,0.1-0.1,0.3-0.1,0.4
		s-0.2,0.2-0.3,0.2c-0.2,0-0.3,0-0.5-0.1c-0.2-0.1-0.3-0.2-0.3-0.4c-0.1-0.3,0-0.6,0.1-0.8c0.2-0.3,0.5-0.4,0.9-0.6
		c0.4-0.1,0.9-0.2,1.5-0.3l0-0.8c0-0.6,0-1.1,0-1.6c0-0.5,0.1-0.9,0.2-1.3c0.1-0.4,0.3-0.7,0.5-0.9s0.5-0.4,0.8-0.4
		c0.2,0,0.3,0,0.5,0.1c0.1,0.1,0.2,0.2,0.3,0.4c0,0.2,0,0.3-0.1,0.5C223.4,283.1,223.3,283.2,223.1,283.2z M219.8,281.4
		c-0.4,0.1-0.7,0.3-1,0.4s-0.5,0.4-0.7,0.6c-0.2,0.2-0.3,0.5-0.4,0.7c-0.1,0.3-0.1,0.5-0.1,0.8c0,0.2,0,0.5,0.1,0.7
		c0.1,0.2,0.1,0.5,0.2,0.7c0.1,0.2,0.2,0.4,0.3,0.6c0.1,0.2,0.2,0.3,0.3,0.4c0.1,0.1,0.1,0.2,0.1,0.4c0,0.1-0.1,0.2-0.2,0.3
		c-0.1,0.1-0.2,0.1-0.3,0.1c-0.1,0-0.2-0.1-0.3-0.2c-0.8-1.1-1.2-2.1-1.3-2.9c0-0.6,0-1.1,0.2-1.5c0.2-0.5,0.4-0.8,0.7-1.2
		c0.3-0.3,0.6-0.6,1-0.8c0.4-0.2,0.7-0.4,1-0.4c0.8-0.2,1.5-0.4,2.2-0.4c0.7-0.1,1.3-0.1,2-0.2c0.6,0,1.3-0.1,1.9-0.1
		s1.2-0.2,1.8-0.3c0.5-0.1,0.9-0.4,1.2-0.8c0.3-0.4,0.4-0.8,0.4-1.2c0-0.3,0.1-0.5,0.4-0.7c0.2-0.2,0.5-0.2,0.8-0.2
		c0.3,0,0.5,0.2,0.7,0.4c0.2,0.2,0.2,0.5,0.2,0.8c-0.2,0.9-0.5,1.6-1.1,2.2c-0.5,0.6-1.2,0.9-1.9,1.1c-0.7,0.2-1.4,0.3-2,0.3
		c-0.7,0-1.4,0-2,0c-0.7,0-1.3,0-2,0C221.1,281.1,220.5,281.2,219.8,281.4z"/>
	<path d="M234.4,289.9c0.2-0.1,0.4-0.2,0.6-0.4c0.2-0.2,0.3-0.5,0.5-0.8c0.1-0.3,0.3-0.6,0.4-1c0.1-0.4,0.2-0.7,0.3-1.1
		c0.1-0.3,0.1-0.7,0.2-1c0-0.3,0.1-0.5,0.1-0.7c0-0.2,0.1-0.4,0.2-0.5c0.1-0.1,0.3-0.2,0.4-0.1c0.2,0,0.3,0.1,0.5,0.2
		c0.1,0.1,0.2,0.3,0.1,0.5c0,0.3-0.1,0.7-0.2,1c-0.1,0.4-0.1,0.8-0.2,1.2c-0.1,0.4-0.2,0.8-0.4,1.2c-0.1,0.4-0.3,0.8-0.5,1.1
		c-0.2,0.3-0.4,0.6-0.7,0.9c-0.3,0.3-0.6,0.4-0.9,0.5c-0.4,0.1-0.8,0.1-1.1,0c-0.3-0.1-0.6-0.3-0.8-0.6c-0.2-0.3-0.4-0.7-0.5-1.1
		c-0.1-0.4-0.2-0.9-0.3-1.5c-0.1-0.5-0.1-1.1-0.1-1.8s0-1.3,0-1.9c0-0.7,0-1.3,0-2c0-0.7,0-1.3,0.1-1.9c0-0.6,0-1.2,0.1-1.7
		c0-0.5,0-1,0.1-1.4c0-0.3,0.1-0.5,0.3-0.7s0.4-0.3,0.7-0.3s0.5,0.1,0.7,0.3c0.2,0.2,0.3,0.4,0.2,0.7c-0.1,1-0.2,2-0.3,3
		c-0.1,1-0.2,2-0.2,3c-0.1,1-0.1,1.9-0.1,2.7c0,0.8,0,1.6,0.1,2.2c0.1,0.6,0.2,1.1,0.3,1.4C233.9,289.9,234.1,290,234.4,289.9z"/>
</g>
<g>
	<g>
		<path class="st11" d="M181,256.8c-0.6,0-1.1,0.5-1.1,1.1c0,0.6,0.5,1.1,1.1,1.1c0.6,0,1.1-0.5,1.1-1.1
			C182.1,257.3,181.6,256.8,181,256.8z"/>
		<path class="st11" d="M186.7,255.7c0,0.7,0.5,1.2,1.2,1.2c0.7,0,1.2-0.5,1.2-1.2c0-0.7-0.5-1.2-1.2-1.2
			C187.2,254.5,186.7,255,186.7,255.7z"/>
		<path class="st11" d="M191.4,255.5c0.7,0,1.3-0.6,1.3-1.3c0-0.7-0.6-1.3-1.3-1.3c-0.7,0-1.3,0.6-1.3,1.3
			C190.1,254.9,190.7,255.5,191.4,255.5z"/>
		<path class="st11" d="M200.8,255.5c0.7,0,1.3-0.6,1.3-1.3c0-0.7-0.6-1.3-1.3-1.3c-0.7,0-1.3,0.6-1.3,1.3
			C199.6,254.9,200.1,255.5,200.8,255.5z"/>
		<path class="st11" d="M200,258.5c0.7,0,1.2-0.5,1.2-1.2c0-0.7-0.5-1.2-1.2-1.2c-0.7,0-1.2,0.5-1.2,1.2
			C198.9,257.9,199.4,258.5,200,258.5z"/>
		<path class="st11" d="M203.2,259.5c0.6,0,1.1-0.5,1.1-1.1c0-0.6-0.5-1.1-1.1-1.1c-0.6,0-1.1,0.5-1.1,1.1
			C202.2,259,202.6,259.5,203.2,259.5z"/>
		<path class="st11" d="M204.4,256.8c0.7,0,1.2-0.5,1.2-1.2c0-0.7-0.5-1.2-1.2-1.2c-0.7,0-1.2,0.5-1.2,1.2
			C203.2,256.3,203.7,256.8,204.4,256.8z"/>
		<path class="st11" d="M206,257.3c0,0.6,0.5,1.1,1.1,1.1s1.1-0.5,1.1-1.1c0-0.6-0.5-1.1-1.1-1.1S206,256.7,206,257.3z"/>
		<path class="st11" d="M205.8,254c0.7,0,1.3-0.6,1.3-1.3c0-0.7-0.6-1.3-1.3-1.3c-0.7,0-1.3,0.6-1.3,1.3
			C204.5,253.4,205.1,254,205.8,254z"/>
		<path class="st11" d="M199.4,261.7c0.6,0,1.1-0.5,1.1-1.1c0-0.6-0.5-1.1-1.1-1.1c-0.6,0-1.1,0.5-1.1,1.1
			C198.3,261.2,198.8,261.7,199.4,261.7z"/>
		<path class="st11" d="M198.7,262.7c-0.6,0-1,0.4-1,1c0,0.6,0.4,1,1,1c0.6,0,1-0.4,1-1C199.7,263.2,199.3,262.7,198.7,262.7z"/>
		<path class="st11" d="M201,263.4c-0.5,0-0.9,0.4-0.9,0.9c0,0.5,0.4,0.9,0.9,0.9c0.5,0,0.9-0.4,0.9-0.9
			C201.9,263.8,201.5,263.4,201,263.4z"/>
		<path class="st11" d="M203.1,264.1c-0.4,0-0.8,0.4-0.8,0.8c0,0.4,0.4,0.8,0.8,0.8c0.4,0,0.8-0.4,0.8-0.8
			C203.9,264.5,203.6,264.1,203.1,264.1z"/>
		<path class="st11" d="M204.9,265c-0.4,0-0.7,0.3-0.7,0.7c0,0.4,0.3,0.7,0.7,0.7c0.4,0,0.7-0.3,0.7-0.7
			C205.6,265.3,205.3,265,204.9,265z"/>
		<path class="st11" d="M206.2,262.8c-0.4,0-0.8,0.4-0.8,0.8c0,0.4,0.4,0.8,0.8,0.8c0.4,0,0.8-0.4,0.8-0.8
			C207,263.1,206.7,262.8,206.2,262.8z"/>
		<path class="st11" d="M203.3,262.3c0,0.5,0.4,0.9,0.9,0.9c0.5,0,0.9-0.4,0.9-0.9c0-0.5-0.4-0.9-0.9-0.9
			C203.7,261.4,203.3,261.8,203.3,262.3z"/>
		<path class="st11" d="M205.9,260.7c0.6,0,1-0.5,1-1c0-0.6-0.5-1-1-1c-0.6,0-1,0.5-1,1C204.9,260.3,205.3,260.7,205.9,260.7z"/>
		<path class="st11" d="M208,260.4c-0.5,0-0.9,0.4-0.9,0.9c0,0.5,0.4,0.9,0.9,0.9c0.5,0,0.9-0.4,0.9-0.9
			C208.9,260.8,208.5,260.4,208,260.4z"/>
		<path class="st11" d="M209.4,258.5c-0.6,0-1,0.5-1,1c0,0.6,0.5,1,1,1c0.6,0,1-0.5,1-1C210.4,259,210,258.5,209.4,258.5z"/>
		<path class="st11" d="M211.4,256.6c-0.6,0-1.1,0.5-1.1,1.1c0,0.6,0.5,1.1,1.1,1.1c0.6,0,1.1-0.5,1.1-1.1
			C212.5,257.1,212,256.6,211.4,256.6z"/>
		<path class="st11" d="M203,261.4c0-0.6-0.4-1-1-1c-0.6,0-1,0.4-1,1c0,0.6,0.4,1,1,1C202.6,262.4,203,261.9,203,261.4z"/>
		<path class="st11" d="M196.1,252.1c-0.8,0-1.4,0.6-1.4,1.4c0,0.8,0.6,1.4,1.4,1.4c0.8,0,1.4-0.6,1.4-1.4
			C197.5,252.7,196.9,252.1,196.1,252.1z"/>
		<path class="st11" d="M196.1,255.6c-0.7,0-1.3,0.6-1.3,1.3c0,0.7,0.6,1.3,1.3,1.3c0.7,0,1.3-0.6,1.3-1.3
			C197.4,256.2,196.8,255.6,196.1,255.6z"/>
		<path class="st11" d="M186.5,254c0.7,0,1.3-0.6,1.3-1.3s-0.6-1.3-1.3-1.3c-0.7,0-1.3,0.6-1.3,1.3S185.8,254,186.5,254z"/>
		<path class="st11" d="M196.2,248.3c-0.8,0-1.5,0.7-1.5,1.5c0,0.8,0.7,1.5,1.5,1.5c0.8,0,1.5-0.7,1.5-1.5
			C197.6,249,197,248.3,196.2,248.3z"/>
		<path class="st11" d="M185.1,258.5c0.6,0,1.1-0.5,1.1-1.1c0-0.6-0.5-1.1-1.1-1.1c-0.6,0-1.1,0.5-1.1,1.1
			C184,258,184.5,258.5,185.1,258.5z"/>
		<path class="st11" d="M187.9,258.4c0,0.6,0.5,1.1,1.1,1.1s1.1-0.5,1.1-1.1c0-0.6-0.5-1.1-1.1-1.1S187.9,257.8,187.9,258.4z"/>
		<path class="st11" d="M191,257.3c0,0.7,0.5,1.2,1.2,1.2c0.7,0,1.2-0.5,1.2-1.2c0-0.7-0.5-1.2-1.2-1.2
			C191.5,256.1,191,256.7,191,257.3z"/>
		<path class="st11" d="M183.9,259.6c0-0.5-0.4-1-1-1c-0.5,0-1,0.4-1,1c0,0.5,0.4,1,1,1C183.4,260.5,183.9,260.1,183.9,259.6z"/>
		<path class="st11" d="M186.4,258.8c-0.5,0-1,0.4-1,1c0,0.5,0.4,1,1,1c0.5,0,1-0.4,1-1C187.3,259.2,186.9,258.8,186.4,258.8z"/>
		<path class="st11" d="M184.3,260.5c-0.5,0-0.9,0.4-0.9,0.9s0.4,0.9,0.9,0.9s0.9-0.4,0.9-0.9S184.8,260.5,184.3,260.5z"/>
		<path class="st11" d="M185.9,262.7c-0.4,0-0.8,0.4-0.8,0.8s0.4,0.8,0.8,0.8c0.4,0,0.8-0.4,0.8-0.8S186.3,262.7,185.9,262.7z"/>
		<path class="st11" d="M189.2,264.1c-0.4,0-0.8,0.4-0.8,0.8c0,0.4,0.4,0.8,0.8,0.8c0.4,0,0.8-0.4,0.8-0.8
			C190,264.5,189.6,264.1,189.2,264.1z"/>
		<path class="st11" d="M191.2,263.4c-0.5,0-0.9,0.4-0.9,0.9c0,0.5,0.4,0.9,0.9,0.9c0.5,0,0.9-0.4,0.9-0.9
			C192.1,263.8,191.7,263.4,191.2,263.4z"/>
		<path class="st11" d="M193.6,262.8c-0.5,0-1,0.4-1,1c0,0.5,0.4,1,1,1c0.5,0,1-0.4,1-1C194.6,263.2,194.1,262.8,193.6,262.8z"/>
		<path class="st11" d="M196.1,262.4c-0.6,0-1.1,0.5-1.1,1.1c0,0.6,0.5,1.1,1.1,1.1c0.6,0,1.1-0.5,1.1-1.1
			C197.2,262.9,196.7,262.4,196.1,262.4z"/>
		<path class="st11" d="M188,263.2c0.5,0,0.9-0.4,0.9-0.9c0-0.5-0.4-0.9-0.9-0.9c-0.5,0-0.9,0.4-0.9,0.9
			C187.1,262.8,187.5,263.2,188,263.2z"/>
		<path class="st11" d="M191.2,261.4c0-0.5-0.4-1-1-1c-0.5,0-1,0.4-1,1c0,0.5,0.4,1,1,1C190.8,262.4,191.2,261.9,191.2,261.4z"/>
		<path class="st11" d="M191.7,260.6c0,0.6,0.5,1.1,1.1,1.1c0.6,0,1.1-0.5,1.1-1.1c0-0.6-0.5-1.1-1.1-1.1
			C192.2,259.5,191.7,260,191.7,260.6z"/>
		<path class="st11" d="M196.1,259.2c-0.7,0-1.2,0.5-1.2,1.2c0,0.7,0.5,1.2,1.2,1.2c0.7,0,1.2-0.5,1.2-1.2
			C197.3,259.8,196.8,259.2,196.1,259.2z"/>
		<path class="st11" d="M187.3,265.1c-0.4,0-0.7,0.3-0.7,0.7c0,0.4,0.3,0.7,0.7,0.7c0.4,0,0.7-0.3,0.7-0.7
			C188,265.4,187.7,265.1,187.3,265.1z"/>
	</g>
</g>
</svg>
